<?xml version="1.0" encoding="UTF-8"?>
<svg id="Layer_2" data-name="Layer 2" xmlns="http://www.w3.org/2000/svg" viewBox="0 0 1132.61 1179.43">
  <defs>
    <style>
      .cls-1 {
        fill: #f96262;
      }

      .cls-2 {
        fill: #fff;
      }

      .cls-3 {
        fill: #fff9e9;
      }

      .cls-4 {
        fill: #febf3f;
      }

      .cls-5 {
        fill: #c31f44;
      }

      .cls-6 {
        fill: #cfd4da;
      }

      .cls-7 {
        fill: #de4053;
      }

      .cls-8 {
        fill: #e06f42;
      }

      .cls-9 {
        fill: #d34e40;
        stroke: #222530;
        stroke-miterlimit: 10;
        stroke-width: 6.78px;
      }
    </style>
  </defs>
  <g id="Camada_3" data-name="Camada 3">
    <g>
      <g>
        <circle class="cls-9" cx="509.49" cy="599.53" r="506.1"/>
        <circle class="cls-4" cx="509.49" cy="599.53" r="454.4"/>
      </g>
      <g>
        <g>
          <path d="M441.1,670.21l.49-.38c.35-.27,.72-.53,1.1-.79,.89-4.11,1.58-8.27,1.99-12.47,.26-8.33-.57-16.69-2.08-24.88-2.42-11.04-5.69-21.88-8.11-32.92-1.35,.75-2.78,1.47-4.15,2.16-2.09,1.05-4.24,2.14-6.2,3.34-12.51,7.56-25.95,12.11-37.54,15.59-16.68,5.23-35.24,9.37-58.41,13.03-18.58,2.5-39.63,5.34-60.05,5.63h-.41c-.59,0-1.45-.02-2.07-.07-1.7-2.63-3.06-5.89-4.49-9.33-.89-2.15-1.82-4.37-2.88-6.56-7.49-17.37-6.93-36.78-5.62-56.81,.43-6.7,2.67-13.07,5.29-19.65,20.43-1.03,37.19-6.07,51.19-15.4,13.37-9.22,22.87-23.36,25.46-37.86,2.1-9.73,1.29-20.57-2.17-30.8,9.35-4.37,17.41-10.58,23.61-18.27l.29-.38c2.89-4.04,5.07-8.28,7.18-12.39,1.71-3.32,3.32-6.47,5.19-9.26,4.6-4.32,10.83-7.94,16.86-11.45,2.59-1.51,5.26-3.06,7.89-4.72,8.21-5.31,15.22-12.25,21.15-18.35,9.53-9.8,15.55-23.97,16.95-39.9l.02-.36c.55-12.54,.02-27.24-8.09-41.06-3.65-6.48-8.99-11.82-15.41-15.58,12.21-12.05,22.23-23.57,30.46-34.99l.16-.23c.73-1.09,1.48-2.19,2.23-3.29,5.19-7.62,10.56-15.49,13.28-24.88,.49-1.69,1.04-3.33,1.58-4.95,1.78-5.36,3.62-10.91,3.78-17.59,1.01-11.56-1.77-23.49-8.05-34.54l-.42-.66c-6.92-9.88-16.83-17.06-27.2-19.71l-.32-.08-.32-.06c-9.86-1.7-20.52,.31-29.33,5.56-7.28,4.47-11.27,11.08-14.79,16.9l-.6,.99c-3.04,5.01-5.33,10.18-7.55,15.18-2.14,4.83-4.17,9.39-6.73,13.58l-.32,.57c-6.6,12.99-16.13,23.31-28.3,34.11-12.43-8.64-25.57-13.18-39.13-13.54-6.59-.4-12.57,.88-17.82,2.54-11.81-8.53-27.29-12.82-44.16-12.15-24.09,1.03-44.63,9.1-59.45,23.39-13.19,12.99-20.62,31.13-21.47,52.46v.2c-.14,8.79-3.03,16.59-6.37,25.63l-.65,1.76c-.46,1.39-.93,2.79-1.4,4.21-3.48,10.39-7.43,22.16-8,33.97v.52c.1,8.05,.25,18.06,3.56,27.65l.95,2.6c1.9,5.19,3.84,10.5,6.5,15.68-8.01,5.12-14.3,11.51-18.75,19.08-7.15,12.04-9.25,26.68-5.92,41.15,3.48,15.78,12.91,31.41,26.79,44.56-3.58,8.02-6.38,16.79-8.66,27.08l-.03,.13-.02,.13c-6.91,36.67-2.35,75.58,12.85,109.54,10.9,24.6,28.08,47.06,52.53,68.66l.14,.12c8.47,7.15,19.32,8.3,28.03,9.23l.8,.08c28.45,2.01,60.13-1.27,96.88-10.03l.43-.12c5.17-1.53,10.45-3,15.56-4.42,12.15-3.38,24.71-6.87,36.87-11.53,22.07-8.12,39.5-15.84,54.84-24.29l.54-.3Z"/>
          <path class="cls-2" d="M389.81,257.93c8.95-9.48,16.7-20.42,23.33-31.64,6.17-9.55,11.56-18.75,12.76-30.37,.72-6.69-1.72-12.34-2.7-19.31-3.24-2.44-5.77-3.78-9.88-2.28-7.58,1.73-10.05,9.19-13.46,15.27-5.13,11.02-9.06,22.42-15.28,32.94-6.04,11.15-14.47,19.72-23.03,28.89-3.42,3.54-7.4,6.4-11.72,8.72,2.98,7.94,7.52,14.7,8.52,23.45,11.44-7.23,21.79-16.25,31.47-25.68Z"/>
          <path class="cls-6" d="M413.14,226.29c-6.63,11.22-14.37,22.16-23.33,31.64-9.68,9.42-20.03,18.45-31.47,25.68,.94,5.62,.4,11.1-.73,16.63,4.86-2.74,10.18-4.15,15.19-6.5,7.05-4.48,13.73-9.84,19.36-16.05,14.16-15.14,28.09-31.21,37.01-50.15,3.36-9.54,7.11-20.7,5.58-30.88-1.22-6.52-2.89-12.85-8.17-17.31-1.11-.93-2.24-1.83-3.38-2.73,.99,6.97,3.42,12.61,2.7,19.31-1.21,11.62-6.59,20.82-12.76,30.37Z"/>
          <path class="cls-2" d="M299.83,301.57c-.97,14.33-6.26,28.47-13.45,40.83,5.64-1.18,8.31-5.21,12.48-8.71,.9-6.59,2.14-12.83,7.06-17.67,3.21-3.21,7.26-4.6,11.6-5.49,2.46-13.56,6-27.53,2.5-41.22-1.8-7.63-6.06-13.1-9.9-19.72-7.9-3.9-16.31-4.96-24.94-3.37,12.48,15.63,16.71,35.74,14.64,55.36Z"/>
          <path class="cls-6" d="M317.54,310.53c6.53-.58,13.03-.43,19.51-1.59,3.64-8.85,5.58-19.31,2.35-28.6-4.34-12.45-13.66-22.25-25.04-28.65-1.39-.73-2.82-1.43-4.24-2.11,3.85,6.62,8.1,12.09,9.9,19.72,3.5,13.69-.04,27.67-2.5,41.22Z"/>
          <path class="cls-2" d="M275.33,479.5c1.39-4.66,.47-8.98-.87-13.48-6.63-1.32-14.55-3.26-19.31-8.44-4.99-4.98-10.65-7.47-12.55-14.86,12.42-.3,24.53-2.54,36.7-4.77,11.9-2.22,21.45-7.76,32.1-13.1,11.16-5.5,21.22-14.21,27.69-24.87,3.61-6.4,1.91-16.12-6.16-17.86-8.36-1.51-16.19,6.97-24.67,7.11-11.99,.46-22.74-2.67-34.94,.04-6.01,1.22-10.29,5.11-15.4,8.33-7.96-5.78-14.04-13.2-23.06-17.65,.09-.5,.16-1.02,.25-1.53-7.22-1.24-15.98-2.16-21.86-6.85-11.99-8.82-19.39-25.51-15.9-40.27,1.41-7.78,4.7-16.59,11.24-21.49,6.28-4.57,13.49-7.56,21.33-5.46,.24-4.92,.89-9.15-2.05-13.49,4.48,2.01,8.41,3.94,10.69,8.56,5.62,10.48,1.6,23.79-3.71,33.56-1.25-6-4.36-10.96-6.84-16.44-4.46-.35-8.06,.61-10.92,4.18-7.8,11.63-7.89,27.71,2.3,37.94,6.87-1.31,13.48-3,18.75-7.88,10.92-10.22,16.67-24.67,20.95-38.7,4.01-16.56,5.73-35.36,.72-51.89-1.95-6.63-6.01-11.49-10.16-16.81-10.87-3.52-22.2-2.79-32.77,1.27-9.02,3.22-16.85,10.25-23.43,17.03-8.15,8.81-9.87,21.96-11.93,33.3-2.97,25.71-15.41,46.2-15.28,72.57,.27,12.75,5.87,24.51,12.79,34.96,9.54,14.97,23.32,26.01,39.07,33.94-7.13,1.31-14.22,.1-21-2.28-10.84-4.16-19.36-11.15-27.68-19.03-6.81,3.48-12.78,9.46-16.49,16.14-3.44,7.27-4.61,15.89-2.46,23.71,3.52,13.87,13.33,25.37,23.99,34.48,15.46,12.92,34.64,22.25,54.44,26.07,8.35-3.18,16.59-3.81,24.42-8.55,10.01-6.09,18.9-16.06,22-27.5Z"/>
          <path class="cls-6" d="M259.81,260.18c5.02,16.53,3.3,35.34-.72,51.89-4.28,14.02-10.03,28.47-20.95,38.7-5.28,4.88-11.88,6.57-18.75,7.88,6.74,4.64,14.64,5.66,22.27,2.76,5.07-1.79,7.85-5.78,11.96-9.05,7.3-5.64,14.19-13.12,17.75-21.75,3.56-8.5,7.18-16.68,8.6-25.87,2.45-14.8,.45-31.57-8.07-44.22-5.17-8.05-13.34-13.88-22.24-17.16,4.15,5.32,8.21,10.18,10.16,16.81Z"/>
          <path class="cls-2" d="M343.79,349.77c16.88,2.5,32.08-4.09,49.13-.81,3.21,1.28,3.72,6.61,4.1,9.6,.98,8.56-5.5,13-7.97,21.06,6.09-6.07,12.09-11.6,15.24-19.83,3.52-9.2,4.47-20.97,2.63-30.67-1.76-6.72-4.96-15.18-11.36-18.73-5.45-2.6-11.89-3.3-17.77-1.8-12.67,2.66-21.5,11.66-34.26,14.86-9.15,2.75-18.08,1.91-27.43,2.5-3.13,6.8-2.37,11.45,2.19,17.14,8.47,2.7,16.55,5.84,25.49,6.68Z"/>
          <path class="cls-6" d="M257.92,397.6c5.11-3.22,9.4-7.1,15.4-8.33,12.19-2.71,22.95,.42,34.94-.04,8.48-.13,16.31-8.62,24.67-7.11,8.07,1.74,9.77,11.46,6.16,17.86-6.47,10.66-16.53,19.37-27.69,24.87-10.65,5.34-20.2,10.87-32.1,13.1-12.17,2.23-24.28,4.46-36.7,4.77,1.91,7.38,7.57,9.88,12.55,14.86,7.02,.67,13.7,1.32,20.74,.35,14.14-2.02,27.27-7.13,39.7-14.02,10.14-5.15,19.52-12.31,26.76-21.11,4.92-5.92,7.87-13.19,12.37-19.28,10.86-8.67,23.98-14.66,34.32-23.89,2.47-8.05,8.96-12.49,7.97-21.06-.38-2.98-.89-8.31-4.1-9.6-17.05-3.28-32.26,3.3-49.13,.81-8.95-.84-17.02-3.98-25.49-6.68,3.23,3.82,7.18,7.61,11.83,9.59,11.83,3.94,25.04,3.51,36.94,6.66-4.27,4.11-10.76,5.87-16.31,7.57-8.75,2.56-17.54,2.15-26.47,.81-15.13,16.85-45.49,17.16-60.74,.32-7.72,8.57-16.98,11.95-28.44,10.38-.09,.51-.16,1.03-.25,1.53,9.02,4.45,15.1,11.87,23.06,17.65Z"/>
          <path class="cls-6" d="M286.39,342.4c-2.6,4.27-5.48,8.33-8.36,12.41,5.2,4.75,11.56,7.79,18.73,7.66,4.5-.1,10.4-.24,14.26-2.73-7.22-7.3-11.95-15.56-12.14-26.06-4.18,3.51-6.85,7.53-12.48,8.71Z"/>
          <path class="cls-6" d="M304.82,496.7c5.06-9.15,3.29-18.62,.6-28.1-5.63,.2-11.71,.94-17.23-.02-4.58-.78-9.15-1.7-13.72-2.57,1.34,4.5,2.25,8.82,.87,13.48-3.1,11.44-11.99,21.41-22,27.5-7.82,4.74-16.07,5.37-24.42,8.55,14.45,3.82,30.57,4.29,45.2,1.14,11.79-2.63,24.73-8.98,30.71-19.98Z"/>
        </g>
        <g>
          <path class="cls-5" d="M777.05,680.45c225.95-277.37,228.62-283.72,229.51-285.83,5.19-12.34,8.25-32.22,8.92-36.83l51.08-69.83,.04-.05c.2-.28,4.89-7.07,3.54-18-1.6-13.06-10.73-26.12-27.13-38.85l19.56-23.7c.84-.85,2.54-3.07,2.55-7.08,.03-10-10.34-23.88-30.8-41.28,17.23-24.5,39.37-56.08,41.22-59.15,.58-.96,1.44-2.79,1.55-5.29,4.78-6.95,32.02-46.65,36.26-54.03,4.13-7.2,4.34-13.49,.62-18.71h0l-.28-.35c-.49-.53-4.95-5.22-11.83-5.49-4.68-.18-9.18,1.7-13.36,5.62-4.39,4.1-21.97,22.94-33.95,35.83-11.7-11.78-51.59-42.97-136.27-29.75-58.91,9.19-90.72,40.34-107.02,64.86-19.31,29.02-28.16,65.73-24.35,100.82-6.7,3.07-14.35,6.97-19.94,10.97-1.89,1.35-7.62,5.47-237.63,299.92-26.37,33.77-53.13,68.06-78.94,101.18m-181.34,281.86c.97,3.53,2.16,7.1,3.57,10.68,6,15.31,15.97,31.07,29.64,46.85,22.65,26.15,47.47,43.31,49.46,44.67,34.66,26.56,66.8,40.93,95.52,42.69,17.29,1.06,30.3-2.7,39.01-6.24,3.26-1.33,5.93-2.63,7.98-3.63l.71-.35c3.23-1.57,6.05-3.8,8.38-6.64,9.37-11.4,37.66-45.92,76.13-92.92M921.56,48.71c46.11-7.2,76.29,.28,93.5,7.82,12.55,5.5,20.18,11.83,23.79,15.32-3.6,3.63-28.91,31.4-48.5,52.94-21.4-15.98-37.17-22.95-46.88-20.71-3.91,.9-5.7,3.04-6.35,4.06l-18.77,24.33c-16.05-13.16-30.81-19.16-43.9-17.83-5.4,.55-9.49,2.3-12.28,3.97h0c-.08,.04-.2,.11-.24,.14l-.14,.09h0c-2.63,1.63-4,3.13-4.11,3.25l-50.35,57.95c-1.48-56.47,32.36-118.56,114.23-131.34h0Z"/>
          <path class="cls-3" d="M257.53,903.18c-17.3-35.94-50.29-53.31,185.93-314.83,23.48-30.13,48.11-61.69,73.3-93.94,98.12-125.6,166.91-213.08,204.48-260.01,31.79-39.72,33.63-41.04,36.42-43.04,3.42-2.45,7.61-4.99,12.54-7.59-1.37-35.22,8.5-71.13,27.76-100.08,18.08-27.18,53.2-61.7,117.86-71.79,39-6.09,73.71-4,103.18,6.19,14.76,5.1,26.02,11.56,34.17,17.39,19.95-21.36,23.24-24.43,24.42-25.54,9.23-8.64,18.63-10.16,24.9-9.91,12.73,.51,20.81,8.3,22.98,10.67,.23,.25,.44,.5,.65,.76l.28,.35c.2,.25,.39,.5,.57,.76,4.31,6.06,10.07,18.78,.21,35.93-4.11,7.16-25.71,38.75-34.93,52.18-.78,3.17-2,5.68-3.06,7.44-.64,1.06-2.26,3.73-33.69,48.5,17.42,16.74,25.61,30.82,25.57,43.72-.01,8.85-3.83,14.62-6.5,17.57l-9.42,11.42c12.19,12.29,19.19,25.25,20.83,38.65,2.03,16.43-4.96,27.22-6.38,29.21-.06,.08-.12,.17-.18,.25h0s-48.74,66.64-48.74,66.64c-1.39,8.59-4.49,25.09-9.39,36.74-1.32,3.13-2.19,5.2-32.58,43.44-35.01,44.05-99.85,124.21-192.8,238.34l-209.59,256.64c-37.43,45.73-62.33,76.1-70.65,86.22-3.79,4.61-8.4,8.26-13.72,10.85l-.72,.35c-2.04,1-5.14,2.51-8.95,4.06-14.47,5.89-29.95,8.38-46.01,7.39-31.85-1.95-66.81-17.33-103.92-45.7-4.27-2.96-29.26-20.71-52.15-47.14-14.85-17.15-25.77-34.47-32.44-51.48-.24-.6-.47-1.21-.69-1.81m506-213.79c-3.16-5.71-2.53-12.76,1.59-17.82,185.89-228.19,222.72-275.5,227.46-282.63,3.35-8.38,6.15-22.47,7.54-32.21,.37-2.59,1.37-5.05,2.92-7.16l50.75-69.38c.33-.65,1.42-3.19,.94-7.12-1.05-8.56-8.34-18.3-21.08-28.19-3.41-2.65-5.6-6.56-6.08-10.86-.48-4.29,.81-8.59,3.56-11.92l18.08-21.91c-1.17-3.08-5.89-11.75-24.8-27.83-6.29-5.35-7.47-14.6-2.72-21.35,29.9-42.53,37.88-54.14,40-57.29,.32-2.51,1.24-4.91,2.68-7.01,14.02-20.4,30.15-44.18,34.72-51.52-2.45,2.42-9.89,10.07-32.39,34.29-2.96,3.19-7.09,5.03-11.43,5.1h-.07c-.35,3.64-1.95,7.08-4.55,9.7-2.6,2.62-20.55,22.23-48.03,52.44-5.53,6.08-14.78,6.97-21.37,2.05-19.75-14.74-29.2-17.41-32.44-17.86l-17.35,22.5c-2.64,3.42-6.55,5.62-10.83,6.11-4.29,.49-8.59-.78-11.93-3.52-12.47-10.22-23.59-15.16-32.16-14.29-2.7,.27-4.58,1.12-5.68,1.78l-.04,.02s-.1,.06-.15,.09c-.43,.27-.73,.5-.89,.63l-49.93,57.47c-4.13,4.76-10.65,6.62-16.64,4.82-.68,5.39-4.09,10.18-9.19,12.52-8.78,4.03-13.86,7.06-16.67,9-6.05,6.36-45.51,54.66-234.97,297.2-27.21,34.84-53.76,68.87-78.93,101.16-3.5,4.49-9.11,6.77-14.75,6.01m-177.37,250.17c6.47,.74,11.85,5.34,13.58,11.63,.83,3.01,1.85,6.07,3.04,9.08,5.34,13.63,14.38,27.83,26.85,42.24,21.43,24.75,45.4,41.25,46.4,41.94,.24,.16,.47,.33,.7,.51,32.1,24.6,61.29,37.86,86.78,39.43,11.4,.7,21.86-.97,32.01-5.09,2.81-1.14,5.13-2.28,6.99-3.19l.73-.36c1.18-.57,2.17-1.36,3.04-2.42,8.72-10.6,35.63-43.44,76.11-92.89,1.72-2.1,3.9-3.69,6.34-4.68h0c2.43-.99,5.11-1.38,7.8-1.08M1049.14,200.3h0s0,0,0,0h0Zm-113.71-110.38c1.35-.55,2.83-1.03,4.45-1.4,12.53-2.89,28.01,1.93,48.13,15.11,11.36-12.48,20.33-22.31,26.87-29.44-1.87-1.02-3.95-2.04-6.23-3.04-15.26-6.69-42.32-13.27-84.62-6.67h0c-45.18,7.05-72.6,30.13-87.2,57.26l8.8-10.13c.11-.13,.23-.26,.34-.38,1.06-1.15,3.34-3.36,6.9-5.64,.11-.07,.23-.15,.34-.22,.31-.2,.73-.47,1.21-.73,.07-.04,.13-.07,.2-.11,5.49-3.16,11.62-5.11,18.22-5.78,13.43-1.36,27.61,2.58,42.3,11.73l9.04-11.71c1.86-2.66,5.36-6.45,11.25-8.85h0Zm15.15,26.81v.02s0-.02,0-.02h0Zm151.54-84.25h0s0,0,0,0h0Z"/>
          <path class="cls-5" d="M777.05,680.45c225.95-277.37,228.62-283.72,229.51-285.83,5.19-12.34,8.25-32.22,8.92-36.83l51.08-69.83,.04-.05c.2-.28,4.89-7.07,3.54-18-1.6-13.06-10.73-26.12-27.13-38.85l19.56-23.7c.84-.85,2.54-3.07,2.55-7.08,.03-10-10.34-23.88-30.8-41.28,17.23-24.5,39.37-56.08,41.22-59.15,.58-.96,1.44-2.79,1.55-5.29,4.78-6.95,32.02-46.65,36.26-54.03,4.13-7.2,4.34-13.49,.62-18.71h0l-.28-.35c-.49-.53-4.95-5.22-11.83-5.49-4.68-.18-9.18,1.7-13.36,5.62-4.39,4.1-21.97,22.94-33.95,35.83-11.7-11.78-51.59-42.97-136.27-29.75-58.91,9.19-90.72,40.34-107.02,64.86-19.31,29.02-28.16,65.73-24.35,100.82-6.7,3.07-14.35,6.97-19.94,10.97-1.89,1.35-7.62,5.47-237.63,299.92-26.37,33.77-53.13,68.06-78.94,101.18m-181.34,281.86c.97,3.53,2.16,7.1,3.57,10.68,6,15.31,15.97,31.07,29.64,46.85,22.65,26.15,47.47,43.31,49.46,44.67,34.66,26.56,66.8,40.93,95.52,42.69,17.29,1.06,30.3-2.7,39.01-6.24,3.26-1.33,5.93-2.63,7.98-3.63l.71-.35c3.23-1.57,6.05-3.8,8.38-6.64,9.37-11.4,37.66-45.92,76.13-92.92M921.56,48.71c46.11-7.2,76.29,.28,93.5,7.82,12.55,5.5,20.18,11.83,23.79,15.32-3.6,3.63-28.91,31.4-48.5,52.94-21.4-15.98-37.17-22.95-46.88-20.71-3.91,.9-5.7,3.04-6.35,4.06l-18.77,24.33c-16.05-13.16-30.81-19.16-43.9-17.83-5.4,.55-9.49,2.3-12.28,3.97h0c-.08,.04-.2,.11-.24,.14l-.14,.09h0c-2.63,1.63-4,3.13-4.11,3.25l-50.35,57.95c-1.48-56.47,32.36-118.56,114.23-131.34h0Z"/>
          <path class="cls-5" d="M581.74,928.01c-39.46,48.22-65.71,80.24-74.31,90.69-2.81,3.42-6.23,6.13-10.16,8.04l-.71,.35c-2.04,.99-4.83,2.36-8.3,3.77-13.17,5.36-26.69,7.53-41.34,6.63-29.76-1.83-62.84-16.53-98.31-43.69-3.29-2.26-27.84-19.48-50.36-45.5-14.06-16.23-24.35-32.52-30.57-48.4-1.01-2.56-1.92-5.15-2.72-7.74-34.69-55.24,98.6-186.33,183.14-292.44,24.61-31.57,50.52-64.79,77.06-98.76,230.47-295.04,236.04-299.04,238.72-300.96,4.32-3.1,10.15-6.41,17.38-9.88-2.93-35.14,6.3-71.57,25.57-100.54,16.89-25.4,49.8-57.67,110.64-67.17,37.26-5.82,70.25-3.89,98.06,5.73,18.95,6.55,31.51,15.41,38.76,21.75,17.04-18.32,27.32-29.14,30.58-32.18,5.26-4.92,11.05-7.29,17.21-7.05,8.84,.36,14.5,6.08,15.55,7.22,.07,.08,.15,.17,.22,.25l.28,.35c.07,.08,.13,.17,.19,.25,3.46,4.86,6.21,13.05-.34,24.45-4.18,7.28-28.96,43.43-35.71,53.26-.38,2.73-1.35,4.81-2.16,6.16-1.49,2.46-14.49,21.13-38.66,55.52,19.54,17.23,29.03,31.05,29,42.17,0,5.58-2.36,8.99-3.89,10.61l-16.01,19.4c14.89,12.58,23.26,25.67,24.89,38.96,1.58,12.79-3.86,20.86-4.48,21.74l-.06,.08-.04,.05-50.28,68.73c-1.05,6.99-4.08,24.92-9.08,36.81-1.25,2.97-3.84,9.13-228.06,284.39m-11.02,1.95c-1.05-1.9-.84-4.25,.53-5.94,194.77-239.1,226.9-280.87,228.72-284.49l.02-.04c4.99-11.86,8-31.67,8.55-35.52,.12-.86,.46-1.68,.97-2.39l51.09-69.84c.25-.38,3.64-5.65,2.58-14.25-1.42-11.59-9.87-23.46-25.11-35.3-1.14-.88-1.87-2.19-2.03-3.62-.16-1.43,.27-2.86,1.19-3.97l19.56-23.7c.1-.12,.2-.24,.31-.35,.17-.17,1.01-1.14,1.02-3.36,.01-4.71-3.73-15.79-28.93-37.22-2.09-1.78-2.49-4.87-.91-7.12,35.09-49.92,40.38-57.78,41.02-58.84,.22-.36,.73-1.35,.79-2.77,.04-1,.37-1.96,.93-2.78,11.76-17.11,32.58-47.66,36.03-53.67,3.99-6.94,2.51-10.65,.98-12.86l-.04-.05c-.56-.58-3.61-3.5-8.03-3.68-3.25-.13-6.36,1.24-9.51,4.19-2.27,2.12-9.95,10.01-33.69,35.57-.99,1.06-2.36,1.68-3.81,1.7-1.45,.02-2.85-.54-3.87-1.57-5.41-5.45-17.63-15.67-38.73-22.97-26.14-9.04-57.41-10.82-92.94-5.28-57.01,8.9-87.7,38.92-103.41,62.54-18.61,27.97-27.17,63.43-23.49,97.29,.25,2.28-.99,4.46-3.07,5.41-8.22,3.77-14.63,7.29-19.05,10.46l-.05,.03c-3.19,2.63-38.17,44.96-236.49,298.83-27.21,34.84-53.77,68.88-78.93,101.17-1.17,1.5-3.04,2.26-4.92,2m-180.02,271.3c2.16,.25,3.95,1.78,4.53,3.88,.93,3.37,2.07,6.78,3.39,10.15,5.78,14.75,15.44,30,28.71,45.31,21.95,25.34,45.8,41.95,48.44,43.76,.08,.05,.16,.11,.23,.17,33.81,25.91,64.96,39.91,92.6,41.6,13.02,.8,25.02-1.12,36.67-5.86,3.14-1.28,5.75-2.55,7.65-3.48l.72-.35c2.54-1.24,4.77-3,6.6-5.23,8.72-10.61,35.64-43.45,76.13-92.91,.57-.7,1.3-1.23,2.11-1.56h0c.81-.33,1.7-.46,2.6-.36M992.35,129.73c-1.68,.68-3.65,.49-5.19-.66-26.35-19.67-37.93-20.85-42.5-19.79-2.17,.5-2.93,1.53-3.06,1.74-.09,.13-.18,.26-.27,.39l-18.77,24.33c-.88,1.14-2.18,1.87-3.61,2.04-1.43,.16-2.86-.26-3.98-1.17-14.92-12.23-28.37-17.83-39.99-16.65-4.65,.47-8.04,2.02-10.08,3.24-.05,.03-.09,.05-.14,.08-.06,.04-.12,.08-.18,.11-1.77,1.1-2.76,2.07-2.96,2.29l-50.28,57.88c-1.44,1.66-3.75,2.26-5.82,1.52-2.07-.74-3.47-2.68-3.52-4.87-.82-31.31,8.75-61.65,26.95-85.43,21.03-27.48,52.77-45.22,91.78-51.31,47.38-7.4,78.61,.38,96.46,8.2,13.43,5.89,21.65,12.78,25.36,16.37,1.02,.99,1.61,2.35,1.62,3.77,.01,1.42-.54,2.79-1.54,3.8-2.78,2.8-19.95,21.55-48.35,52.78-.55,.61-1.21,1.06-1.93,1.35h0Zm-52.89-29.95c.85-.34,1.78-.65,2.81-.88,10.8-2.49,26.32,3.65,47.36,18.78,15.8-17.37,33.54-36.83,41.56-45.46-3.94-3.14-9.93-7.16-18.27-10.81-16.55-7.26-45.7-14.44-90.54-7.44h0c-75.15,11.73-105.2,64.38-109.28,111.32l40.56-46.69s.08-.09,.11-.13c.59-.64,2.23-2.27,5-4.02,.05-.03,.1-.07,.15-.1l.03-.02c.1-.07,.36-.24,.63-.39,.06-.03,.12-.07,.18-.1,4.23-2.47,8.98-3.98,14.15-4.51,13.32-1.35,27.93,3.9,43.5,15.62l15.36-19.92c1.01-1.5,3.04-3.79,6.68-5.27h0Z"/>
          <path class="cls-4" d="M1108.02,26.36c1.25,1.86,2.14,4.74-1.15,10.47-3.46,6.03-23.92,35.99-32.66,48.74-2.06-3.07-5.46-6.47-10.87-10.06-3.67-2.67-7.04-4.57-10.1-5.71,10.48-11.31,35.24-37.98,40.34-42.75,7.36-6.89,13.07-2.08,14.45-.69h0Z"/>
          <path class="cls-4" d="M1060.89,82.88c6.8,4.92,10.09,10.06,8.25,13.13-2.18,3.61-37.46,53.8-58.27,83.33-.41-.25-.83-.51-1.25-.77-9.66-6.08-18.33-13.3-18.42-13.37l-.23-.18c-6.25-4.45-11.32-8.87-15.35-12.94,24.07-26.52,65.55-72.13,68.61-75.08,2.55-2.46,8.6-.29,16.6,5.95l.06-.07h0Z"/>
          <path class="cls-4" d="M1029.99,165.12c31.62,27.01,27.67,36.25,27.25,37l-.08,.07-37.77,45.77c-3.17-1.86-6.78-4.06-10.88-6.66-26.12-16.55-51.16-35.97-74.42-57.73-11.89-11.11-20.26-19.31-26.17-25.35l35.23-45.69,.22-.29,.05-.09c.63-.56,8.73-6.44,41.89,18.19-1.28,1.41-2.53,2.78-3.72,4.09-2.01-.91-4.79-2.12-7.71-3.27-9.64-3.79-13.92-4.29-16.37-1.88-.91,.9-1.95,2.55-1.73,5.3,.59,7.45,11.58,22.74,30.76,36.43,1.12,.92,9.48,7.79,19.06,13.83,12.96,8.16,21.88,10.96,27.65,8.62,1.01-.41,1.93-.99,2.75-1.71,3.83-3.39,.06-9.53-4.14-15.52-1.78-2.54-3.64-4.97-4.98-6.68,1-1.42,2.04-2.89,3.11-4.41h0Z"/>
          <path class="cls-4" d="M1038.24,236.82c18.12,14.04,23.31,25.87,24.41,33.45,1.18,8.15-1.95,13.04-2.15,13.34l-50.3,68.77c-3.46-.6-11.75-2.58-25.38-8.91-17.06-7.93-46.21-24.5-88.16-58.43l-.04-.03c-42.29-33.28-64.48-57.42-75.66-71.8-8.66-11.16-12.22-18.33-13.55-21.53,0,0,.64-.74,.6-1.07l50.51-58.13c.73,2.6,1.85,4.91,3.09,7.06,1.58,2.75,3.37,5.27,5.29,7.65,.93,1.22,1.95,2.34,2.93,3.5,1.02,1.12,2.03,2.25,3.07,3.34,4.16,4.37,8.55,8.43,13.06,12.35,4.52,3.9,9.16,7.63,13.85,11.27-4.29-4.12-8.51-8.3-12.57-12.61-4.04-4.33-7.93-8.79-11.51-13.43-.9-1.16-1.75-2.35-2.61-3.52-.81-1.21-1.68-2.38-2.43-3.62-1.57-2.43-2.97-4.93-4.1-7.47-.57-1.27-1.03-2.55-1.42-3.82-.34-1.26-.63-2.53-.68-3.7-.06-1.16,.06-2.25,.38-3.06,.16-.4,.36-.74,.57-1,.09-.11,.19-.2,.28-.27l.05-.03h0s.12-.07,.12-.07l.02-.02h0c2.07-1.26,5.32-2.67,9.84-3.03,7.64-.62,20.33,1.82,38.04,16.38l-4.8,6.22c-1.53-1.15-3.67-2.68-5.99-4.05-7.25-4.3-12.46-4.72-15.5-1.27-2.88,3.28,.48,7.64,2.5,10.24,2.14,2.78,5.48,6.53,9.9,11.14,7.01,7.3,16.79,16.84,29.1,28.34,23.6,22.07,49.01,41.78,75.53,58.57,9.26,5.87,17.23,10.48,23.04,13.33,6.04,2.97,10.6,4.59,13.57,3.38,.81-.33,1.5-.87,2.07-1.65,2.69-3.72,1.12-8.71-4.68-14.83-1.86-1.96-3.82-3.71-5.28-4.94l5.01-6.07h0Z"/>
          <path class="cls-4" d="M1022.4,175.9c3.29,4.3,6.06,8.45,7.19,10.78-1.74,.23-5.32-.17-12.2-3.67,1.35-1.93,3.05-4.33,5.01-7.11h0Z"/>
          <path class="cls-4" d="M1028.5,248.62c3.24,2.73,6.14,5.79,7.57,7.93-2.11-.78-5.38-2.29-10.1-4.86l2.53-3.07h0Z"/>
          <path class="cls-4" d="M976.31,140.23c-2.26,2.5-4.21,4.64-5.73,6.32-3.99-4.79-6.26-8.71-7.06-11.03,2.87,.68,7.85,2.56,12.79,4.71Z"/>
          <path class="cls-4" d="M1007.67,359.49c-.38,2.35-.94,5.66-1.67,9.38h-.06s-1.5-.03-1.5-.03l-.75-.02c-.25,0-.51-.03-.76-.05l-1.53-.12-.76-.06c-.25-.02-.51-.07-.77-.1l-3.09-.41-3.08-.58-1.55-.29-1.53-.38-3.08-.76c-.51-.12-1.03-.26-1.53-.42l-1.53-.46-3.05-.92c-.51-.15-1.02-.32-1.52-.5l-1.51-.54-3.02-1.08-1.51-.54-1.48-.61-5.95-2.46c-1.96-.89-3.9-1.81-5.85-2.72l-2.93-1.38-2.87-1.49-5.75-3c-1.89-1.03-3.75-2.14-5.63-3.22-1.87-1.09-3.77-2.13-5.61-3.27l-5.51-3.46-2.75-1.73c-.92-.59-1.85-1.14-2.74-1.77l-10.76-7.35,10.22,8.1c.84,.69,1.73,1.32,2.6,1.96l2.63,1.93,5.27,3.87c1.77,1.27,3.6,2.45,5.4,3.69,1.81,1.21,3.61,2.46,5.44,3.64l5.59,3.44,2.79,1.72,2.87,1.61c1.92,1.06,3.82,2.15,5.75,3.19l5.9,2.95,1.48,.74,1.51,.67,3.03,1.34,1.52,.67c.5,.23,1.01,.45,1.53,.63l3.11,1.19,1.56,.6c.52,.2,1.04,.39,1.57,.56l3.19,1.03,1.6,.52,1.63,.43,3.27,.87,3.33,.69c.28,.05,.56,.12,.84,.16l.85,.13,1.71,.25c.29,.04,.57,.09,.85,.12l.88,.09,.49,.04c-1.29,5.52-2.88,11.21-4.76,15.69-8.81,16.5-435.01,537.27-502.15,618.91-1.64,2-3.62,3.57-5.88,4.67l-.72,.35c-15.53,7.58-56.77,27.72-134.78-32.1l-.18-.13c-.25-.17-25.73-17.58-48.2-43.56-20.37-23.56-42.41-59.25-31.7-95.45,.89-3.01,1.94-5.22,3.31-6.98,61.24-79.13,434.74-559.38,486.4-620.79,.09,.4,.18,.8,.28,1.2,.42,1.75,1.01,3.42,1.61,5.07,.34,.8,.66,1.62,1.01,2.42,.38,.78,.71,1.58,1.12,2.35,3.1,6.17,7.11,11.64,11.44,16.73,4.33,5.1,9.09,9.75,14.01,14.16,4.94,4.4,10.08,8.53,15.35,12.48-4.87-4.43-9.59-9.01-14.04-13.81-4.44-4.81-8.66-9.81-12.37-15.12-3.71-5.3-7.01-10.88-9.28-16.73-.3-.72-.53-1.47-.8-2.2-.25-.74-.46-1.48-.69-2.21-.39-1.48-.77-2.97-.97-4.44-.22-1.48-.34-2.95-.31-4.36,0-.71,.07-1.39,.16-2.05,.02-.15,.04-.3,.07-.44,8.65-5.88,22.21-11.64,28.54-14.18,4.63,10.51,22.94,41.75,91.07,95.39,68.1,55.07,104.17,66.35,115.67,68.65h0Z"/>
          <path class="cls-4" d="M904.44,150.51l-1.75,2.27c-3.14-3.36-5.17-5.73-6.49-7.4,2.32,1.08,5.37,2.95,8.25,5.13Z"/>
          <path class="cls-1" d="M585.07,915.53c50.69-61.94,117.49-143.67,181.82-222.61,1.69-2.08,3.37-4.14,5.05-6.19h0"/>
          <path class="cls-5" d="M585.07,915.53c50.69-61.94,117.49-143.67,181.82-222.61,1.69-2.08,3.37-4.14,5.05-6.19m264.13-430.18c-2.11-.78-5.38-2.29-10.1-4.86l2.53-3.07c3.24,2.73,6.14,5.79,7.57,7.93h0Zm-6.47-69.87c-1.74,.23-5.32-.17-12.2-3.67,1.35-1.93,3.05-4.33,5.01-7.11,3.29,4.3,6.06,8.45,7.19,10.78h0Zm-257.2,496.35c-1.05-1.9-.84-4.25,.53-5.94,194.77-239.1,226.9-280.87,228.72-284.49l.02-.04c4.99-11.86,8-31.67,8.55-35.52,.12-.86,.46-1.68,.97-2.39l51.09-69.84c.25-.38,3.64-5.65,2.58-14.25-1.42-11.59-9.87-23.46-25.11-35.3-1.14-.88-1.87-2.19-2.03-3.62-.16-1.43,.27-2.86,1.19-3.97l19.56-23.7c.1-.12,.2-.24,.31-.35,.17-.17,1.01-1.14,1.02-3.36,.01-4.71-3.73-15.79-28.93-37.22-.63-.53-1.1-1.18-1.41-1.89-.4-.26-.62-.4-.62-.4l.32-.46c-.37-1.46-.12-3.05,.81-4.36,35.09-49.92,40.38-57.78,41.02-58.84,.22-.36,.73-1.35,.79-2.77,.04-1,.37-1.96,.93-2.78,11.76-17.11,32.58-47.66,36.03-53.67,3.99-6.94,2.51-10.65,.98-12.86l-.04-.05c-.17-.17-.57-.56-1.16-1.02h0c-.3,.41-.72,1-1.24,1.72,.32,.26,.57,.5,.75,.68,1.25,1.86,2.14,4.74-1.15,10.47-3.46,6.03-23.92,35.99-32.66,48.74-2.06-3.07-5.46-6.47-10.87-10.06-2.31-1.68-4.51-3.06-6.58-4.14-3.94,.03-7.17,1.34-7.17,1.34l12.3,6.2s-.75,1.16-2.12,3.22c.35,.27,.71,.54,1.07,.82l.06-.07c6.8,4.92,10.09,10.06,8.25,13.13-2.18,3.61-37.46,53.8-58.27,83.33-.41-.25-.83-.51-1.25-.77-9.66-6.08-18.33-13.3-18.42-13.37l-.23-.18c-6.25-4.45-11.32-8.87-15.35-12.94,.5-.55,1-1.1,1.51-1.66-2-1.58-3.1-2.92-3.1-2.92,0,0-1.3,3.4,.2,7.09,1.5,3.69,18.68,16.4,19.23,19.95,.07,.48,.02,1.07-.18,1.75,3.37,2.54,7.71,5.63,12.32,8.54,12.96,8.16,21.88,10.96,27.65,8.62,1.01-.41,1.93-.99,2.75-1.71,3.83-3.39,.06-9.53-4.14-15.52-1.78-2.54-3.64-4.97-4.98-6.68,1-1.42,2.04-2.89,3.11-4.41,31.62,27.01,27.67,36.25,27.25,37l-.08,.07-37.77,45.77c-3.17-1.86-6.78-4.06-10.88-6.66-26.12-16.55-51.16-35.97-74.42-57.73-1.46-1.36-2.86-2.68-4.22-3.96-13.89-10.95-25.54-22.66-25.61-22.73l47.15,48.05s-.41,1.05-1.23,2.85c17.4,14.6,35.6,27.94,54.36,39.82,9.26,5.87,17.23,10.48,23.04,13.33,6.04,2.97,10.6,4.59,13.57,3.38,.81-.33,1.5-.87,2.07-1.65,2.69-3.72,1.12-8.71-4.68-14.83-1.86-1.96-3.82-3.71-5.28-4.94l5.01-6.07c18.12,14.04,23.31,25.87,24.41,33.45,1.18,8.15-1.95,13.04-2.15,13.34l-50.3,68.77c-3.46-.6-11.75-2.58-25.38-8.91-17.06-7.93-46.21-24.5-88.16-58.43l-.04-.03c-42.29-33.28-64.48-57.42-75.66-71.8-5.15-6.64-8.5-11.86-10.65-15.68-4.84-5.49-7.6-9.09-7.6-9.09,0,0-2.05,1.94-2.87,7.44,.37-.15,.73-.3,1.07-.43,4.63,10.51,22.94,41.75,91.07,95.39,68.1,55.07,104.17,66.35,115.67,68.65-.38,2.35-.94,5.66-1.67,9.38h-.06s-1.5-.03-1.5-.03l-.75-.02c-.25,0-.51-.03-.76-.05l-1.53-.12-.76-.06c-.25-.02-.51-.07-.77-.1l-3.09-.41-3.08-.58-1.55-.29-1.53-.38-3.08-.76c-.51-.12-1.03-.26-1.53-.42l-1.53-.46-3.05-.92c-.51-.15-1.02-.32-1.52-.5l-1.51-.54-3.02-1.08-1.51-.54-1.48-.61-5.95-2.46c-1.96-.89-3.9-1.81-5.85-2.72l-2.93-1.38-2.87-1.49-5.75-3c-1.89-1.03-3.75-2.14-5.63-3.22-1.87-1.09-3.77-2.13-5.61-3.27l-5.51-3.46-2.75-1.73c-.92-.59-1.85-1.14-2.74-1.77l-10.76-7.35,10.22,8.1c.84,.69,1.73,1.32,2.6,1.96l2.63,1.93,5.27,3.87c1.77,1.27,3.6,2.45,5.4,3.69,1.81,1.21,3.61,2.46,5.44,3.64l5.59,3.44,2.79,1.72,2.87,1.61c1.92,1.06,3.82,2.15,5.75,3.19l5.9,2.95,1.48,.74,1.51,.67,3.03,1.34,1.52,.67c.5,.23,1.01,.45,1.53,.63l3.11,1.19,1.56,.6c.52,.2,1.04,.39,1.57,.56l3.19,1.03,1.6,.52,1.63,.43,3.27,.87,3.33,.69c.28,.05,.56,.12,.84,.16l.85,.13,1.71,.25c.29,.04,.57,.09,.85,.12l.88,.09,.49,.04c-1.29,5.52-2.88,11.21-4.76,15.69-8.81,16.5-435.01,537.27-502.15,618.91-1.64,2-3.62,3.57-5.88,4.67l-.72,.35c-2.13,1.04-4.75,2.32-7.89,3.6-19.67,8.01-59.6,15.9-126.89-35.7l-.18-.13c-.22-.15-20.12-13.74-40.24-34.81-1.27-.06-2.32-.15-3.15-.24,19.99,21.37,39.74,35.12,42.13,36.75,.08,.05,.16,.11,.23,.17,33.81,25.91,64.96,39.91,92.6,41.6,13.02,.8,25.02-1.12,36.67-5.86,3.14-1.28,5.75-2.55,7.65-3.48l.72-.35c2.54-1.24,4.77-3,6.6-5.23,8.72-10.61,35.64-43.45,76.13-92.91,.57-.7,1.3-1.23,2.11-1.56s1.7-.46,2.6-.36"/>
          <path class="cls-5" d="M772.81,681.49s224.53-277.63,229.17-284.11c4.64-6.49,8.64-39.25,8.64-39.25,0,0,35.25-46.82,42.25-57.15,7-10.32,16.56-19.54,12.53-35.56-4.02-16.03-25.71-33.5-25.71-33.5,0,0,16.18-20.96,18.82-25.77,2.64-4.81,3.54-10.35-5.73-23.24-8.14-11.32-20.46-19.84-23.34-21.74h0c.31,.71,.79,1.36,1.41,1.89,25.2,21.42,28.94,32.51,28.93,37.22,0,2.21-.85,3.18-1.02,3.36-.11,.11-.21,.23-.31,.35l-19.56,23.7c-.92,1.11-1.34,2.54-1.19,3.97,.16,1.43,.89,2.74,2.03,3.62,15.24,11.83,23.69,23.71,25.11,35.3,1.06,8.6-2.33,13.87-2.58,14.25l-51.09,69.84c-.51,.7-.85,1.52-.97,2.39-.55,3.85-3.56,23.66-8.55,35.52l-.02,.04c-1.82,3.62-33.94,45.4-228.72,284.49-1.37,1.69-1.58,4.04-.53,5.94m-192.34,234.07c-.9-.1-1.79,.03-2.6,.36s-1.54,.86-2.11,1.56c-40.48,49.46-67.4,82.3-76.13,92.91-1.83,2.23-4.05,3.99-6.6,5.23l-.72,.35c-1.9,.93-4.51,2.2-7.65,3.48-11.65,4.74-23.65,6.66-36.67,5.86-27.64-1.7-58.8-15.69-92.6-41.6-.08-.06-.15-.12-.23-.17-2.39-1.64-22.14-15.38-42.13-36.75-1.46-.15-2.23-.29-2.23-.29,14.46,16.83,60.28,60.41,105.44,73.44,39.93,11.53,64.59,3.2,76.12-1.49,1.51-.61,2.79-1.17,3.85-1.6,9.19-3.78,81.94-100.38,81.94-100.38M1109.03,23.22s-.18,.26-.52,.73c.59,.46,.99,.85,1.16,1.02l.04,.05c1.53,2.2,3,5.92-.98,12.86-3.45,6.01-24.27,36.56-36.03,53.67-.56,.82-.89,1.78-.93,2.78-.06,1.42-.58,2.41-.79,2.77-.64,1.06-5.93,8.92-41.02,58.84-.92,1.31-1.17,2.91-.81,4.36l40.54-58.7s36.92-56.13,40.57-64.8c3.65-8.67-1.22-13.58-1.22-13.58h0Z"/>
          <path class="cls-8" d="M1107.27,25.67c-6.93,9.58-32.35,44.1-41,47.62-.86,.35-1.56,.39-2.05,.07-2.37-1.54-5.05-2.01-7.46-1.99,2.08,1.08,4.27,2.45,6.58,4.14,5.41,3.58,8.81,6.98,10.87,10.06,8.74-12.75,29.2-42.71,32.66-48.74,3.29-5.72,2.4-8.61,1.15-10.47-.18-.18-.43-.42-.75-.68h0Z"/>
          <path class="cls-8" d="M1059.76,82.13c-6.25,9.4-25.4,37.57-44.64,59.79-5.49,6.34-10.66,10.02-15.37,11.93-10.38,4.23-18.46-.14-22.62-3.43-.51,.56-1.01,1.11-1.51,1.66,4.02,4.07,9.1,8.49,15.35,12.94l.23,.18c.09,.07,8.76,7.29,18.42,13.37,.42,.26,.84,.52,1.25,.77,20.81-29.52,56.08-79.71,58.27-83.33,1.85-3.06-1.45-8.21-8.25-13.13l-.06,.07c-.36-.28-.72-.56-1.07-.82h0Z"/>
          <path class="cls-8" d="M929.86,179.61c1.35,1.28,2.76,2.6,4.22,3.96,23.27,21.75,48.31,41.17,74.42,57.73,4.1,2.6,7.71,4.8,10.88,6.66l37.77-45.77,.08-.07c.42-.74,4.37-9.99-27.25-37-1.07,1.52-2.1,2.99-3.11,4.41,1.34,1.7,3.19,4.13,4.98,6.68,4.19,5.99,7.97,12.13,4.14,15.52-.82,.72-1.74,1.3-2.75,1.71-5.77,2.35-14.69-.46-27.65-8.62-4.61-2.91-8.94-6-12.32-8.54-1.26,4.33-8.19,12.44-22.65,20.81-.34,.19-.69,.37-1.05,.51-8.92,3.63-25.5-6.79-39.71-18h0Z"/>
          <path class="cls-8" d="M810.33,197.53c2.15,3.82,5.49,9.05,10.65,15.68,11.18,14.38,33.37,38.51,75.66,71.8l.04,.03c41.95,33.93,71.1,50.5,88.16,58.43,13.63,6.33,21.92,8.31,25.38,8.91l50.3-68.77c.2-.3,3.33-5.18,2.15-13.34-1.1-7.59-6.29-19.42-24.41-33.45l-5.01,6.07c1.46,1.23,3.42,2.98,5.28,4.94,5.8,6.12,7.37,11.11,4.68,14.83-.57,.78-1.26,1.32-2.07,1.65-2.96,1.21-7.53-.42-13.57-3.38-5.81-2.85-13.78-7.46-23.04-13.33-18.76-11.88-36.96-25.22-54.36-39.82-3.88,8.47-16.84,33.45-38.3,42.19-7.58,3.09-16.23,4.15-25.91,1.73-31.66-7.91-61.95-38.64-75.63-54.16h0Z"/>
          <path class="cls-8" d="M1022.4,175.9c-1.96,2.78-3.65,5.19-5.01,7.11,6.88,3.5,10.46,3.9,12.2,3.67-1.13-2.33-3.91-6.47-7.19-10.78h0Z"/>
          <path class="cls-8" d="M1028.5,248.62l-2.53,3.07c4.72,2.57,7.99,4.07,10.1,4.86-1.42-2.14-4.32-5.19-7.57-7.93h0Z"/>
          <path class="cls-8" d="M799.86,195.89c-1.16,7.82,.18,22.85,13.5,49.73,22.68,45.78,85.22,77.98,71.74,104.16-13.48,26.18-352.75,429.16-429.42,520.14-32.41,38.46-63.38,58.36-88.34,68.52-24.3,9.89-42.91,10.56-51.59,10.12,20.12,21.07,40.02,34.66,40.24,34.81l.18,.13c67.29,51.6,107.22,43.71,126.89,35.7,3.13-1.28,5.75-2.55,7.89-3.6l.72-.35c2.26-1.1,4.24-2.67,5.88-4.67,67.14-81.64,493.34-602.41,502.15-618.91,1.88-4.48,3.48-10.17,4.76-15.69l-.49-.04-.88-.09c-.29-.03-.57-.08-.85-.12l-1.71-.25-.85-.13c-.28-.05-.56-.11-.84-.16l-3.33-.69-3.27-.87-1.63-.43-1.6-.52-3.19-1.03c-.53-.16-1.05-.35-1.57-.56l-1.56-.6-3.11-1.19c-.52-.19-1.03-.41-1.53-.63l-1.52-.67-3.03-1.34-1.51-.67-1.48-.74-5.9-2.95c-1.93-1.05-3.84-2.13-5.75-3.19l-2.87-1.61-2.79-1.72-5.59-3.44c-1.84-1.18-3.63-2.43-5.44-3.64-1.8-1.23-3.63-2.42-5.4-3.69l-5.27-3.87-2.63-1.93c-.87-.64-1.76-1.27-2.6-1.96l-10.22-8.1,10.76,7.35c.89,.62,1.82,1.18,2.74,1.77l2.75,1.73,5.51,3.46c1.84,1.14,3.74,2.18,5.61,3.27,1.88,1.07,3.74,2.18,5.63,3.22l5.75,3,2.87,1.49,2.93,1.38c1.95,.91,3.9,1.83,5.85,2.72l5.95,2.46,1.48,.61,1.51,.54,3.02,1.08,1.51,.54c.49,.18,1,.36,1.52,.5l3.05,.92,1.53,.46c.5,.16,1.02,.3,1.53,.42l3.08,.76,1.53,.38,1.55,.29,3.08,.58,3.09,.41c.26,.03,.51,.08,.77,.1l.76,.06,1.53,.12c.25,.02,.51,.04,.76,.05l.75,.02,1.5,.03h.06c.73-3.73,1.29-7.03,1.67-9.38-11.5-2.3-47.57-13.57-115.67-68.65-68.13-53.64-86.44-84.88-91.07-95.39-.34,.13-.69,.28-1.07,.43h0Z"/>
          <path class="cls-7" d="M771.93,686.73h0c-1.68,2.05-3.35,4.11-5.05,6.19-64.33,78.94-131.13,160.67-181.82,222.61"/>
          <polygon class="cls-5" points="904.25 156.88 904.25 156.88 904.25 156.88 904.25 156.88"/>
          <path class="cls-5" d="M271,881.77s-1.58-24.72,1.3-36.16c2.87-11.44,19.09-30,19.09-30,0,0-2.7,2.6-9.25,6.08-3.71,4.79-6.62,8.54-8.62,11.12-1.94,2.51-3.4,5.51-4.55,9.43-3.54,11.94-4.09,24.43-1.68,37.32"/>
          <path class="cls-7" d="M267.28,879.57c-2.41-12.89-1.86-25.39,1.68-37.32,1.16-3.92,2.61-6.92,4.55-9.43,2-2.59,4.91-6.34,8.62-11.12-2.42,1.29-5.37,2.69-8.91,4.13"/>
          <line class="cls-2" x1="445.36" y1="617.86" x2="450.66" y2="611.11"/>
          <path class="cls-2" d="M286.7,916.8s-9.86-47.29,43.25-120.94c53.11-73.65,415.28-534.7,424.39-547.8,9.12-13.1,54.87,21.81,54.87,21.81,0,0-22.56-30.24-24.44-49.04-1.88-18.81,14.67-29.31,14.67-29.31l5.17-2.1s36.84-30.31,44.5-34.93c7.65-4.62,41.68,14.18,41.68,14.18,0,0-21.26-26.26-18.65-37.11,2.61-10.85,25.14-9.74,35.55-2.68,0,0-27.09-16-41.63-6.73-14.54,9.27-60.65,63.68-60.65,63.68l-38.44,22.68L272.48,838.83s-14.03,31.84,14.22,77.97Z"/>
          <path class="cls-2" d="M908.26,157.81s21.2-27.65,34.84-32.92c13.64-5.27,40.27,14.31,40.27,14.31l71.79-63.68-7.25-4.79-57.94,58.6s-15.96-12.45-31.21-18.86c-15.25-6.41-11.26-8.62-21.35,3.24-10.1,11.86-33.16,43.17-33.16,43.17l4.01,.92Z"/>
          <path class="cls-5" d="M777.09,680.43c225.95-277.36,228.62-283.72,229.51-285.83,5.19-12.34,8.25-32.22,8.92-36.82l51.08-69.83,.04-.05c.2-.28,4.89-7.07,3.54-18-1.61-13.06-10.73-26.12-27.13-38.85l19.56-23.7c.84-.86,2.54-3.08,2.55-7.09,.03-10-10.34-23.88-30.81-41.28,17.23-24.5,39.37-56.08,41.22-59.14,.58-.96,1.44-2.8,1.56-5.29,4.78-6.96,32.02-46.65,36.26-54.03,4.13-7.19,4.34-13.49,.62-18.71l-.28-.35c-.49-.53-4.94-5.22-11.83-5.49-4.68-.19-9.18,1.7-13.36,5.62-4.39,4.1-21.97,22.93-33.95,35.83-11.7-11.77-51.59-42.97-136.27-29.75-58.91,9.2-90.72,40.34-107.03,64.86-19.31,29.02-28.16,65.73-24.34,100.82-6.71,3.07-14.35,6.97-19.93,10.97-1.89,1.35-7.63,5.47-237.63,299.92-26.37,33.76-53.13,68.06-78.94,101.18m-181.34,281.86c.97,3.54,2.16,7.1,3.56,10.68,6,15.31,15.98,31.07,29.64,46.85,22.65,26.15,47.47,43.31,49.46,44.67,34.66,26.56,66.8,40.93,95.52,42.69,17.29,1.06,30.3-2.7,39.01-6.24,3.26-1.33,5.92-2.63,7.98-3.63l.71-.35c3.23-1.57,6.05-3.8,8.38-6.64,9.37-11.4,37.67-45.91,76.13-92.91M921.6,48.69c46.11-7.2,76.3,.28,93.5,7.82,12.55,5.5,20.18,11.83,23.79,15.32-3.6,3.63-28.91,31.4-48.5,52.94-21.4-15.98-37.17-22.95-46.88-20.71-3.91,.9-5.7,3.05-6.34,4.06l-18.77,24.33c-16.06-13.16-30.81-19.16-43.9-17.83-5.4,.55-9.48,2.3-12.27,3.97h0c-.08,.04-.2,.11-.24,.14l-.13,.09h0c-2.63,1.63-4,3.12-4.11,3.25l-50.35,57.95c-1.48-56.47,32.36-118.56,114.23-131.34ZM450.4,605.41c-83.34,106.93-160.98,206.9-176.84,227.38-1.95,2.51-3.39,5.51-4.55,9.43-3.53,11.94-4.09,24.43-1.68,37.33m317.79,35.96c50.68-61.94,117.49-143.67,181.82-222.61,1.69-2.08,3.37-4.14,5.05-6.19m234.07-317.85h-.06s-1.5-.03-1.5-.03h-.75c-.25-.02-.51-.05-.76-.07l-1.53-.12-.77-.06c-.26-.03-.51-.07-.77-.1l-3.08-.41-3.09-.59-1.55-.29-1.54-.38-3.08-.76c-.52-.12-1.03-.26-1.53-.42l-1.53-.46-3.05-.92c-.51-.14-1.02-.32-1.52-.5l-1.51-.54-3.02-1.08-1.51-.54-1.49-.61-5.95-2.46c-1.96-.89-3.9-1.82-5.85-2.72l-2.93-1.37-2.87-1.5-5.75-3c-1.9-1.03-3.75-2.15-5.64-3.22-1.87-1.09-3.77-2.13-5.61-3.27l-5.5-3.46-2.75-1.73c-.91-.58-1.85-1.14-2.73-1.77l-10.76-7.35,10.22,8.11c.84,.69,1.73,1.31,2.61,1.96l2.63,1.93,5.27,3.87c1.77,1.27,3.6,2.45,5.4,3.69,1.81,1.21,3.61,2.46,5.44,3.64l5.58,3.44,2.8,1.72,2.87,1.61c1.92,1.06,3.83,2.15,5.76,3.19l5.9,2.95,1.48,.74,1.51,.67,3.03,1.34,1.52,.67c.5,.23,1.01,.45,1.53,.63l3.11,1.19,1.56,.59c.52,.2,1.04,.4,1.57,.56l3.19,1.03,1.6,.52,1.63,.43,3.27,.86,3.34,.69c.28,.06,.56,.12,.84,.17l.85,.13,1.71,.25c.29,.04,.57,.09,.86,.12l.88,.08,.5,.04c-1.29,5.52-2.89,11.21-4.76,15.69-8.81,16.5-435.01,537.27-502.15,618.91-1.64,2-3.62,3.57-5.88,4.67l-.72,.35c-15.53,7.58-56.77,27.72-134.78-32.1l-.18-.13c-.25-.17-25.73-17.58-48.2-43.56-20.38-23.56-42.41-59.25-31.69-95.45,.89-3,1.94-5.22,3.3-6.98,61.25-79.13,434.74-559.38,486.41-620.79,.09,.4,.18,.8,.28,1.2,.42,1.75,1.01,3.42,1.62,5.07,.34,.81,.65,1.62,1.01,2.41,.37,.78,.71,1.58,1.12,2.34,3.1,6.17,7.11,11.64,11.44,16.74,4.34,5.09,9.09,9.75,14.02,14.16,4.94,4.4,10.08,8.54,15.35,12.48-4.87-4.43-9.59-9.01-14.04-13.81-4.44-4.81-8.66-9.81-12.38-15.12-3.71-5.3-7-10.88-9.28-16.73-.3-.72-.53-1.47-.8-2.2-.25-.73-.46-1.48-.69-2.21-.39-1.48-.76-2.97-.97-4.44-.22-1.48-.34-2.94-.31-4.35,0-.71,.07-1.39,.15-2.04,.02-.15,.05-.3,.07-.45,8.65-5.88,22.21-11.63,28.54-14.18,4.63,10.51,22.94,41.76,91.07,95.39,68.11,55.08,104.18,66.35,115.67,68.65-.37,2.35-.94,5.66-1.67,9.38Zm56.66-98.6c1.18,8.15-1.95,13.04-2.15,13.34l-50.3,68.76c-3.46-.6-11.75-2.58-25.37-8.91-17.06-7.93-46.21-24.5-88.16-58.43l-.04-.03c-42.29-33.29-64.48-57.42-75.65-71.8-8.67-11.15-12.22-18.33-13.55-21.53,0,0,.63-.74,.6-1.07l50.51-58.13c.73,2.61,1.86,4.91,3.09,7.07,1.58,2.75,3.38,5.26,5.29,7.64,.93,1.22,1.95,2.34,2.93,3.5,1.02,1.12,2.02,2.25,3.06,3.34,4.16,4.37,8.55,8.43,13.06,12.35,4.52,3.9,9.16,7.62,13.86,11.27-4.29-4.12-8.51-8.3-12.57-12.62-4.04-4.33-7.94-8.78-11.52-13.43-.89-1.16-1.75-2.35-2.61-3.52-.81-1.21-1.68-2.38-2.43-3.61-1.57-2.42-2.97-4.93-4.1-7.47-.57-1.27-1.03-2.55-1.43-3.82-.33-1.26-.63-2.53-.68-3.7-.06-1.17,.06-2.25,.37-3.06,.16-.4,.36-.73,.57-.99,.09-.11,.19-.2,.28-.28l.05-.03h0s.12-.07,.12-.07h.02s0-.02,0-.02c2.07-1.25,5.33-2.66,9.84-3.02,7.64-.61,20.33,1.82,38.04,16.37l-4.8,6.23c-1.52-1.15-3.67-2.67-5.99-4.05-7.25-4.3-12.46-4.72-15.5-1.27-2.88,3.28,.48,7.64,2.49,10.24,2.15,2.78,5.48,6.53,9.9,11.14,7.01,7.3,16.79,16.84,29.09,28.34,23.6,22.07,49.01,41.78,75.53,58.57,9.26,5.87,17.23,10.48,23.04,13.33,6.04,2.97,10.61,4.59,13.57,3.39,.81-.33,1.5-.87,2.07-1.65,2.7-3.73,1.12-8.71-4.68-14.83-1.86-1.96-3.82-3.71-5.28-4.94l5-6.06c18.12,14.04,23.31,25.87,24.41,33.45Zm-166.45-124.9c2.32,1.08,5.37,2.95,8.25,5.12l-1.75,2.28c-3.14-3.36-5.18-5.74-6.49-7.4Zm132.3,103.24c3.24,2.73,6.14,5.78,7.57,7.92-2.11-.78-5.38-2.29-10.1-4.85l2.53-3.07Zm28.74-46.5l-.08,.07-37.77,45.77c-3.17-1.86-6.78-4.06-10.88-6.66-26.12-16.55-51.16-35.97-74.43-57.72-11.89-11.12-20.27-19.31-26.18-25.35l35.23-45.69,.22-.29,.05-.09c.63-.56,8.74-6.44,41.89,18.18-1.28,1.41-2.52,2.78-3.72,4.09-2.01-.91-4.8-2.12-7.71-3.27-9.64-3.79-13.92-4.29-16.37-1.88-.91,.9-1.96,2.55-1.74,5.3,.59,7.45,11.58,22.74,30.77,36.42,1.11,.92,9.48,7.79,19.06,13.83,12.96,8.16,21.89,10.96,27.65,8.61,1.01-.41,1.93-.98,2.75-1.71,3.83-3.39,.05-9.53-4.14-15.52-1.78-2.54-3.64-4.97-4.98-6.68,1-1.42,2.04-2.89,3.11-4.42,31.62,27.01,27.67,36.26,27.26,37Zm-93.73-66.61c2.87,.68,7.85,2.56,12.79,4.71-2.26,2.49-4.21,4.63-5.73,6.31-3.99-4.79-6.26-8.71-7.06-11.03Zm58.88,40.39c3.29,4.3,6.06,8.45,7.19,10.78-1.75,.23-5.32-.17-12.2-3.67,1.36-1.92,3.05-4.33,5.01-7.11Zm46.73-79.9c-2.18,3.61-37.46,53.8-58.26,83.33-.41-.25-.82-.51-1.25-.78-9.66-6.08-18.33-13.3-18.42-13.37l-.23-.18c-6.25-4.45-11.32-8.87-15.35-12.94,24.07-26.52,65.56-72.13,68.61-75.08,2.55-2.46,8.6-.29,16.6,5.95l.06-.07c6.8,4.92,10.09,10.07,8.24,13.13Zm37.74-59.18c-3.46,6.03-23.92,35.99-32.66,48.74-2.06-3.08-5.46-6.48-10.87-10.06-3.67-2.67-7.04-4.57-10.1-5.71,10.48-11.31,35.25-37.98,40.34-42.75,7.36-6.89,13.07-2.08,14.45-.69,1.25,1.86,2.14,4.75-1.15,10.47Z"/>
          <path class="cls-2" d="M424.11,651.29l-100.62,129.33c-.08,.1-.16,.21-.23,.32l-46.02,71.06c-.32,.49-.54,1.05-.65,1.63l-2.86,15.01c-.1,.54-.11,1.09-.02,1.63l.71,4.14c.66,3.85,5.53,5.15,8.02,2.14l11.39-13.78c.37-.45,.66-.97,.83-1.53l7.16-22.64c.12-.4,.3-.77,.53-1.12l43.86-67.22c.05-.08,.11-.17,.17-.25l84.98-113.18c1.37-1.82,1.18-4.38-.44-5.98h0c-1.94-1.93-5.14-1.72-6.82,.44Z"/>
          <polygon class="cls-5" points="275.06 886.72 275.37 879.99 272.33 861.87 264.55 878.02 273.65 891.77 275.06 886.72"/>
          <polygon class="cls-5" points="396.01 686.85 432.75 640.19 427.58 636.85 389.23 683.95 396.01 686.85"/>
          <polygon class="cls-5" points="431.59 642 458.37 607.32 449.46 602.97 426.27 638.45 431.59 642"/>
        </g>
        <path d="M905.11,371.74c7.1,12.8,3.15,28.8-2.34,41.41,1.5-.42,2.62-.45,3.57-1.79,6.84-7.99,12.21-16.97,14.13-27.43,1.67-8.31,1.72-16.88-2.46-24.49-2.12-3.88-5.09-6.63-8.11-9.74-6.36-3.58-12.77-5.37-20.07-4.53-14.29,1.51-26.5,9.13-35.89,19.72,9.47-3.65,20.89-7.28,31.1-5.88,8.15,2.15,15.86,4.86,20.07,12.73Z"/>
        <path d="M737.89,535.77c.76,3.74,3.61,7.35,7.57,7.89,6.52,1.18,13.28-1.42,19.04-4.29,11.55-6.09,21.99-14.81,31.56-23.64,22.38-21.45,42.75-46.79,56.04-74.91,2.26-6.66,5-14.02,4.7-21.15-.19-4.44-1.99-8.65-6.09-10.79-5.13-2.96-12.48-.49-17.52,1.64-13.3,5.8-25.15,16.05-35.68,25.87-8.53,9.16-17.76,17.25-25.06,27.52-13.09,16.09-25.43,34.04-32.4,53.7-1.83,5.59-3.47,12.29-2.15,18.16Zm75.95-75.28c4.35-5.41,9.9-11.39,16.6-13.75,2.79-1.17,4.71,.51,7.27,1.47,1.03,5.56-2.03,10.78-5.07,15.18-4.31,5.36-9.56,11.17-16.12,13.7-2.68,1.33-7.44-.2-7.44-3.67-1.28-5.26,1.88-8.93,4.76-12.92Z"/>
        <path d="M658.31,491.22c11.86,0,21.11,6.72,30.34,13.22,.93-5.04-2.42-9.3-5.37-12.97-6.81-8.29-16.92-13.52-27.72-13.56-5.54,.2-11.47,1.77-15.29,6.03-4.28,4.77-5.4,11.09-3.61,17.16,3.05,10.21,11.93,16.99,21.61,20.55,6.61,2.52,13.07,3.08,19.98,1.75-9.55-4.56-19.37-8.25-25.99-16.97-2.47-2.89-3.27-6.86-2.83-10.56,.91-3.88,5.55-4.53,8.88-4.66Z"/>
        <path d="M628.04,551.21c-13.17-14.52-22.56-32.06-25.77-51.5-1.7-10.91-1.37-21.85-.17-32.78,3.69,1.79,7.43,3.47,11.31,4.81,2.14-7.62-2.93-16.06-11.42-15.49-9.08,.48-12.91,7.53-15.45,15.28,1.61-1.56,3.17-3.55,5.15-4.65,1.98-.81,4.25-.99,6.35-1.32-5.89,18.83-5.16,38.76,.09,57.61,5.56,19.32,16.77,36.33,31.33,50.08,17.75,15.82,39.32,26.14,62.32,31.79,21.42,4.53,44.19,4.79,65.55-.24,13.2-3.37,26.65-7.42,38.7-13.88,4.17-2.01,8.07-4.52,12.18-6.61-1.15,4.51-3,8.49-2.8,13.24,8.2-3.32,14.36-10.6,14.06-19.78-.45-4.9-5.73-8.84-10.1-10.13-5.59-1.26-10.21,1.3-14.92,3.94,4.06,1.35,8.11,2.62,12.04,4.33-3.28,3.48-7.7,4.35-12.11,6.44-23.49,10.01-48.92,12.83-74.23,10.96-13.63-.92-26.41-4.16-39.49-7.9-20.03-7.02-38.01-18.86-52.62-34.22Z"/>
        <path d="M716.25,343.8c-10.87,6.7-20.26,16.23-28.84,25.59-6.05,7.73-12.65,14.91-18.29,22.96-2.49,4.71-5.97,8.71-8.7,13.26-7.98,12.93-14.54,26.54-19.31,40.98-1.51,6.07-3.1,13.44-1.24,19.58,1.07,3.62,3.75,6.48,7.65,6.85,6.49,.58,12.91-2.63,18.21-6.08,11.56-7.8,21.8-17.85,30.62-28.61,3.31-3.62,6.33-7.42,9.26-11.35,14.17-18.89,26.56-39.03,33.8-61.64,1.52-6.51,3.38-14.8,.11-21.04-1.6-3.62-5.96-4.34-9.29-5.6-1.35,.16-2.7,.29-4.05,.43l.99,.42,.85,.35c-4.41-.66-8.1,1.85-11.76,3.91Zm2.73,32.73c3.97-1.87,6.42,.33,7.65,4.03-3.06,10.41-10.27,22.43-21.04,26.23-1.29-.6-2.57-1.18-3.85-1.77-.45-1.69-.91-3.36-1.4-5.03,2.84-9.19,9.63-19.41,18.64-23.47Z"/>
        <path d="M737.06,290c1.65-.69,3.29-1.4,4.93-2.11,8.09-3.67,17.69-6.31,26.62-5.27,6.67,1.06,12.92,4.22,17.09,9.63,4.56,6.06,6.37,13.76,6.16,21.25,.05,8.54-2.5,15.83-4.11,24.14,2.66-4.53,6.16-8.25,8.1-13.22,3.23-7.79,6.96-15.1,7.11-23.6,.78-9.88-2.42-19.86-9.75-26.71-5.39-4.33-10.95-6.86-17.98-6.62-9.49,.1-18.22,3.71-25.89,9.11-5,3.47-9.03,7.86-13.06,12.36-.43,1.25-.85,2.49-1.26,3.73,.68-.91,1.36-1.8,2.04-2.7Z"/>
        <g>
          <path class="cls-2" d="M707.42,1072.26c6.05,2.55,11.34,5.72,17.56,7.64,9.78,3.05,20.13,4.65,30.28,5.87,10.73,1.47,21.86,.35,32.43-1.75,12.15-2.62,22.13-10.06,29.23-20.12,7.97-12.65,12.49-26.85,11.61-41.93,4.18,4.24,8.21,8.17,13.78,10.54,10.7,4.79,25.14,2.61,32.48-7.04,7.22-9.6,10.53-22.42,10.78-34.3,.23-7.71-2.5-14.54-2.92-22.15-8.39-13.87-21.73-26-37.23-31.21-19.38-5.68-40.52,1.43-53.76,16.36-4.23,4.49-6.98,9.56-10.7,14.46,6.81,4.7,13.02,10.2,18.39,16.48,3.7,4.34,6.54,9.18,10.07,13.69-6.95-4.1-14.51-6.73-21.63-10.5-9.16-4.8-18.65-9-28.44-12.33-11.92-4.64-25.28-6.27-37.96-7.22-19.29-.7-39.75-.35-58.55,4.41-6.39,1.55-13.34,3.37-18.91,7-9.01,6.3-17.46,12.53-22.54,22.59-4.44,9.3-8.71,18.83-11.79,28.66-2.87,11.98-4.27,24.42-3.74,36.73,.09,4.57,2.23,8.09,4.48,11.91,1.42-11.64,.57-25.19,6.58-35.65,2.79-4.82,7.72-6.12,12.59-7.94,.51-1.05,1.02-2.1,1.56-3.14-2.18,12.69-1.82,25.97-.56,38.74,1.66,15.49,5.14,32.78,14.06,45.85,5.11,6.78,12.23,14.31,20.65,16.62l3.84-.73c-6.57-9.63-12.44-19.41-15.58-30.75-3.82-11.1-3.44-22.98-.05-34.13,2.06-6.56,6.83-12.45,13.35-14.95,5.84-1.58,11.44-.23,16.99,1.71l-.05,.68c-.09,24.24,3.87,49.78,16.18,71.02,1.02-5.35-.63-10.01-.93-15.32-.64-14.15,3.29-26.89,8.46-39.84Z"/>
          <path class="cls-6" d="M885.57,991.19c-.25,11.87-3.56,24.69-10.78,34.3-7.33,9.65-21.77,11.83-32.48,7.04-5.58-2.37-9.61-6.3-13.78-10.54,.88,15.08-3.64,29.28-11.61,41.93-7.1,10.05-17.09,17.49-29.23,20.12-10.57,2.1-21.7,3.22-32.43,1.75-10.15-1.23-20.5-2.82-30.28-5.87-6.22-1.93-11.51-5.09-17.56-7.64-5.17,12.95-9.11,25.69-8.46,39.84,.29,5.3,1.95,9.97,.93,15.32,3.05,5.42,7.07,10.75,12.15,14.41,13.43,8.53,30.45,13.55,46.19,9.39,3.21-.96,6.7-2.27,9.07-4.72,8.55-9.37,12.54-20.03,17.65-31.39-2.59-2.06-4.74-4.27-8.16-4.72-8.66-1.57-17.17,3.73-21.22,11.21-1.55-6.47-5.2-12.6-11.15-15.85-6.39-2.83-13.3-3.84-20.24-3.03,3.78-2.52,6.98-5.14,11.51-6.26,10.68-2.69,20.39-.71,31.08,.13,9.98,.86,21.11,2.57,31,.87,21.05-3.99,39.77-19.61,45.81-40.44,0,8.44-1.39,16.38-3.56,24.49,13.93-.3,27.55-5.92,37.32-15.93,8.67-8.55,14.44-20.14,17.3-31.89,5.13-21.92,.62-46.01-11.98-64.65,.42,7.62,3.15,14.44,2.92,22.15Z"/>
          <path class="cls-6" d="M616.9,1044.42c-6.01,10.46-5.16,24.02-6.58,35.65,1.57,1.7,3.68,5.42,6.38,4.39,2-.22,3.11-1.86,3.33-3.75,.64-15.01,3.46-30.39,9.47-44.23-4.88,1.81-9.8,3.12-12.59,7.94Z"/>
          <path class="cls-6" d="M666.76,1054.02c-6.52,2.5-11.29,8.39-13.35,14.95-3.39,11.15-3.78,23.03,.05,34.13,3.14,11.34,9,21.12,15.58,30.75l-3.84,.73c5.77,1.95,10.24-.33,15.38-2.68-1.26-19.08-3.75-37.01-2.12-56.22,.62-6.73,3.46-12.52,5.25-19.26l.05-.68c-5.54-1.93-11.15-3.29-16.99-1.71Z"/>
          <path d="M922.18,1011.53c-.22-1.95-.43-3.9-.6-5.73-.13-1.82-.44-3.58-.74-5.28-.32-1.84-.86-4.91-.53-5.8l.35-.89c1.06-3.18,2.97-5.9,5.18-9.05,1.16-1.64,2.35-3.34,3.48-5.17,14.5-22.81,25.05-49.29,31.38-78.82,3.98-20.07,4.54-36.95,1.7-51.59-1.04-6.73-4.86-10.97-7.94-14.39l-.84-.94c-26.4-29.84-62.98-54.27-108.68-72.61-14.54-5.89-29.4-11.21-44.19-15.8-18.83-6.34-38.11-11.03-57.56-14.02-8.64-4.27-19.34-6.52-30.82-5.89-14.21,.77-26.79,5.78-35.43,13.17-7.93,6.79-12.53,15.59-12.03,24.96,.96,17.83,20.09,31.6,44.08,32.81,9.09,2.71,20.04,5.91,28.81,9.96,30.97,14.29,63.65,20.58,88.84,33.06,14.24,7.53,25.34,14.63,34.74,22.23-2.64,13.79-8.26,28.33-16.71,43.26l-.21,.34c-.74-.1-1.51-.22-2.29-.33-1.95-.29-3.96-.6-6.16-.76-24.71-1.6-49.54,8.32-66.46,26.56-2.68,2.63-4.92,5.62-7.09,8.53-1.88,2.51-3.68,4.92-5.51,6.75-23.81-7.91-50.31-11.01-76.93-8.99-16.67,.81-32.21,4.32-46.21,10.46-8.66,3.83-16.15,9-23.39,13.99l-1.83,1.26c-2.13,1.54-4.56,3.52-6.44,6.57l-.26,.45c-2.19,4.1-4.34,8.2-6.38,12.34,0-.67-.02-1.35-.05-2.03-2.3,4.82-4.52,9.68-6.58,14.6-3.02,7.71-5.6,15.59-7.45,23.64,.02,1,0,1.99-.04,2.99,.24-.32,.48-.64,.71-.96-.08,.46-.16,.93-.24,1.39-2.26,10.66-3.69,22.05-4.4,34.81l-.02,.42,.05,1.04c.64,13.6,1.24,26.44,8.62,39.68l.35,.58c4.59,6.84,10.28,12.55,16.47,16.5,3.54,2.37,7.15,3.21,10.3,3.72,4.01,10.78,10.87,23.9,22.3,33.19,8.89,7.17,20.95,9.71,34.86,7.35l.28-.05c1.21-.25,2.41-.49,3.61-.72,5.08-1,10.28-2.03,15.5-3.76,3.43,3.65,7.54,7.5,12.25,10.53,7.94,4.9,18.69,10.77,31.51,12.68l1.56,.2c5.9,.75,12.16,1.56,18.56,1.48,7.13-.09,14.42-1.27,21.54-4.84,10.84-5.02,17.43-14.37,23.24-22.62l1.04-1.48,.33-.51c3.57-5.91,7.03-12.71,10.53-20.68,.75-.29,1.51-.58,2.29-.87,3.63-1.37,7.39-2.8,11.34-5.37,5.15-3.41,9.59-7.53,13.83-11.63,19.32,.18,37.78-6.33,52.25-18.44,16.84-13.64,28.24-33.84,32.11-56.89,1.74-8.5,.84-16.65-.04-24.54Zm-27.55,22.16c-2.86,11.75-8.63,23.34-17.3,31.89-9.77,10-23.39,15.62-37.32,15.93,2.17-8.12,3.57-16.05,3.56-24.49-6.03,20.83-24.75,36.45-45.81,40.44-9.89,1.71-21.02,0-31-.87-10.7-.84-20.4-2.82-31.08-.13-4.53,1.12-7.73,3.74-11.51,6.26,6.93-.81,13.85,.21,20.24,3.03,5.96,3.26,9.6,9.38,11.15,15.85,4.04-7.48,12.56-12.78,21.22-11.21,3.42,.45,5.57,2.67,8.16,4.72-5.11,11.36-9.1,22.02-17.65,31.39-2.37,2.44-5.87,3.76-9.07,4.72-15.74,4.16-32.76-.86-46.19-9.39-5.09-3.66-9.1-8.99-12.15-14.41-12.31-21.24-16.27-46.79-16.18-71.02-1.79,6.74-4.63,12.54-5.25,19.26-1.64,19.22,.86,37.14,2.12,56.22-5.14,2.35-9.61,4.62-15.38,2.68-8.41-2.31-15.54-9.84-20.65-16.62-8.92-13.07-12.39-30.36-14.06-45.85-1.26-12.77-1.63-26.05,.56-38.74-.54,1.04-1.05,2.09-1.56,3.14-6.01,13.84-8.82,29.22-9.47,44.23-.22,1.89-1.33,3.53-3.33,3.75-2.7,1.02-4.8-2.69-6.38-4.39-2.25-3.83-4.4-7.34-4.48-11.91-.52-12.32,.87-24.76,3.74-36.73,3.08-9.84,7.35-19.36,11.79-28.66,5.08-10.06,13.53-16.29,22.54-22.59,5.57-3.63,12.52-5.45,18.91-7,18.8-4.75,39.26-5.11,58.55-4.41,12.69,.94,26.05,2.58,37.96,7.22,9.8,3.34,19.28,7.54,28.44,12.33,7.12,3.76,14.68,6.39,21.63,10.5-3.53-4.51-6.37-9.35-10.07-13.69-5.37-6.28-11.58-11.78-18.39-16.48,3.72-4.9,6.47-9.98,10.7-14.46,13.24-14.93,34.38-22.04,53.76-16.36,15.51,5.21,28.84,17.34,37.23,31.21,12.6,18.64,17.11,42.74,11.98,64.65Z"/>
        </g>
      </g>
    </g>
  </g>
</svg>