<?xml version="1.0" encoding="UTF-8"?>
<svg id="Layer_2" data-name="Layer 2" xmlns="http://www.w3.org/2000/svg" viewBox="0 0 906.52 1061.31">
  <defs>
    <style>
      .cls-1 {
        fill: #f96262;
      }

      .cls-2 {
        fill: #fff;
      }

      .cls-3 {
        fill: #fff9e9;
      }

      .cls-4 {
        fill: #febf3f;
      }

      .cls-5 {
        fill: #c31f44;
      }

      .cls-6, .cls-7 {
        fill: #d34e40;
      }

      .cls-8 {
        fill: #cfd4da;
      }

      .cls-9 {
        fill: #de4053;
      }

      .cls-10 {
        fill: #e06f42;
      }

      .cls-11 {
        fill: #222530;
      }

      .cls-7 {
        stroke: #222530;
        stroke-miterlimit: 10;
        stroke-width: 6.78px;
      }
    </style>
  </defs>
  <g id="Camada_3" data-name="Camada 3">
    <g>
      <g>
        <circle class="cls-7" cx="476.81" cy="532.02" r="308.71"/>
        <circle class="cls-4" cx="476.81" cy="532.02" r="277.17"/>
      </g>
      <g>
        <path class="cls-7" d="M269.5,142.73c30.76,50.68,39.2,91.75-19.62,127.45-48.35,29.35-87.15,16.19-122.12-41.42-32.57-53.66-25.42-100.12,19.62-127.45,26.02-15.8,52.47-16.22,78.62-1.26,19.91,11.39,35.88,30.11,43.51,42.68Zm-95.77,7.15c-.95-1.04-2.56-1.11-3.61-.15-1.04,.95-1.11,2.57-.16,3.61,.3,.33,30.24,33.32,40.89,71.01,.38,1.36,1.79,2.14,3.15,1.76,.23-.07,.44-.16,.63-.28,.96-.58,1.45-1.75,1.13-2.88-10.98-38.88-40.77-71.69-42.03-73.07Z"/>
        <path class="cls-7" d="M422.71,106.18c-7.18,23.21-31.52,37.89-70.36,42.45-1.4,.17-2.41,1.43-2.24,2.83,.16,1.4,1.43,2.4,2.84,2.24,2.74-.32,5.34-.7,7.89-1.11,4.15,11.87,7.28,25.09,8.86,37.51,.18,1.4,1.46,2.39,2.86,2.21,.1-.01,.21-.03,.3-.06,1.24-.31,2.08-1.5,1.91-2.8-.35-2.77-.8-5.59-1.29-8.42,4.48,3.29,12.4,9.76,15.73,16.66,1.42,2.93,.74,6.02-2.06,9.42-11.89,14.44-56.39,27.05-76.8,21.76-5.13-1.33-8.03-3.64-8.61-6.87-1.71-9.44,1.95-18.37,4.51-23.17,.44,2.84,.86,5.67,1.24,8.48,.19,1.4,1.48,2.37,2.88,2.18,.09-.01,.19-.03,.28-.05,1.25-.31,2.09-1.52,1.91-2.82-8.68-63.25-32.19-133.61-32.42-134.32-.45-1.34-1.92-2.05-3.24-1.61-1.34,.45-2.06,1.9-1.61,3.23,.06,.17,1.42,4.26,3.58,11.22-5.97-4.35-15.37-12.33-18.5-21.4-.59-1.72-.43-3.45,.49-5.26,3.71-7.26,18.74-15.22,42.34-22.43l.21-.07c.64-.25,64.28-25.26,100.02,5.75,12.47,10.83,27.23,38.79,19.29,64.43Zm-77.71-44.89c-.58-1.29-2.09-1.85-3.38-1.28-1.29,.58-1.86,2.09-1.28,3.37,.12,.27,12.05,27.04,13.46,51.42,.08,1.41,1.29,2.48,2.7,2.4,.16,0,.32-.03,.48-.07,1.17-.29,2-1.38,1.93-2.62-1.46-25.33-13.39-52.09-13.9-53.22Z"/>
        <path class="cls-7" d="M584.93,152.48c5.67,6.63,7.76,16.3,6.35,29.55-.95,8.97-3.69,15-8.37,18.44-8.62,6.33-23.62,3.35-38.12,.46-9.87-1.97-20.08-3.99-28.88-3.3-7.23,.57-13.89,1.16-20,1.71-27.83,2.47-44.63,3.96-51.53-2.06-2.71-2.36-4.1-6.09-4.36-11.73-.7-14.88,9.33-22.44,13.79-25.06-.25,1.34-.5,2.69-.77,4.03-.28,1.38,.62,2.73,2,3,.13,.02,.25,.04,.38,.05,1.25,.06,2.38-.79,2.63-2.05,12.11-60.35,4.79-116.86,3.21-127.57-.21-1.39-1.51-2.36-2.9-2.15-1.4,.21-2.36,1.5-2.15,2.9,.26,1.75,.68,4.76,1.13,8.79-4.11-3.33-11.32-11.66-9.05-28.03,.77-5.53,2.84-9.44,6.33-11.95,10.41-7.48,33.7-3.8,70.84,3.14,9.03,1.69,19.7,.58,30.02-.48,14.96-1.55,29.11-3.02,36.91,3.69,4.04,3.48,6.19,9.03,6.55,16.98,.52,11.3-2.63,20.97-9.09,27.97-6.36,6.89-15.74,11.04-25.75,11.39,0,0,0,0-.01,0l-40.64-2.09c-.14-5.3-1.53-8.98-1.63-9.24-.51-1.31-1.98-1.96-3.3-1.45-1.31,.51-1.97,1.98-1.47,3.3,.03,.09,3.45,9.26-1,18.91-.59,1.28-.03,2.8,1.25,3.39,.3,.14,.62,.22,.94,.23,1.01,.05,2-.51,2.45-1.48,1.36-2.96,2.12-5.86,2.48-8.55l40.76,2.08c5.8,.9,10.67,3.93,14.09,8.75,4.95,6.99,6.5,16.96,4.35,28.08-2.8,14.49-11.7,21.16-29.73,22.31-1.07,.06-2.16,.12-3.28,.13-.12,0-.24,.02-.36,.04-.04,0-.07,0-.11,0l-28.8-1.18c-.17-5.18-1.53-8.77-1.63-9.02-.51-1.31-1.98-1.96-3.3-1.45-1.31,.5-1.97,1.98-1.47,3.3,.03,.09,3.45,9.26-1,18.91-.59,1.28-.03,2.8,1.25,3.39,.31,.14,.62,.22,.94,.23,1.01,.05,2-.5,2.45-1.48,1.4-3.04,2.15-6.01,2.51-8.76l28.81,1.18c17.85,.91,29.72,5.09,36.3,12.76Z"/>
        <path class="cls-7" d="M743.06,234.46c.4-.57,2.05-2.9,4.53-6.59,1.4,4.73,2.77,12.27-.07,18.53-2.11,4.65-6.05,8.2-11.08,10-8.57,3.06-20.1,1.22-33.37-5.31-22.6-11.13-35.63-22.66-35.75-31.64-.07-5.06,4.05-9.8,12.23-14.08l1.46-.77-3.15-50.63c-.09-1.41-1.3-2.48-2.71-2.39-1.41,.09-2.48,1.3-2.39,2.7l2.95,47.36c-6.47,3.63-10.62,7.75-12.44,12.27-.33,.26-.61,.6-.78,1.01-6.3,15.21-31.22,8.13-45.51,2.55-13.34-5.21-34.88-16.07-29.33-30.29,3.98-10.19,11.83-14.86,16.22-16.75-.4,1.63-.63,2.56-.65,2.64-.3,1.25,.39,2.52,1.56,2.97,.11,.04,.22,.08,.34,.11,1.37,.33,2.75-.52,3.08-1.89,.19-.78,18.98-78.79,38.68-118.8,8.25-16.75,25.36-25.37,41.61-20.98,18.16,4.92,36.37,27.03,33.05,74.4v.08s0,.07,0,.11l-.09,36.67c0,.1,.02,.2,.03,.3-2.13,.45-4.66,.63-7.71,.38-1.41-.12-2.64,.93-2.75,2.33-.09,1.15,.59,2.19,1.62,2.59,.23,.09,.47,.15,.72,.17,19.79,1.63,23.43-12.33,23.46-12.48,.33-1.36-.5-2.73-1.86-3.07-1.36-.35-2.74,.48-3.1,1.83-.06,.24-1.1,3.82-5.29,6.32l.08-34.76c.71-2.85,7.81-29.72,25.79-39.3,8.06-4.3,17.31-4.51,27.5-.63,.09,.04,.19,.07,.28,.11,8.34,3.25,13.62,8.9,16.16,17.24,13.45,44.18-56.76,143.72-57.47,144.72-.82,1.15-.54,2.74,.61,3.56,.17,.13,.36,.22,.55,.3,1.07,.42,2.32,.07,3.01-.9h0Z"/>
      </g>
      <g>
        <g>
          <path class="cls-6" d="M152.58,878.65c-41.59,32.83-79.97,25.77-117.36-21.59C11.39,826.89,.24,799.41,2.98,777.59c1.7-13.53,8.66-25.05,20.71-34.23,8.24-6.28,16.37-10.37,24.17-12.14,1.6-.36,2.6-1.95,2.23-3.55-.36-1.6-1.96-2.6-3.55-2.24-3.49,.79-7.03,2.01-10.59,3.61,3.54-6.98,10.21-16.63,20.43-18.01,6.68-.9,17.52,15.11,23.09,26.77,.05,.11,.12,.2,.18,.3,2.82,11.12,7.96,21.56,13.41,30.41,.03,.13,.06,.25,.11,.38,.04,.09,3.49,8.89,.64,15.2-1.23,2.72-3.45,4.6-6.78,5.74-7.36,2.53-13.82-1.2-18.09-4.33,2.9-3.9,5.89-6.19,5.95-6.24,1.31-.97,1.59-2.83,.61-4.15-.95-1.34-2.83-1.6-4.15-.62-.65,.48-15.9,11.99-13.58,29.66,.07,.55,.29,1.05,.61,1.45,.63,.79,1.64,1.25,2.72,1.11,1.62-.21,2.77-1.7,2.55-3.33-.64-4.85,.48-9.17,2.2-12.79,5.13,3.69,13.32,8.21,23.11,4.85,4.89-1.68,8.34-4.68,10.25-8.91,.97-2.14,1.44-4.41,1.59-6.61,1.01,1.35,2,2.64,2.94,3.84,5.64,7.15,10,11.47,10.17,11.64,1.17,1.15,3.05,1.13,4.19-.04,1.14-1.17,1.13-3.04-.05-4.2-.62-.6-61.77-61.45-20.23-105.5,13.45-14.27,29.66-20.32,48.18-17.98,30.44,3.84,65.8,31.89,85.99,68.21,22.76,40.96,10.67,59.58-7.57,75.36-.02,.01-.04,.02-.05,.03-.03,.03-.06,.06-.09,.09-3.29,2.84-6.78,5.59-10.3,8.36l-1.25,.98c-1.29,1.02-1.51,2.88-.49,4.17h0c1.01,1.29,2.88,1.51,4.16,.5l1.25-.98c2.56-2.02,5.16-4.07,7.72-6.19,.29,.93,.37,1.9,.25,2.9-.63,5.35-6.52,10.05-6.58,10.1-6.97,5.49-13.84,7.27-21.03,5.43-22.18-5.68-38.71-43.87-38.92-44.36-.08-.17-7.87-17-1.79-26.44,2.69-4.19,8.01-6.39,15.75-6.61,1.58,5.34,1.28,9.58,1.25,9.92-.07,.78,.18,1.53,.63,2.1,.49,.62,1.22,1.04,2.06,1.12,1.63,.15,3.07-1.05,3.22-2.68,.07-.81,1.6-19.94-15.79-31.46-1.37-.91-3.21-.53-4.11,.83-.9,1.37-.53,3.2,.84,4.11,4.54,3.01,7.53,6.64,9.49,10.23-8.65,.67-14.81,3.75-18.33,9.23-7.85,12.21,1.05,31.37,1.38,32.07,.37,.86,5.03,11.63,12.84,22.82,3.9,6.18,19.2,34.95-13.96,61.13Z"/>
          <path class="cls-11" d="M102.78,901.46c-3.67,0-7.31-.33-10.92-.99-10.05-1.85-20.11-6.34-29.88-13.33-9.64-6.9-19.32-16.48-28.78-28.47C8.93,827.93-2.4,799.78,.42,777.27c1.79-14.24,9.09-26.34,21.7-35.96,8.54-6.51,17-10.75,25.16-12.6,.13-.03,.2-.11,.24-.17s.08-.16,.05-.29c-.05-.21-.26-.35-.47-.3-3.25,.74-6.65,1.9-10.11,3.45l-6.65,2.98,3.3-6.5c7.38-14.53,16.25-18.57,22.39-19.4,4.06-.55,8.75,2.6,14.33,9.63,4.01,5.06,8.27,11.97,11.4,18.51,.03,.04,.05,.08,.08,.12l.21,.34,.1,.39c2.41,9.5,6.82,19.49,13.11,29.69l.2,.32,.13,.5c.36,.91,3.8,10.04,.58,17.17-1.52,3.36-4.31,5.75-8.29,7.12-9.58,3.29-17.76-2.72-20.45-4.69l-2.09-1.53,1.55-2.08c3.13-4.21,6.33-6.66,6.46-6.76,.19-.14,.23-.39,.1-.56l-.03-.04s-.07-.1-.21-.12c-.06-.01-.19-.01-.31,.08-.59,.44-14.68,11.11-12.55,27.25,.01,.09,.05,.15,.08,.19,.03,.04,.16,.18,.36,.15,.13-.02,.21-.09,.25-.15,.04-.06,.09-.15,.08-.29-.63-4.75,.19-9.54,2.43-14.23l1.33-2.79,2.5,1.8c7.47,5.37,14.06,6.8,20.76,4.51,4.19-1.44,7.13-3.97,8.74-7.53,.76-1.68,1.22-3.6,1.37-5.73l.49-6.95,4.15,5.59c.97,1.31,1.95,2.58,2.9,3.78,5.64,7.15,9.91,11.36,9.95,11.4,.09,.09,.2,.11,.27,.11,.07,0,.18-.02,.27-.11,.15-.16,.15-.4-.01-.56-.15-.15-16.07-15.97-26.43-37.16-6.07-12.42-9.11-24.27-9.02-35.21,.12-13.83,5.21-26.19,15.16-36.73,14.05-14.9,31-21.21,50.38-18.77,15.4,1.94,32.04,9.71,48.12,22.46,15.74,12.49,29.87,29.2,39.8,47.05,10.8,19.44,14.68,35.43,11.86,48.9-2.78,13.3-11.67,22.45-20,29.65l-.08,.07s-.04,.03-.06,.05c-3.41,2.94-7.12,5.86-10.39,8.44l-1.25,.98c-.17,.13-.2,.38-.06,.55h.01c.14,.17,.37,.2,.54,.07l1.25-.98c2.61-2.05,5.16-4.07,7.67-6.15l2.98-2.47,1.13,3.7c.39,1.27,.51,2.6,.35,3.96-.76,6.46-7.28,11.61-7.56,11.83-7.63,6.02-15.24,7.95-23.25,5.9-23.05-5.9-39.75-43.77-40.63-45.8-.23-.51-2.16-4.77-3.37-10.24-1.74-7.86-1.15-14.13,1.76-18.65,3.17-4.92,9.17-7.54,17.84-7.79l1.98-.06,.56,1.9c1.72,5.8,1.39,10.37,1.34,10.87-.01,.13,.04,.23,.09,.28,.05,.06,.13,.13,.27,.15,.13,0,.23-.04,.28-.09,.06-.05,.13-.13,.14-.26,.07-.75,1.47-18.4-14.65-29.08-.18-.12-.42-.07-.54,.11-.12,.18-.07,.42,.12,.54,4.4,2.92,7.88,6.67,10.33,11.14l1.91,3.5-3.98,.31c-7.81,.6-13.32,3.31-16.36,8.05-7.1,11.05,1.46,29.39,1.54,29.57l.04,.09c.49,1.15,5.01,11.51,12.59,22.35l.07,.1c2.14,3.4,7.14,12.57,7.31,24.4,.1,6.74-1.39,13.31-4.42,19.51-3.62,7.41-9.49,14.34-17.44,20.62h0c-10.6,8.37-21.18,14.28-31.43,17.57-6.68,2.14-13.36,3.21-19.96,3.21Zm-55.58-178.67c2.53,0,4.82,1.75,5.41,4.32,.33,1.44,.08,2.93-.71,4.18-.79,1.25-2.02,2.13-3.46,2.45-7.44,1.69-15.24,5.62-23.18,11.67-11.47,8.75-18.11,19.68-19.71,32.5-2.65,21.11,8.32,47.93,31.71,77.55,9.16,11.61,18.5,20.85,27.74,27.47,9.15,6.55,18.51,10.74,27.81,12.46,9.26,1.7,18.8,1.01,28.38-2.06,9.67-3.1,19.7-8.72,29.81-16.71h0c13.4-10.58,20.1-22.7,19.9-36-.16-10.46-4.56-18.61-6.49-21.68-7.76-11.13-12.45-21.8-13.05-23.18-.64-1.38-9.71-21.28-1.2-34.52,3.36-5.22,8.76-8.53,16.11-9.87-1.78-2.33-3.96-4.35-6.52-6.05-2.54-1.69-3.25-5.13-1.57-7.68,1.69-2.55,5.13-3.25,7.68-1.57,18.65,12.36,17.01,32.97,16.93,33.84-.13,1.48-.83,2.81-1.97,3.76-1.14,.95-2.58,1.39-4.05,1.26-1.51-.14-2.91-.9-3.85-2.09-.88-1.11-1.3-2.51-1.17-3.92,0-.04,.24-2.99-.65-7.01-5.74,.47-9.64,2.26-11.61,5.32-4.38,6.8-.07,19.6,1.96,23.95l.03,.07c.17,.39,4.25,9.77,11,19.82,6.05,9.01,15.51,20.33,26.2,23.07,6.35,1.63,12.5,0,18.79-4.96,.9-.72,2.75-2.48,4.09-4.57-.76,.6-1.53,1.21-2.3,1.81l-1.25,.98c-2.4,1.89-5.89,1.48-7.78-.92l-.18-.25c-1.68-2.39-1.22-5.71,1.1-7.54l1.25-.99c3.36-2.65,6.84-5.38,10.13-8.22,.07-.07,.15-.15,.25-.23l.03-.03s.04-.03,.06-.04c13.58-11.78,16.83-20.11,18.21-26.71,2.55-12.21-1.15-27.04-11.32-45.34-19.81-35.65-54.38-63.16-84.06-66.9-17.66-2.23-33.13,3.56-45.98,17.19-9.01,9.55-13.63,20.72-13.75,33.18-.1,10.13,2.75,21.18,8.44,32.86,10.07,20.64,25.31,35.69,25.46,35.84,2.18,2.14,2.22,5.66,.1,7.84-1.04,1.06-2.42,1.65-3.91,1.67-1.48,.01-2.88-.55-3.94-1.58-.05-.05-4.3-4.24-9.9-11.27-.19,.56-.41,1.1-.65,1.62-2.22,4.9-6.17,8.36-11.76,10.28-7.45,2.56-14.92,1.45-22.74-3.38-.93,2.86-1.22,5.72-.85,8.55,.19,1.47-.2,2.92-1.1,4.1-.9,1.18-2.21,1.93-3.68,2.12-1.93,.25-3.87-.54-5.07-2.07-.62-.79-1.01-1.72-1.15-2.71-1.04-7.91,1.08-15.89,6.12-23.09,3.8-5.42,8.01-8.63,8.48-8.98,1.2-.89,2.73-1.26,4.19-1.03,1.46,.23,2.73,1.01,3.58,2.2,1.8,2.45,1.28,5.9-1.14,7.72-.11,.09-1.78,1.4-3.74,3.63,6.52,4.06,10.77,3.38,13.49,2.45,2.66-.91,4.34-2.3,5.27-4.37,1.97-4.36,.17-10.99-.69-13.18-.04-.1-.08-.2-.1-.29-6.37-10.4-10.89-20.63-13.42-30.43-.04-.07-.08-.14-.12-.23-2.97-6.21-7.01-12.8-10.82-17.59-4.76-6.01-8.08-7.93-9.6-7.72-3.98,.54-9.46,2.88-14.78,10.42,1.36-.42,2.7-.79,4.02-1.09,.41-.09,.82-.14,1.23-.14Zm48.37,45.14s0,0,0,0c0,0,0,0,0,0Zm-13.77-31.24s0,.01,0,.02c0,0,0-.01,0-.02Z"/>
        </g>
        <g>
          <path class="cls-6" d="M326.16,1031.53c-8.58,11.33-18.67,12.72-36,4.94-16.26-7.3-23.43-18.62-23.5-18.72l-.69-1.12-1.29-.25c-.56-.11-56.23-11.2-76.31-49.71-10.51-20.17-9.52-44.5,2.97-72.32,10.32-23,25.46-37.64,45-43.53,37.59-11.33,82.25,11.56,105.54,26.2,14.8,9.32,20.67,29.31,13.94,47.54-8.75,23.69-22.18,57.42-36.49,83.62-.79,1.44-.25,3.24,1.18,4.02,1.44,.78,3.24,.26,4.03-1.18,2.63-4.82,5.23-9.88,7.78-15.09,10.52,12.36-6.01,35.38-6.16,35.59Zm-39.07-129.85c.44-1.58-.49-3.22-2.07-3.65-1.58-.44-3.22,.48-3.66,2.06-.07,.24-7,24.79-24.49,54.51-.83,1.41-.36,3.23,1.06,4.06,.1,.06,.19,.11,.29,.15,1.36,.61,3,.11,3.77-1.2,17.88-30.39,24.8-54.9,25.09-55.93Z"/>
          <path class="cls-11" d="M308.55,1043.93c-5.52,0-11.89-1.72-19.44-5.11-16.88-7.58-24.32-19.22-24.63-19.71l-.1-.17-.17-.03c-.14-.03-14.49-2.84-31.43-10.64-9.75-4.49-18.4-9.74-25.69-15.59-9.18-7.36-16.24-15.71-20.99-24.82-10.9-20.91-9.92-45.99,2.91-74.56,10.64-23.71,26.32-38.83,46.61-44.94,38.56-11.62,84,11.61,107.65,26.49,15.83,9.96,22.13,31.25,14.98,50.61-8.77,23.76-22.25,57.62-36.64,83.96-.06,.12-.05,.22-.03,.29,.02,.07,.07,.17,.19,.24,.19,.1,.43,.03,.53-.16,2.5-4.57,5.09-9.61,7.72-14.98l1.73-3.53,2.55,2.99c4.96,5.82,5.43,14.45,1.36,24.95-2.96,7.65-7.36,13.76-7.4,13.82l-.03,.04c-5.52,7.28-11.72,10.85-19.67,10.85Zm-39.71-27.56c.23,.35,7.2,10.93,22.37,17.74,8.41,3.77,14.72,5.2,19.88,4.49,4.92-.68,9.05-3.41,13-8.61,.26-.37,4.15-5.89,6.78-12.7,1.82-4.72,3.32-10.86,1.63-15.9-1.93,3.83-3.83,7.47-5.68,10.86-1.47,2.67-4.84,3.66-7.52,2.21-1.31-.71-2.25-1.89-2.67-3.31-.42-1.42-.26-2.92,.45-4.22,14.24-26.07,27.62-59.68,36.33-83.28,6.31-17.09,.89-35.79-12.89-44.46-22.91-14.41-66.81-36.95-103.42-25.92-18.79,5.66-33.39,19.83-43.39,42.12-12.15,27.06-13.17,50.63-3.04,70.07,19.44,37.29,73.96,48.27,74.51,48.37l2.4,.46,1.27,2.07Zm-9.39-54.73c-.76,0-1.53-.16-2.27-.49-.17-.08-.35-.17-.53-.27-1.29-.76-2.2-1.96-2.57-3.39-.37-1.43-.17-2.93,.59-4.2,17.21-29.26,24.16-53.66,24.23-53.9,.4-1.42,1.33-2.61,2.62-3.34,1.29-.73,2.79-.91,4.21-.51,1.42,.39,2.61,1.32,3.34,2.61,.73,1.29,.92,2.79,.52,4.22h0c-.29,1.05-7.32,25.9-25.35,56.54-1.03,1.74-2.87,2.73-4.78,2.73Zm24.77-61.15c-.08,0-.14,.02-.19,.05-.06,.04-.15,.1-.18,.23-.07,.25-7.17,25.26-24.75,55.13-.07,.11-.06,.22-.04,.29,.02,.07,.07,.17,.18,.24,.02,0,.03,.02,.03,.02,.16,.07,.39,.03,.5-.15,17.68-30.05,24.53-54.26,24.83-55.31,.04-.13,0-.23-.04-.3-.04-.06-.11-.15-.23-.18-.04-.01-.08-.02-.12-.02Z"/>
        </g>
        <g>
          <path class="cls-6" d="M545.88,973.09c2.65,25.46,3.86,49.64-10.31,65.63-11.4,12.87-32.07,19.4-63.19,19.97-69.07,1.27-83.54-30.81-84.49-82.86,0-.42,.8-42.37,5.39-64.25,.34-1.6-.69-3.17-2.3-3.51-1.6-.33-3.18,.69-3.51,2.3-.9,4.27-1.65,9.23-2.28,14.46-4.22-6.59-8.57-15.97-5.68-22.29,2.31-5.05,13.79-13.41,65.08-12.68,0,0,0,0,.01,0,.57-.01,17.85-.24,25.6,7.18,2.34,2.24,3.51,4.91,3.56,8.17,.1,5.26-2.54,11.95-5.37,15.78-2.06-7.17-3.71-11.71-3.94-12.34-.56-1.54-2.27-2.32-3.81-1.76-1.54,.57-2.33,2.27-1.76,3.81,.2,.54,19.76,54.52,10.68,98.19-.33,1.6,.7,3.17,2.3,3.51,.22,.05,.44,.07,.66,.06,1.36-.03,2.56-.98,2.85-2.36,6.1-29.33,.08-62.22-5.15-82.41,5.18-4.35,9.63-14.54,9.48-22.58-.08-4.35-1.56-8.14-4.39-11.29,24.68-8.49,66.61-5.64,72.29,5.65,3.42,6.78-2.22,17.6-6.83,24.33-2.17-5.78-4.75-11.52-7.8-16.85-.82-1.42-2.63-1.91-4.05-1.1-1.42,.81-1.92,2.63-1.1,4.05,14.75,25.71,18.01,62.77,18.04,63.2Z"/>
          <path class="cls-11" d="M468.43,1061.31c-15.5,0-28.31-1.73-39.06-5.26-11.26-3.7-20-9.3-26.73-17.11-6.18-7.18-10.55-16.14-13.36-27.4-2.41-9.65-3.7-21.32-3.97-35.66v-.05s0-.05,0-.05c.03-1.75,.87-42.93,5.44-64.73,.03-.13-.01-.23-.05-.29-.04-.06-.12-.14-.25-.17-.21-.04-.42,.09-.46,.3-.82,3.91-1.57,8.7-2.25,14.24l-.86,7.13-3.87-6.05c-8.28-12.94-7.75-20.6-5.85-24.75,1.94-4.22,7.26-7.56,15.83-9.92,11.46-3.15,28.79-4.59,51.51-4.27h.09s.09,0,.09,0c1.81-.02,19.06,0,27.3,7.89,2.82,2.7,4.29,6.06,4.36,9.98,.11,6.02-2.87,13.29-5.87,17.36l-3.08,4.18,1.18-.99c4.69-3.94,8.69-13.55,8.56-20.56-.07-3.7-1.32-6.93-3.73-9.61l-2.6-2.89,3.68-1.27c12-4.13,28.56-5.9,44.3-4.72,7.51,.56,14.23,1.78,19.43,3.53,6.08,2.05,10.02,4.78,11.7,8.12,4.23,8.38-2.57,20.48-7,26.95l-2.8,4.08-1.74-4.63c-2.3-6.12-4.87-11.66-7.63-16.48-.11-.19-.35-.25-.54-.14-.11,.07-.16,.16-.18,.23-.02,.07-.03,.18,.04,.29,14.82,25.84,18.24,62.72,18.37,64.24,2.71,26.05,3.92,50.82-10.95,67.59-11.91,13.44-33.19,20.25-65.07,20.84-1.35,.02-2.69,.04-4,.04Zm-77.96-85.47c.54,29.02,5.5,47.45,16.08,59.74,6.1,7.08,14.09,12.18,24.43,15.57,11.1,3.65,24.63,5.27,41.35,4.96,30.35-.56,50.4-6.81,61.3-19.1,13.48-15.21,12.27-38.79,9.67-63.66v-.06c-.02-.17-.83-9.45-3.49-21.92-2.38-11.18-6.79-27.23-14.23-40.2-.74-1.28-.93-2.78-.54-4.21,.39-1.43,1.31-2.62,2.6-3.36,2.65-1.51,6.05-.59,7.57,2.05,2.16,3.77,4.2,7.94,6.09,12.47,3.63-6.33,6.09-13.35,4-17.5-2.17-4.31-12.73-7.78-26.91-8.83-13.41-1-27.92,.3-38.86,3.4,1.76,2.93,2.68,6.23,2.75,9.86,.15,8.01-3.88,18.12-9.18,23.48,3.18,12.55,5.37,24.89,6.51,36.68,1.63,16.82,1.05,32.1-1.72,45.41-.53,2.55-2.72,4.37-5.33,4.41-.41,0-.83-.03-1.24-.12-1.44-.3-2.69-1.15-3.5-2.38s-1.1-2.72-.79-4.17c8.91-42.84-10.38-96.24-10.57-96.78-.51-1.39-.45-2.89,.17-4.24,.62-1.34,1.73-2.36,3.12-2.87,2.87-1.05,6.07,.43,7.12,3.29,.13,.35,.99,2.72,2.23,6.66,1.24-2.93,2.13-6.28,2.08-9.17-.05-2.57-.93-4.59-2.77-6.35-6.81-6.51-22.7-6.47-23.72-6.46h-.03s-.07,0-.07,0h-.08s-.04,0-.04,0c-53.02-.74-61.35,8.37-62.63,11.18-1.38,3.01-.7,7.65,1.84,13.19,.4-2.54,.82-4.87,1.26-6.96,.63-2.99,3.57-4.91,6.56-4.29,1.45,.3,2.7,1.15,3.51,2.39,.81,1.24,1.09,2.72,.79,4.17-4.44,21.18-5.29,61.46-5.33,63.72Zm71.21-66.55s-.09,0-.14,.02c-.12,.05-.19,.13-.22,.2-.03,.07-.06,.17-.01,.29,.2,.55,20,55.31,10.78,99.6-.03,.13,.02,.23,.06,.29,.04,.06,.12,.14,.25,.17,.04,0,.06,0,.09,0,.16,0,.34-.11,.38-.31,3.24-15.56,4.97-42.28-5.13-81.23l-.41-1.57,.04-.03-1.44-5.02c-2.08-7.24-3.7-11.68-3.88-12.16-.06-.16-.21-.26-.37-.26Z"/>
        </g>
        <g>
          <path class="cls-6" d="M750.36,910.73c1.17,5.33-.6,11.19-2.55,15.59-1.3-5.09-2.99-9.21-4.31-11.98-.71-1.48-2.48-2.1-3.96-1.39-.01,0-.03,.01-.04,.02-1.45,.72-2.07,2.47-1.37,3.94,2.08,4.34,4.37,10.48,5.4,17.74-.04,.45,.02,.89,.18,1.31,2.34,19.9-5.23,47.74-52.15,70.93-23.77,11.75-45.28,13.8-63.91,6.09-32.07-13.27-45.24-51.37-45.37-51.75l-.08-.22c-1.26-2.98-30.27-73.3,31.75-103.95,47.58-23.52,80.93-18.58,99.1,14.68,.78,1.44,2.6,1.96,4.03,1.18,1.44-.79,1.97-2.59,1.19-4.03-1.37-2.5-2.83-4.84-4.36-7.06,4.25,.33,9.54,1.48,12.94,4.6,2.69,2.46,3.94,5.83,3.84,10.3-.2,8.43-12.96,17.97-27.32,25.61-2.77,1.29-5.5,2.66-8.13,4.06-11.13,5.22-22.01,9.01-27.75,10.02-4.28,.75-7.5-.46-9.55-3.61-4.1-6.28-2.63-17.83,3.41-26.88,.91-1.36,.54-3.2-.82-4.11-1.36-.91-3.21-.54-4.12,.82-7.4,11.08-8.85,25.14-3.45,33.41,3.38,5.17,8.9,7.37,15.55,6.2,.79-.14,1.7-.34,2.71-.59-.83,.66-1.55,1.27-2.12,1.79-5.09,4.68-6.86,10.46-4.98,16.27,2.81,8.68,13.38,15.74,25.7,17.18,1.63,.19,3.1-.97,3.3-2.6,.19-1.63-.97-3.1-2.6-3.29-9.94-1.16-18.66-6.68-20.75-13.12-1.16-3.58-.03-6.97,3.34-10.07,10.82-9.96,55.09-35.22,69.63-26.81,4.22,2.44,6.71,5.62,7.61,9.72Z"/>
          <path class="cls-11" d="M651.08,1020.13c-8.57,0-16.71-1.59-24.41-4.78-13.61-5.63-26-16.59-35.83-31.68-7.3-11.2-10.71-20.83-10.97-21.58l-.05-.13c-.96-2.28-8.38-20.62-8.04-42.59,.2-12.99,3.1-24.7,8.62-34.79,6.86-12.55,17.77-22.58,32.42-29.83,24.16-11.94,45.05-16.71,62.1-14.19,17.36,2.57,30.95,12.65,40.4,29.94,.06,.11,.16,.16,.23,.18,.06,.02,.18,.04,.3-.03,.12-.07,.17-.16,.19-.24,.02-.07,.03-.18-.03-.29-1.27-2.32-2.69-4.62-4.22-6.82l-3.09-4.46,5.41,.42c4.36,.34,10.4,1.53,14.48,5.27,3.22,2.95,4.79,7.08,4.67,12.26-.11,4.67-3.21,9.71-9.23,14.98-4.79,4.2-11.34,8.53-19.46,12.85l-.12,.06c-2.66,1.24-5.36,2.59-8.01,4l-.12,.06c-10.68,5-22.09,9.11-28.39,10.22-1.01,.18-1.95,.26-2.82,.26-4.94,0-7.78-2.6-9.34-5-4.7-7.21-3.26-19.71,3.43-29.72,.07-.11,.07-.22,.06-.29-.01-.07-.05-.17-.16-.25-.18-.12-.42-.07-.55,.11-3.35,5.02-5.52,10.91-6.11,16.59-.57,5.51,.38,10.47,2.67,13.98,2.82,4.32,7.29,6.07,12.94,5.07,.72-.13,1.57-.31,2.54-.55l11.42-2.83-9.19,7.35c-.81,.64-1.47,1.21-1.98,1.67-4.37,4.02-5.84,8.71-4.27,13.58,1.18,3.65,4.12,7.18,8.26,9.96,4.29,2.87,9.72,4.81,15.28,5.46,.21,.02,.41-.13,.44-.35,.02-.21-.13-.4-.34-.43-11.06-1.29-20.48-7.41-22.9-14.89-1.03-3.18-1.16-7.97,4.05-12.76,5.4-4.97,19.18-13.92,34.09-20.74,8.01-3.66,15.16-6.17,21.26-7.45,7.54-1.59,13.36-1.23,17.32,1.05,4.88,2.82,7.77,6.55,8.83,11.4h0c1.08,4.92,.17,10.71-2.72,17.19l-3.01,6.77-1.84-7.18c-1.3-5.07-2.97-9.06-4.14-11.5-.06-.12-.15-.17-.22-.2-.07-.02-.17-.04-.28,0-.01,0-.02,.01-.03,.02-.18,.09-.26,.32-.17,.51,1.95,4.08,4.51,10.59,5.63,18.49l.04,.28-.02,.28c0,.1,0,.15,.02,.17l.12,.31,.04,.33c2.39,20.29-4.97,49.52-53.57,73.54-14.74,7.28-28.66,10.93-41.63,10.93Zm14.6-175.08c-14.35,0-31.32,4.8-50.58,14.32-13.69,6.77-23.85,16.08-30.18,27.68-5.11,9.35-7.8,20.25-7.99,32.4-.34,21.46,7.33,39.78,7.65,40.55l.15,.4c.13,.37,13.08,37.44,43.91,50.2,17.92,7.42,38.71,5.39,61.78-6.01,20.71-10.24,35.34-22.26,43.48-35.72,6.11-10.1,8.56-20.98,7.28-32.33-.17-.56-.25-1.15-.24-1.76-1.04-7.14-3.36-13.04-5.14-16.75-1.3-2.71-.16-6,2.52-7.35l.09-.05c1.34-.64,2.84-.72,4.24-.23,1.4,.49,2.52,1.5,3.16,2.84,.58,1.22,1.28,2.78,2,4.65,.4-2.2,.49-4.47,.03-6.61-.75-3.4-2.78-5.95-6.38-8.04-5.43-3.14-17.77-.73-33.85,6.63-13.91,6.36-27.57,15.08-32.74,19.85-3.47,3.2-3.17,5.74-2.64,7.38,1.76,5.44,9.76,10.32,18.59,11.35,3.04,.36,5.22,3.12,4.86,6.15-.36,3.03-3.12,5.21-6.15,4.86-13.29-1.55-24.74-9.34-27.85-18.95-1.75-5.4-.85-10.74,2.51-15.41-5.58-.28-10.31-2.94-13.38-7.65-2.94-4.5-4.17-10.65-3.49-17.33,.67-6.5,3.14-13.22,6.95-18.92,1.7-2.54,5.15-3.23,7.69-1.54,1.23,.82,2.07,2.07,2.36,3.53,.29,1.45,0,2.93-.83,4.16-5.41,8.1-6.9,18.66-3.39,24.04,.93,1.43,2.66,3.23,6.94,2.48,4.9-.86,15.17-4.23,27.04-9.79,2.69-1.43,5.43-2.8,8.13-4.06,7.63-4.07,14-8.26,18.42-12.14,4.82-4.22,7.4-8.1,7.47-11.23,.09-3.73-.87-6.38-3-8.34-1.6-1.47-3.77-2.4-5.89-2.99,.45,.77,.89,1.54,1.32,2.31,.71,1.3,.87,2.8,.45,4.22-.42,1.42-1.36,2.59-2.67,3.3-1.29,.71-2.79,.87-4.21,.45-1.43-.42-2.61-1.36-3.32-2.66-4.34-7.94-9.63-14.27-15.73-18.8-6.05-4.49-13.08-7.36-20.9-8.52-2.71-.4-5.54-.6-8.48-.6Zm72.68,65.61s0,0,0,0c0,0,0,0,0,0Z"/>
        </g>
        <g>
          <path class="cls-6" d="M893.22,749.93c2.54,4.12,3,9.09,2.82,13.03-1.89-2.34-3.75-4.31-5.41-5.92-1.18-1.14-3.06-1.1-4.2,.08-1.12,1.17-1.11,3.06,.07,4.2,2.93,2.83,6,6.34,8.75,10.55,.12,.24,.25,.46,.43,.66,10.86,17.15,15.89,45.58-16.54,86.62-16.45,20.82-35.01,31.9-55.15,32.92-34.62,1.75-62.8-26.97-63.17-27.36-2.26-2.15-54.97-53.29-15.81-107.64,17.35-24.07,35.5-37.79,53.96-40.78,13.96-2.26,28,1.65,41.84,11.69,.11,.08,11.37,7.59,12.77,16.3,.49,3.04-.32,5.83-2.47,8.55-.26,.34-.44,.71-.54,1.1-13.04,13.87-24.36,31.96-27.42,39.53-2.58,6.39-1.72,12.34,2.43,16.77-.55,3.64-2.81,7.94-6.38,12.06-1.08,1.24-.94,3.11,.29,4.19,1.24,1.08,3.11,.94,4.18-.3,.39-.45,.83-.97,1.28-1.55,2.06-2.61,4.53-6.37,5.82-10.6,6.77,3.4,16.33,3.82,25.4,.74,1.55-.53,2.38-2.21,1.86-3.76-.52-1.55-2.21-2.38-3.76-1.86-9.46,3.21-19.7,1.98-24.34-2.94-2.58-2.73-3.01-6.27-1.29-10.53,5.84-14.44,36.49-56.53,51.96-53.57,5.86,1.12,10.1,3.75,12.61,7.82Zm-89.71,48.47c.98,1.31,2.84,1.58,4.15,.6,.21-.16,.4-.34,.55-.54,.81-1.03,.87-2.52,.05-3.62-15.59-20.86-34.42-27.46-35.21-27.73-1.55-.53-3.23,.3-3.76,1.85-.53,1.55,.29,3.24,1.84,3.77,.18,.06,17.95,6.36,32.39,25.68Z"/>
          <path class="cls-11" d="M821.01,894.72c-13.81,0-28.54-4.58-42.8-13.33-11.41-7-18.56-14.19-19.2-14.84-1.7-1.63-15.34-15.02-23.99-35.06-5.1-11.81-7.44-23.62-6.95-35.08,.61-14.26,5.61-28.01,14.85-40.84,17.76-24.65,36.48-38.72,55.64-41.82,14.65-2.37,29.36,1.71,43.73,12.12,.94,.64,12.31,8.48,13.84,18.01,.6,3.74-.41,7.29-2.99,10.55-.03,.04-.05,.09-.07,.14l-.16,.64-.45,.48c-12.71,13.51-23.98,31.48-26.91,38.73-2.22,5.48-1.55,10.33,1.92,14.04l.85,.91-.19,1.23c-.63,4.15-3.11,8.89-6.98,13.36-.07,.08-.11,.18-.1,.28,0,.07,.03,.18,.14,.27,.1,.09,.21,.1,.28,.09,.07,0,.18-.03,.27-.14,.42-.48,.82-.97,1.21-1.46,1.79-2.26,4.17-5.79,5.38-9.76l.89-2.93,2.73,1.38c6.26,3.15,15.23,3.38,23.42,.6,.21-.07,.32-.3,.25-.5-.04-.12-.13-.19-.19-.22-.06-.03-.17-.06-.29-.02-10.54,3.58-21.66,2.09-27.05-3.62-2.29-2.43-4.46-6.7-1.81-13.26,3.3-8.17,13.11-22.79,22.81-34.03,5.79-6.71,11.24-11.95,16.2-15.57,6.17-4.51,11.49-6.37,15.83-5.54,6.6,1.26,11.41,4.29,14.32,9h0c2.38,3.86,3.46,8.74,3.2,14.5l-.31,6.79-4.27-5.29c-1.62-2.01-3.37-3.92-5.2-5.68-.15-.15-.4-.14-.55,.02-.14,.15-.14,.41,0,.55,3.48,3.36,6.55,7.06,9.11,10.99l.09,.14,.07,.15c.04,.07,.06,.1,.06,.1l.13,.15,.1,.16c6.85,10.82,9.66,22.93,8.35,35.99-1.66,16.65-10.09,34.69-25.04,53.61-16.93,21.43-36.12,32.83-57.04,33.89-1.03,.05-2.07,.08-3.11,.08Zm-14.41-176.47c-2.41,0-4.82,.19-7.22,.58-17.76,2.87-35.35,16.24-52.28,39.74-8.65,12.01-13.32,24.81-13.89,38.05-.45,10.68,1.74,21.72,6.53,32.82,8.45,19.58,22.26,32.85,22.85,33.4l.07,.07c.07,.07,7.08,7.23,18.25,14.08,10.07,6.18,25.69,13.37,42.94,12.5,19.37-.98,37.29-11.73,53.26-31.94,14.33-18.14,22.39-35.27,23.96-50.93,1.18-11.84-1.34-22.8-7.49-32.59-.21-.27-.4-.56-.57-.89-2.34-3.57-5.13-6.92-8.3-9.98-2.19-2.12-2.26-5.63-.14-7.83,2.13-2.2,5.64-2.27,7.84-.15,.13,.12,.26,.25,.39,.38-.38-1.48-.95-2.94-1.77-4.28h0c-2.12-3.43-5.79-5.66-10.9-6.64-5.58-1.07-15.73,6.19-27.16,19.41-10.69,12.38-19.28,26.03-21.93,32.59-1.77,4.37-.4,6.54,.78,7.79,3.92,4.15,13.22,5.13,21.64,2.27,1.4-.48,2.91-.38,4.23,.28,1.33,.66,2.32,1.79,2.8,3.19,.97,2.9-.59,6.05-3.47,7.03-8.51,2.89-17.54,2.96-24.75,.27-1.51,3.59-3.62,6.65-5.28,8.75-.43,.54-.89,1.1-1.36,1.64-.97,1.12-2.32,1.8-3.8,1.9-1.48,.1-2.9-.38-4.02-1.35-1.12-.97-1.79-2.32-1.89-3.79-.1-1.48,.37-2.91,1.35-4.03,2.82-3.26,4.8-6.7,5.55-9.63-4.1-5.08-4.83-11.58-2.04-18.47,3.13-7.74,14.41-25.82,27.55-39.92,.2-.48,.46-.93,.78-1.34,1.7-2.15,2.32-4.23,1.95-6.55-1.2-7.52-11.55-14.5-11.65-14.57l-.08-.06c-10.83-7.86-21.8-11.81-32.7-11.81Zm-.71,83.91c-.27,0-.53-.02-.8-.06-1.47-.21-2.76-.98-3.65-2.17h0c-13.83-18.51-31.01-24.73-31.18-24.79-1.39-.48-2.51-1.48-3.16-2.81-.65-1.33-.74-2.83-.26-4.24,1-2.89,4.16-4.43,7.04-3.44,.82,.28,20.36,7.11,36.44,28.63,1.5,2,1.47,4.78-.09,6.76-.29,.37-.63,.7-1.02,.99-.98,.74-2.14,1.12-3.33,1.12Zm-.32-5.31c.08,.11,.18,.14,.25,.15,.07,.01,.18,0,.29-.07,.02-.02,.05-.05,.07-.07,.09-.12,.13-.31,.01-.47-15.14-20.25-33.22-26.58-33.98-26.84-.21-.07-.43,.04-.5,.25-.04,.12-.01,.23,.02,.29,.03,.07,.1,.15,.22,.2,.19,.07,18.75,6.69,33.61,26.57h0Z"/>
        </g>
      </g>
      <g>
        <g>
          <path d="M435.09,575.13l.3-.23c.22-.17,.44-.33,.67-.48,.54-2.51,.96-5.04,1.21-7.6,.16-5.08-.35-10.18-1.27-15.17-1.48-6.73-3.47-13.35-4.95-20.08-.82,.46-1.7,.9-2.53,1.32-1.27,.64-2.59,1.3-3.78,2.03-7.63,4.61-15.83,7.39-22.9,9.51-10.18,3.19-21.5,5.72-35.63,7.95-11.34,1.53-24.18,3.26-36.63,3.43h-.25c-.36,0-.88-.01-1.26-.04-1.04-1.6-1.87-3.59-2.74-5.69-.54-1.31-1.11-2.67-1.75-4-4.57-10.6-4.23-22.43-3.43-34.65,.26-4.08,1.63-7.97,3.23-11.99,12.46-.63,22.69-3.7,31.22-9.39,8.15-5.62,13.95-14.25,15.53-23.09,1.28-5.93,.79-12.55-1.32-18.79,5.7-2.66,10.62-6.46,14.4-11.14l.18-.23c1.76-2.46,3.09-5.05,4.38-7.56,1.04-2.02,2.03-3.94,3.16-5.65,2.81-2.63,6.61-4.85,10.28-6.99,1.58-.92,3.21-1.87,4.82-2.88,5.01-3.24,9.28-7.47,12.9-11.19,5.81-5.98,9.48-14.62,10.34-24.34v-.22c.35-7.65,.02-16.61-4.92-25.05-2.23-3.95-5.49-7.21-9.4-9.5,7.45-7.35,13.56-14.38,18.58-21.34l.1-.14c.45-.67,.9-1.34,1.36-2.01,3.17-4.65,6.44-9.45,8.1-15.17,.3-1.03,.63-2.03,.96-3.02,1.08-3.27,2.21-6.65,2.31-10.73,.62-7.05-1.08-14.33-4.91-21.07l-.25-.4c-4.22-6.02-10.27-10.41-16.59-12.02l-.19-.05-.2-.03c-6.02-1.04-12.52,.19-17.89,3.39-4.44,2.72-6.87,6.76-9.02,10.31l-.37,.6c-1.85,3.06-3.25,6.21-4.6,9.26-1.31,2.94-2.54,5.73-4.11,8.28l-.19,.35c-4.03,7.92-9.84,14.22-17.26,20.81-7.58-5.27-15.59-8.04-23.87-8.26-4.02-.24-7.67,.53-10.87,1.55-7.21-5.2-16.65-7.82-26.94-7.41-14.7,.63-27.22,5.55-36.27,14.26-8.05,7.92-12.58,18.99-13.1,32v.12c-.08,5.36-1.85,10.12-3.89,15.63l-.39,1.07c-.28,.85-.57,1.7-.86,2.57-2.12,6.34-4.53,13.52-4.88,20.72v.32c.06,4.91,.15,11.01,2.17,16.87l.58,1.58c1.16,3.17,2.34,6.4,3.97,9.56-4.88,3.12-8.72,7.02-11.44,11.64-4.36,7.34-5.64,16.27-3.61,25.1,2.12,9.62,7.88,19.16,16.34,27.18-2.18,4.89-3.89,10.24-5.28,16.52l-.02,.08v.08c-4.23,22.37-1.45,46.1,7.82,66.81,6.65,15.01,17.13,28.71,32.04,41.88l.09,.07c5.17,4.36,11.79,5.07,17.1,5.63l.49,.05c17.35,1.23,36.68-.77,59.09-6.12l.27-.07c3.15-.94,6.38-1.83,9.49-2.7,7.41-2.06,15.07-4.19,22.49-7.03,13.46-4.95,24.09-9.66,33.45-14.81l.33-.18Z"/>
          <path class="cls-2" d="M403.81,323.65c5.46-5.78,10.19-12.46,14.23-19.3,3.77-5.83,7.05-11.44,7.78-18.53,.44-4.08-1.05-7.53-1.65-11.78-1.97-1.49-3.52-2.31-6.03-1.39-4.62,1.05-6.13,5.61-8.21,9.31-3.13,6.72-5.52,13.68-9.32,20.1-3.68,6.8-8.83,12.03-14.05,17.62-2.09,2.16-4.51,3.9-7.15,5.32,1.82,4.85,4.59,8.97,5.2,14.3,6.98-4.41,13.29-9.91,19.2-15.66Z"/>
          <path class="cls-8" d="M418.04,304.35c-4.04,6.84-8.77,13.51-14.23,19.3-5.9,5.75-12.22,11.25-19.2,15.66,.57,3.43,.24,6.77-.45,10.14,2.96-1.67,6.21-2.53,9.27-3.96,4.3-2.73,8.38-6,11.81-9.79,8.63-9.24,17.14-19.04,22.57-30.59,2.05-5.82,4.34-12.62,3.4-18.84-.74-3.98-1.77-7.84-4.98-10.56-.68-.57-1.36-1.12-2.06-1.66,.6,4.25,2.08,7.69,1.65,11.78-.74,7.09-4.02,12.7-7.78,18.53Z"/>
          <path class="cls-2" d="M348.92,350.27c-.59,8.74-3.82,17.37-8.2,24.91,3.44-.72,5.07-3.18,7.61-5.32,.55-4.02,1.31-7.83,4.31-10.78,1.96-1.96,4.43-2.8,7.08-3.35,1.5-8.27,3.66-16.79,1.52-25.15-1.1-4.66-3.69-7.99-6.04-12.03-4.82-2.38-9.95-3.02-15.21-2.06,7.62,9.54,10.19,21.8,8.93,33.77Z"/>
          <path class="cls-8" d="M359.72,355.73c3.98-.36,7.95-.26,11.9-.97,2.22-5.4,3.4-11.78,1.44-17.44-2.65-7.6-8.33-13.57-15.27-17.47-.85-.44-1.72-.87-2.59-1.29,2.35,4.04,4.94,7.37,6.04,12.03,2.14,8.35-.02,16.88-1.52,25.15Z"/>
          <path class="cls-2" d="M333.98,458.8c.85-2.84,.29-5.48-.53-8.22-4.04-.81-8.87-1.99-11.78-5.15-3.04-3.04-6.49-4.56-7.66-9.06,7.57-.19,14.96-1.55,22.39-2.91,7.26-1.36,13.08-4.73,19.58-7.99,6.81-3.35,12.95-8.67,16.89-15.17,2.2-3.9,1.17-9.83-3.76-10.89-5.1-.92-9.88,4.25-15.05,4.33-7.31,.28-13.87-1.63-21.31,.02-3.66,.75-6.28,3.12-9.39,5.08-4.86-3.53-8.56-8.05-14.07-10.77,.05-.31,.1-.62,.15-.94-4.41-.76-9.75-1.32-13.33-4.18-7.31-5.38-11.83-15.56-9.7-24.56,.86-4.74,2.87-10.12,6.86-13.11,3.83-2.78,8.23-4.61,13.01-3.33,.15-3,.55-5.58-1.25-8.23,2.73,1.23,5.13,2.4,6.52,5.22,3.43,6.39,.97,14.51-2.27,20.47-.76-3.66-2.66-6.68-4.17-10.03-2.72-.22-4.91,.37-6.66,2.55-4.76,7.09-4.81,16.9,1.4,23.14,4.19-.8,8.22-1.83,11.44-4.81,6.66-6.24,10.17-15.05,12.78-23.61,2.45-10.1,3.5-21.57,.44-31.65-1.19-4.04-3.66-7.01-6.2-10.25-6.63-2.14-13.54-1.7-19.99,.77-5.5,1.97-10.28,6.25-14.29,10.39-4.97,5.37-6.02,13.39-7.28,20.31-1.81,15.68-9.4,28.18-9.32,44.27,.16,7.78,3.58,14.95,7.8,21.33,5.82,9.13,14.23,15.87,23.83,20.7-4.35,.8-8.67,.06-12.81-1.39-6.61-2.54-11.81-6.8-16.89-11.61-4.15,2.12-7.79,5.77-10.06,9.85-2.1,4.43-2.81,9.69-1.5,14.46,2.15,8.46,8.13,15.47,14.63,21.03,9.43,7.88,21.13,13.57,33.21,15.9,5.09-1.94,10.12-2.32,14.89-5.22,6.11-3.71,11.53-9.8,13.42-16.77Z"/>
          <path class="cls-8" d="M324.51,325.02c3.06,10.09,2.01,21.55-.44,31.65-2.61,8.55-6.12,17.37-12.78,23.61-3.22,2.98-7.25,4.01-11.44,4.81,4.11,2.83,8.93,3.45,13.58,1.68,3.09-1.09,4.79-3.52,7.3-5.52,4.45-3.44,8.66-8,10.83-13.27,2.17-5.18,4.38-10.17,5.25-15.78,1.5-9.03,.27-19.26-4.93-26.97-3.15-4.91-8.14-8.47-13.57-10.46,2.53,3.24,5.01,6.21,6.2,10.25Z"/>
          <path class="cls-2" d="M375.74,379.67c10.29,1.52,19.57-2.49,29.97-.49,1.96,.78,2.27,4.03,2.5,5.85,.6,5.22-3.36,7.93-4.86,12.84,3.72-3.7,7.37-7.08,9.3-12.1,2.15-5.61,2.73-12.79,1.6-18.71-1.07-4.1-3.02-9.26-6.93-11.43-3.33-1.58-7.25-2.02-10.84-1.1-7.73,1.62-13.12,7.11-20.9,9.07-5.58,1.68-11.03,1.17-16.73,1.53-1.91,4.15-1.44,6.98,1.33,10.46,5.17,1.65,10.09,3.56,15.55,4.08Z"/>
          <path class="cls-8" d="M323.36,408.84c3.12-1.96,5.73-4.33,9.39-5.08,7.44-1.65,14,.26,21.31-.02,5.17-.08,9.95-5.26,15.05-4.33,4.92,1.06,5.96,6.99,3.76,10.89-3.95,6.5-10.09,11.82-16.89,15.17-6.5,3.26-12.32,6.63-19.58,7.99-7.42,1.36-14.81,2.72-22.39,2.91,1.16,4.5,4.62,6.02,7.66,9.06,4.28,.41,8.36,.81,12.65,.21,8.63-1.23,16.63-4.35,24.22-8.55,6.18-3.14,11.9-7.51,16.32-12.88,3-3.61,4.8-8.04,7.54-11.76,6.63-5.29,14.63-8.94,20.93-14.57,1.51-4.91,5.46-7.62,4.86-12.84-.23-1.82-.54-5.07-2.5-5.85-10.4-2-19.68,2.01-29.97,.49-5.46-.51-10.38-2.43-15.55-4.08,1.97,2.33,4.38,4.64,7.22,5.85,7.22,2.4,15.27,2.14,22.53,4.06-2.6,2.5-6.56,3.58-9.95,4.62-5.34,1.56-10.7,1.31-16.15,.49-9.23,10.28-27.75,10.47-37.05,.2-4.71,5.23-10.36,7.29-17.35,6.33-.05,.31-.1,.63-.15,.94,5.5,2.72,9.21,7.24,14.07,10.77Z"/>
          <path class="cls-8" d="M340.72,375.18c-1.59,2.6-3.34,5.08-5.1,7.57,3.17,2.9,7.05,4.75,11.42,4.67,2.74-.06,6.34-.14,8.7-1.66-4.41-4.45-7.29-9.49-7.4-15.9-2.55,2.14-4.18,4.59-7.61,5.32Z"/>
          <path class="cls-8" d="M351.97,469.29c3.08-5.58,2.01-11.36,.36-17.14-3.43,.12-7.14,.57-10.51-.01-2.79-.48-5.58-1.04-8.37-1.56,.82,2.75,1.37,5.38,.53,8.22-1.89,6.98-7.31,13.06-13.42,16.77-4.77,2.89-9.8,3.28-14.89,5.22,8.81,2.33,18.65,2.62,27.57,.69,7.19-1.61,15.09-5.48,18.73-12.19Z"/>
        </g>
        <g>
          <path class="cls-5" d="M640.01,581.38c137.82-169.19,139.45-173.06,140-174.35,3.17-7.53,5.04-19.66,5.44-22.46l31.16-42.59,.02-.03c.12-.17,2.98-4.31,2.16-10.98-.98-7.97-6.55-15.93-16.55-23.7l11.93-14.46c.51-.52,1.55-1.88,1.55-4.32,.02-6.1-6.31-14.57-18.79-25.18,10.51-14.95,24.01-34.21,25.14-36.08,.35-.59,.88-1.7,.95-3.23,2.92-4.24,19.53-28.45,22.12-32.96,2.52-4.39,2.65-8.23,.38-11.41h0l-.17-.21c-.3-.32-3.02-3.18-7.22-3.35-2.86-.11-5.6,1.04-8.15,3.43-2.68,2.5-13.4,13.99-20.71,21.85-7.14-7.18-31.47-26.21-83.12-18.15-35.94,5.61-55.34,24.61-65.28,39.56-11.78,17.7-17.18,40.09-14.85,61.5-4.09,1.87-8.75,4.25-12.16,6.69-1.15,.83-4.65,3.34-144.95,182.94-16.08,20.6-32.41,41.52-48.15,61.71m-110.61,171.93c.59,2.16,1.32,4.33,2.18,6.51,3.66,9.34,9.74,18.95,18.08,28.58,13.82,15.95,28.96,26.42,30.17,27.25,21.14,16.2,40.74,24.96,58.26,26.04,10.55,.65,18.48-1.65,23.79-3.81,1.99-.81,3.61-1.6,4.87-2.21l.44-.21c1.97-.96,3.69-2.32,5.11-4.05,5.72-6.95,22.97-28.01,46.44-56.68M728.16,196.03c28.13-4.39,46.54,.17,57.03,4.77,7.66,3.35,12.31,7.22,14.51,9.34-2.2,2.22-17.64,19.15-29.59,32.29-13.06-9.75-22.67-14-28.59-12.64-2.38,.55-3.48,1.86-3.87,2.48l-11.45,14.84c-9.79-8.03-18.79-11.69-26.78-10.88-3.29,.33-5.79,1.4-7.49,2.42h0s-.12,.07-.15,.09l-.08,.05h0c-1.6,1-2.44,1.91-2.51,1.98l-30.71,35.35c-.9-34.44,19.74-72.32,69.68-80.11h0Z"/>
          <path class="cls-3" d="M323.12,717.24c-10.55-21.92-30.67-32.52,113.41-192.04,14.32-18.38,29.35-37.63,44.71-57.3,59.85-76.62,101.81-129.98,124.72-158.6,19.39-24.23,20.52-25.03,22.22-26.26,2.08-1.49,4.64-3.04,7.65-4.63-.83-21.48,5.19-43.39,16.93-61.04,11.03-16.58,32.45-37.64,71.89-43.79,23.79-3.71,44.96-2.44,62.94,3.78,9,3.11,15.87,7.05,20.84,10.61,12.17-13.03,14.17-14.9,14.9-15.58,5.63-5.27,11.37-6.2,15.19-6.05,7.77,.31,12.69,5.06,14.02,6.51,.14,.15,.27,.31,.4,.46l.17,.21c.12,.15,.24,.3,.35,.46,2.63,3.69,6.14,11.45,.13,21.92-2.51,4.37-15.68,23.64-21.31,31.83-.48,1.93-1.22,3.46-1.87,4.54-.39,.65-1.38,2.28-20.55,29.58,10.63,10.21,15.62,18.8,15.6,26.67,0,5.4-2.33,8.92-3.97,10.72l-5.75,6.96c7.44,7.5,11.7,15.4,12.71,23.58,1.24,10.02-3.02,16.6-3.89,17.82-.04,.05-.07,.1-.11,.15h0s-29.73,40.65-29.73,40.65c-.85,5.24-2.74,15.3-5.73,22.41-.8,1.91-1.33,3.17-19.87,26.49-21.35,26.87-60.91,75.77-117.6,145.38l-127.84,156.54c-22.83,27.89-38.02,46.42-43.1,52.59-2.31,2.81-5.13,5.04-8.37,6.62l-.44,.21c-1.24,.61-3.14,1.53-5.46,2.48-8.83,3.59-18.27,5.11-28.06,4.51-19.43-1.19-40.75-10.57-63.39-27.88-2.61-1.8-17.85-12.63-31.81-28.75-9.06-10.46-15.72-21.03-19.78-31.4-.14-.37-.29-.74-.42-1.1m308.65-130.4c-1.93-3.48-1.54-7.78,.97-10.87,113.39-139.19,135.85-168.05,138.74-172.4,2.05-5.11,3.75-13.71,4.6-19.65,.23-1.58,.84-3.08,1.78-4.37l30.96-42.32c.2-.4,.87-1.94,.57-4.34-.64-5.22-5.09-11.16-12.86-17.2-2.08-1.62-3.42-4-3.71-6.62-.29-2.62,.49-5.24,2.17-7.27l11.03-13.36c-.71-1.88-3.59-7.17-15.13-16.97-3.83-3.26-4.55-8.91-1.66-13.02,18.24-25.94,23.11-33.02,24.4-34.95,.2-1.53,.76-3,1.63-4.27,8.55-12.44,18.39-26.95,21.18-31.42-1.5,1.47-6.03,6.14-19.76,20.92-1.8,1.94-4.32,3.07-6.97,3.11h-.04c-.22,2.22-1.19,4.32-2.78,5.92-1.58,1.6-12.54,13.56-29.3,31.99-3.37,3.71-9.02,4.25-13.03,1.25-12.04-8.99-17.81-10.62-19.79-10.89l-10.58,13.72c-1.61,2.09-3.99,3.43-6.61,3.73-2.62,.3-5.24-.48-7.28-2.15-7.61-6.23-14.39-9.25-19.62-8.72-1.65,.17-2.79,.68-3.47,1.09h-.02s-.06,.05-.09,.07c-.26,.16-.45,.3-.54,.38l-30.45,35.05c-2.52,2.9-6.5,4.04-10.15,2.94-.41,3.29-2.5,6.21-5.6,7.63-5.36,2.46-8.45,4.31-10.17,5.49-3.69,3.88-27.76,33.34-143.32,181.28-16.6,21.25-32.79,42.01-48.14,61.71-2.13,2.74-5.56,4.13-9,3.66m-108.19,152.6c3.95,.45,7.23,3.26,8.28,7.09,.51,1.84,1.13,3.7,1.85,5.54,3.26,8.31,8.77,16.98,16.38,25.76,13.07,15.1,27.69,25.16,28.31,25.58,.15,.1,.29,.2,.43,.31,19.58,15,37.39,23.09,52.93,24.05,6.95,.43,13.34-.59,19.52-3.11,1.71-.7,3.13-1.39,4.26-1.94l.44-.22c.72-.35,1.32-.83,1.85-1.48,5.32-6.47,21.74-26.5,46.43-56.66,1.05-1.28,2.38-2.25,3.86-2.85h0c1.48-.6,3.12-.84,4.76-.66m285.41-430.78h0s0,0,0,0h0Zm-69.36-67.33c.83-.34,1.73-.63,2.71-.85,7.64-1.76,17.09,1.18,29.36,9.22,6.93-7.61,12.4-13.61,16.39-17.96-1.14-.62-2.41-1.24-3.8-1.86-9.31-4.08-25.81-8.1-51.62-4.07h0c-27.56,4.3-44.28,18.38-53.19,34.93l5.37-6.18c.07-.08,.14-.16,.21-.23,.65-.7,2.03-2.05,4.21-3.44,.07-.05,.14-.09,.21-.14,.19-.12,.45-.28,.74-.45,.04-.02,.08-.04,.12-.07,3.35-1.93,7.09-3.11,11.11-3.52,8.19-.83,16.84,1.57,25.8,7.16l5.51-7.15c1.13-1.62,3.27-3.94,6.86-5.4h0Zm9.24,16.35h0s0,0,0,0h0Zm92.44-51.39h0s0,0,0,0h0Z"/>
          <path class="cls-5" d="M640.01,581.38c137.82-169.19,139.45-173.06,140-174.35,3.17-7.53,5.04-19.66,5.44-22.46l31.16-42.59,.02-.03c.12-.17,2.98-4.31,2.16-10.98-.98-7.97-6.55-15.93-16.55-23.7l11.93-14.46c.51-.52,1.55-1.88,1.55-4.32,.02-6.1-6.31-14.57-18.79-25.18,10.51-14.95,24.01-34.21,25.14-36.08,.35-.59,.88-1.7,.95-3.23,2.92-4.24,19.53-28.45,22.12-32.96,2.52-4.39,2.65-8.23,.38-11.41h0l-.17-.21c-.3-.32-3.02-3.18-7.22-3.35-2.86-.11-5.6,1.04-8.15,3.43-2.68,2.5-13.4,13.99-20.71,21.85-7.14-7.18-31.47-26.21-83.12-18.15-35.94,5.61-55.34,24.61-65.28,39.56-11.78,17.7-17.18,40.09-14.85,61.5-4.09,1.87-8.75,4.25-12.16,6.69-1.15,.83-4.65,3.34-144.95,182.94-16.08,20.6-32.41,41.52-48.15,61.71m-110.61,171.93c.59,2.16,1.32,4.33,2.18,6.51,3.66,9.34,9.74,18.95,18.08,28.58,13.82,15.95,28.96,26.42,30.17,27.25,21.14,16.2,40.74,24.96,58.26,26.04,10.55,.65,18.48-1.65,23.79-3.81,1.99-.81,3.61-1.6,4.87-2.21l.44-.21c1.97-.96,3.69-2.32,5.11-4.05,5.72-6.95,22.97-28.01,46.44-56.68M728.16,196.03c28.13-4.39,46.54,.17,57.03,4.77,7.66,3.35,12.31,7.22,14.51,9.34-2.2,2.22-17.64,19.15-29.59,32.29-13.06-9.75-22.67-14-28.59-12.64-2.38,.55-3.48,1.86-3.87,2.48l-11.45,14.84c-9.79-8.03-18.79-11.69-26.78-10.88-3.29,.33-5.79,1.4-7.49,2.42h0s-.12,.07-.15,.09l-.08,.05h0c-1.6,1-2.44,1.91-2.51,1.98l-30.71,35.35c-.9-34.44,19.74-72.32,69.68-80.11h0Z"/>
          <path class="cls-5" d="M520.88,732.38c-24.07,29.41-40.08,48.94-45.33,55.32-1.71,2.09-3.8,3.74-6.2,4.9l-.44,.21c-1.24,.61-2.94,1.44-5.06,2.3-8.03,3.27-16.28,4.59-25.22,4.04-18.15-1.11-38.33-10.08-59.97-26.65-2.01-1.38-16.98-11.89-30.72-27.75-8.58-9.9-14.85-19.83-18.65-29.52-.61-1.56-1.17-3.14-1.66-4.72-21.16-33.7,60.14-113.66,111.71-178.38,15.01-19.26,30.82-39.52,47-60.24,140.58-179.97,143.98-182.41,145.61-183.58,2.63-1.89,6.19-3.91,10.6-6.02-1.79-21.43,3.84-43.66,15.6-61.33,10.3-15.49,30.38-35.18,67.48-40.97,22.73-3.55,42.85-2.37,59.81,3.5,11.56,4,19.22,9.4,23.64,13.26,10.4-11.18,16.67-17.77,18.65-19.63,3.21-3,6.74-4.45,10.5-4.3,5.39,.22,8.84,3.71,9.48,4.4,.05,.05,.09,.1,.13,.16l.17,.21c.04,.05,.08,.1,.12,.15,2.11,2.96,3.79,7.96-.21,14.92-2.55,4.44-17.66,26.49-21.78,32.49-.23,1.66-.82,2.94-1.32,3.76-.91,1.5-8.84,12.89-23.58,33.86,11.92,10.51,17.71,18.94,17.69,25.72,0,3.4-1.44,5.48-2.37,6.47l-9.77,11.83c9.08,7.68,14.19,15.66,15.18,23.76,.96,7.8-2.35,12.73-2.74,13.26l-.04,.05-.02,.03-30.67,41.93c-.64,4.26-2.49,15.2-5.54,22.45-.76,1.81-2.34,5.57-139.11,173.47m-6.72,1.19c-.64-1.16-.51-2.59,.32-3.62,118.81-145.84,138.4-171.32,139.51-173.53v-.03c3.05-7.23,4.89-19.32,5.23-21.66,.08-.53,.28-1.03,.59-1.46l31.16-42.6c.15-.23,2.22-3.45,1.57-8.69-.87-7.07-6.02-14.31-15.32-21.53-.69-.54-1.14-1.33-1.24-2.21-.1-.87,.16-1.75,.72-2.42l11.93-14.46c.06-.07,.12-.14,.19-.21,.1-.1,.62-.7,.62-2.05,0-2.87-2.27-9.63-17.65-22.7-1.28-1.09-1.52-2.97-.55-4.34,21.41-30.45,24.63-35.24,25.02-35.89,.13-.22,.44-.82,.48-1.69,.03-.61,.22-1.19,.57-1.69,7.17-10.43,19.87-29.07,21.98-32.74,2.43-4.23,1.53-6.5,.6-7.84l-.03-.03c-.34-.35-2.2-2.13-4.9-2.24-1.98-.08-3.88,.76-5.8,2.55-1.38,1.29-6.07,6.11-20.55,21.69-.6,.65-1.44,1.02-2.32,1.04-.88,.01-1.74-.33-2.36-.96-3.3-3.32-10.75-9.56-23.62-14.01-15.95-5.52-35.02-6.6-56.69-3.22-34.77,5.43-53.5,23.74-63.08,38.15-11.35,17.06-16.57,38.69-14.33,59.35,.15,1.39-.6,2.72-1.87,3.3-5.01,2.3-8.92,4.45-11.62,6.38l-.03,.02c-1.94,1.6-23.28,27.42-144.25,182.28-16.6,21.25-32.8,42.02-48.15,61.71-.71,.91-1.85,1.38-3,1.22m-109.8,165.48c1.32,.15,2.41,1.09,2.76,2.36,.57,2.06,1.26,4.14,2.07,6.19,3.53,9,9.42,18.3,17.51,27.64,13.39,15.46,27.93,25.59,29.55,26.69,.05,.03,.1,.07,.14,.1,20.62,15.8,39.63,24.34,56.49,25.38,7.94,.49,15.26-.68,22.37-3.57,1.92-.78,3.51-1.56,4.67-2.12l.44-.21c1.55-.76,2.91-1.83,4.03-3.19,5.32-6.47,21.74-26.5,46.43-56.67,.35-.43,.79-.75,1.29-.95h0c.49-.2,1.04-.28,1.59-.22m251.49-480.28c-1.02,.42-2.23,.3-3.17-.41-16.07-12-23.14-12.72-25.92-12.07-1.32,.3-1.79,.94-1.86,1.06-.05,.08-.11,.16-.17,.24l-11.45,14.84c-.54,.7-1.33,1.14-2.2,1.24s-1.75-.16-2.43-.71c-9.1-7.46-17.3-10.88-24.39-10.16-2.83,.29-4.91,1.23-6.15,1.98-.03,.02-.06,.03-.09,.05-.04,.02-.07,.05-.11,.07-1.08,.67-1.68,1.26-1.81,1.4l-30.67,35.3c-.88,1.01-2.29,1.38-3.55,.93-1.26-.45-2.11-1.63-2.15-2.97-.5-19.1,5.34-37.61,16.44-52.11,12.83-16.76,32.19-27.58,55.98-31.3,28.9-4.51,47.95,.23,58.83,5,8.19,3.59,13.21,7.8,15.47,9.99,.62,.6,.98,1.43,.99,2.3,0,.87-.33,1.7-.94,2.32-1.7,1.71-12.17,13.14-29.49,32.19-.34,.37-.74,.64-1.18,.82h0Zm-32.26-18.27c.52-.21,1.09-.39,1.71-.54,6.59-1.52,16.05,2.23,28.89,11.45,9.64-10.6,20.46-22.46,25.35-27.73-2.4-1.92-6.06-4.37-11.14-6.59-10.1-4.43-27.87-8.81-55.23-4.54h0c-45.84,7.15-64.17,39.27-66.66,67.9l24.74-28.48s.05-.05,.07-.08c.36-.39,1.36-1.39,3.05-2.45,.03-.02,.06-.04,.09-.06h.02c.06-.05,.22-.16,.38-.25,.04-.02,.07-.04,.11-.06,2.58-1.5,5.48-2.43,8.63-2.75,8.12-.83,17.04,2.38,26.53,9.53l9.37-12.15c.62-.92,1.86-2.31,4.07-3.22h0Z"/>
          <path class="cls-4" d="M841.9,182.39c.76,1.13,1.3,2.89-.7,6.39-2.11,3.68-14.59,21.95-19.92,29.73-1.26-1.88-3.33-3.95-6.63-6.13-2.24-1.63-4.29-2.79-6.16-3.49,6.39-6.9,21.5-23.17,24.6-26.08,4.49-4.2,7.98-1.27,8.81-.42h0Z"/>
          <path class="cls-4" d="M813.15,216.87c4.15,3,6.16,6.14,5.03,8.01-1.33,2.2-22.85,32.82-35.54,50.83-.25-.15-.5-.31-.76-.47-5.89-3.71-11.18-8.11-11.23-8.16l-.14-.11c-3.81-2.71-6.91-5.41-9.36-7.89,14.68-16.18,39.99-44,41.85-45.8,1.56-1.5,5.24-.18,10.12,3.63l.04-.04h0Z"/>
          <path class="cls-4" d="M794.3,267.04c19.29,16.48,16.88,22.11,16.62,22.57l-.05,.04-23.04,27.92c-1.93-1.14-4.14-2.48-6.64-4.06-15.93-10.1-31.21-21.94-45.4-35.21-7.25-6.78-12.36-11.78-15.96-15.46l21.49-27.87,.14-.17,.03-.06c.39-.34,5.33-3.93,25.55,11.09-.78,.86-1.54,1.69-2.27,2.49-1.22-.55-2.92-1.29-4.7-2-5.88-2.31-8.49-2.61-9.99-1.15-.55,.55-1.19,1.55-1.06,3.23,.36,4.55,7.06,13.87,18.76,22.22,.68,.56,5.78,4.75,11.63,8.43,7.9,4.97,13.35,6.69,16.87,5.26,.62-.25,1.17-.6,1.68-1.04,2.34-2.07,.03-5.81-2.52-9.47-1.09-1.55-2.22-3.03-3.04-4.07,.61-.87,1.24-1.76,1.89-2.69h0Z"/>
          <path class="cls-4" d="M799.33,310.77c11.05,8.56,14.22,15.78,14.89,20.41,.72,4.97-1.19,7.95-1.31,8.13l-30.68,41.95c-2.11-.37-7.16-1.57-15.48-5.44-10.41-4.84-28.18-14.94-53.77-35.64l-.02-.02c-25.79-20.3-39.33-35.02-46.15-43.79-5.28-6.81-7.45-11.18-8.27-13.13,0,0,.39-.45,.36-.65l30.81-35.46c.45,1.59,1.13,2.99,1.88,4.31,.96,1.68,2.06,3.21,3.23,4.66,.57,.74,1.19,1.43,1.79,2.14,.62,.68,1.24,1.37,1.87,2.04,2.54,2.66,5.22,5.14,7.96,7.53,2.76,2.38,5.59,4.65,8.45,6.88-2.62-2.51-5.19-5.06-7.67-7.69-2.46-2.64-4.84-5.36-7.02-8.19-.55-.71-1.07-1.43-1.59-2.15-.49-.74-1.02-1.45-1.48-2.21-.96-1.48-1.81-3.01-2.5-4.56-.35-.77-.63-1.56-.87-2.33-.2-.77-.39-1.54-.42-2.26-.04-.71,.04-1.37,.23-1.86,.1-.24,.22-.45,.35-.61,.06-.07,.11-.12,.17-.17l.03-.02h0s.08-.05,.08-.05h.01s0-.01,0-.01c1.26-.76,3.25-1.62,6-1.85,4.66-.38,12.4,1.11,23.2,9.99l-2.93,3.8c-.93-.7-2.24-1.63-3.65-2.47-4.42-2.62-7.6-2.88-9.45-.77-1.75,2,.29,4.66,1.52,6.25,1.31,1.7,3.34,3.99,6.04,6.8,4.27,4.45,10.24,10.27,17.75,17.29,14.4,13.46,29.89,25.48,46.07,35.73,5.65,3.58,10.51,6.39,14.05,8.13,3.68,1.81,6.47,2.8,8.28,2.06,.49-.2,.91-.53,1.26-1.01,1.64-2.27,.68-5.32-2.86-9.05-1.13-1.19-2.33-2.26-3.22-3.01l3.05-3.7h0Z"/>
          <path class="cls-4" d="M789.67,273.62c2.01,2.63,3.7,5.15,4.39,6.57-1.06,.14-3.25-.1-7.44-2.24,.83-1.17,1.86-2.64,3.05-4.34h0Z"/>
          <path class="cls-4" d="M793.39,317.97c1.98,1.67,3.75,3.53,4.62,4.83-1.28-.48-3.28-1.4-6.16-2.96l1.54-1.87h0Z"/>
          <path class="cls-4" d="M761.56,251.85c-1.38,1.52-2.57,2.83-3.5,3.85-2.43-2.92-3.82-5.31-4.31-6.73,1.75,.41,4.79,1.56,7.8,2.87Z"/>
          <path class="cls-4" d="M780.68,385.6c-.23,1.43-.57,3.45-1.02,5.72h-.04s-.91-.02-.91-.02h-.46c-.15-.01-.31-.03-.46-.04l-.93-.07-.47-.03c-.15-.01-.31-.04-.47-.06l-1.88-.25-1.88-.36-.95-.18-.94-.23-1.88-.46c-.31-.07-.63-.16-.93-.26l-.93-.28-1.86-.56c-.31-.09-.62-.2-.92-.31l-.92-.33-1.84-.66-.92-.33-.91-.37-3.63-1.5c-1.19-.54-2.38-1.11-3.57-1.66l-1.79-.84-1.75-.91-3.51-1.83c-1.15-.63-2.29-1.31-3.44-1.96-1.14-.66-2.3-1.3-3.42-1.99l-3.36-2.11-1.68-1.06c-.56-.36-1.13-.7-1.67-1.08l-6.56-4.48,6.24,4.94c.51,.42,1.06,.8,1.59,1.2l1.61,1.18,3.22,2.36c1.08,.77,2.2,1.5,3.3,2.25,1.11,.74,2.2,1.5,3.32,2.22l3.41,2.1,1.7,1.05,1.75,.98c1.17,.65,2.33,1.31,3.51,1.95l3.6,1.8,.9,.45,.92,.41,1.85,.81,.93,.41c.31,.14,.62,.27,.94,.39l1.89,.73,.95,.36c.32,.12,.63,.24,.96,.34l1.95,.63,.97,.32,.99,.26,1.99,.53,2.03,.42c.17,.03,.34,.07,.51,.1l.52,.08,1.04,.15c.18,.03,.35,.06,.52,.08l.54,.05,.3,.02c-.79,3.37-1.76,6.84-2.91,9.57-5.37,10.07-265.34,327.72-306.3,377.52-1,1.22-2.21,2.18-3.59,2.85l-.44,.22c-9.47,4.62-34.63,16.91-82.21-19.58l-.11-.08c-.15-.11-15.7-10.72-29.4-26.57-12.43-14.37-25.87-36.14-19.33-58.22,.54-1.83,1.19-3.19,2.02-4.26,37.36-48.27,265.18-341.2,296.69-378.66,.05,.24,.11,.49,.17,.73,.26,1.07,.62,2.08,.98,3.09,.21,.49,.4,.99,.62,1.47,.23,.47,.44,.97,.68,1.43,1.89,3.76,4.34,7.1,6.98,10.21,2.64,3.11,5.54,5.95,8.55,8.64,3.01,2.69,6.15,5.21,9.36,7.61-2.97-2.7-5.85-5.5-8.57-8.43-2.71-2.93-5.28-5.99-7.55-9.22-2.26-3.23-4.28-6.63-5.66-10.2-.19-.44-.33-.89-.49-1.34-.15-.45-.28-.9-.42-1.35-.24-.91-.47-1.81-.59-2.71-.13-.9-.21-1.8-.19-2.66,0-.43,.04-.85,.09-1.25,.01-.09,.03-.18,.04-.27,5.28-3.59,13.55-7.1,17.41-8.65,2.82,6.41,13.99,25.47,55.55,58.19,41.54,33.59,63.54,40.47,70.56,41.87h0Z"/>
          <path class="cls-4" d="M717.72,258.12l-1.07,1.39c-1.91-2.05-3.16-3.5-3.96-4.51,1.42,.66,3.28,1.8,5.03,3.13Z"/>
          <path class="cls-1" d="M522.91,724.77c30.92-37.78,71.67-87.64,110.9-135.79,1.03-1.27,2.06-2.53,3.08-3.78h0"/>
          <path class="cls-5" d="M522.91,724.77c30.92-37.78,71.67-87.64,110.9-135.79,1.03-1.27,2.06-2.53,3.08-3.78m161.11-262.4c-1.28-.48-3.28-1.4-6.16-2.96l1.54-1.87c1.98,1.67,3.75,3.53,4.62,4.83h0Zm-3.95-42.62c-1.06,.14-3.25-.1-7.44-2.24,.83-1.17,1.86-2.64,3.05-4.34,2.01,2.63,3.7,5.15,4.39,6.57h0Zm-156.89,302.76c-.64-1.16-.51-2.59,.32-3.62,118.81-145.84,138.4-171.32,139.51-173.53v-.03c3.05-7.23,4.89-19.32,5.23-21.66,.08-.53,.28-1.03,.59-1.46l31.16-42.6c.15-.23,2.22-3.45,1.57-8.69-.87-7.07-6.02-14.31-15.32-21.53-.69-.54-1.14-1.33-1.24-2.21-.1-.87,.16-1.75,.72-2.42l11.93-14.46c.06-.07,.12-.14,.19-.21,.1-.1,.62-.7,.62-2.05,0-2.87-2.27-9.63-17.65-22.7-.38-.32-.67-.72-.86-1.15-.24-.16-.38-.25-.38-.25l.19-.28c-.22-.89-.07-1.86,.49-2.66,21.41-30.45,24.63-35.24,25.02-35.89,.13-.22,.44-.82,.48-1.69,.03-.61,.22-1.19,.57-1.69,7.17-10.43,19.87-29.07,21.98-32.74,2.43-4.23,1.53-6.5,.6-7.84l-.03-.03c-.1-.11-.35-.34-.71-.62h0c-.18,.25-.44,.61-.76,1.05,.2,.16,.35,.31,.46,.42,.76,1.13,1.3,2.89-.7,6.39-2.11,3.68-14.59,21.95-19.92,29.73-1.26-1.88-3.33-3.95-6.63-6.13-1.41-1.03-2.75-1.87-4.02-2.52-2.4,.02-4.37,.82-4.37,.82l7.5,3.78s-.46,.71-1.29,1.96c.22,.16,.43,.33,.65,.5l.04-.04c4.15,3,6.16,6.14,5.03,8.01-1.33,2.2-22.85,32.82-35.54,50.83-.25-.15-.5-.31-.76-.47-5.89-3.71-11.18-8.11-11.23-8.16l-.14-.11c-3.81-2.71-6.91-5.41-9.36-7.89,.3-.33,.61-.67,.92-1.01-1.22-.97-1.89-1.78-1.89-1.78,0,0-.8,2.07,.12,4.32,.92,2.25,11.4,10.01,11.73,12.17,.05,.29,0,.65-.11,1.07,2.06,1.55,4.7,3.44,7.51,5.21,7.9,4.97,13.35,6.69,16.87,5.26,.62-.25,1.17-.6,1.68-1.04,2.34-2.07,.03-5.81-2.52-9.47-1.09-1.55-2.22-3.03-3.04-4.07,.61-.87,1.24-1.76,1.89-2.69,19.29,16.48,16.88,22.11,16.62,22.57l-.05,.04-23.04,27.92c-1.93-1.14-4.14-2.48-6.64-4.06-15.93-10.1-31.21-21.94-45.4-35.21-.89-.83-1.75-1.64-2.57-2.41-8.47-6.68-15.58-13.82-15.62-13.86l28.76,29.31s-.25,.64-.75,1.74c10.61,8.9,21.72,17.04,33.16,24.29,5.65,3.58,10.51,6.39,14.05,8.13,3.68,1.81,6.47,2.8,8.28,2.06,.49-.2,.91-.53,1.26-1.01,1.64-2.27,.68-5.32-2.86-9.05-1.13-1.19-2.33-2.26-3.22-3.01l3.05-3.7c11.05,8.56,14.22,15.78,14.89,20.41,.72,4.97-1.19,7.95-1.31,8.13l-30.68,41.95c-2.11-.37-7.16-1.57-15.48-5.44-10.41-4.84-28.18-14.94-53.77-35.64l-.02-.02c-25.79-20.3-39.33-35.02-46.15-43.79-3.14-4.05-5.18-7.24-6.49-9.57-2.95-3.35-4.63-5.54-4.63-5.54,0,0-1.25,1.18-1.75,4.54,.23-.09,.45-.18,.65-.26,2.82,6.41,13.99,25.47,55.55,58.19,41.54,33.59,63.54,40.47,70.56,41.87-.23,1.43-.57,3.45-1.02,5.72h-.04s-.91-.02-.91-.02h-.46c-.15-.01-.31-.03-.46-.04l-.93-.07-.47-.03c-.15-.01-.31-.04-.47-.06l-1.88-.25-1.88-.36-.95-.18-.94-.23-1.88-.46c-.31-.07-.63-.16-.93-.26l-.93-.28-1.86-.56c-.31-.09-.62-.2-.92-.31l-.92-.33-1.84-.66-.92-.33-.91-.37-3.63-1.5c-1.19-.54-2.38-1.11-3.57-1.66l-1.79-.84-1.75-.91-3.51-1.83c-1.15-.63-2.29-1.31-3.44-1.96-1.14-.66-2.3-1.3-3.42-1.99l-3.36-2.11-1.68-1.06c-.56-.36-1.13-.7-1.67-1.08l-6.56-4.48,6.24,4.94c.51,.42,1.06,.8,1.59,1.2l1.61,1.18,3.22,2.36c1.08,.77,2.2,1.5,3.3,2.25,1.11,.74,2.2,1.5,3.32,2.22l3.41,2.1,1.7,1.05,1.75,.98c1.17,.65,2.33,1.31,3.51,1.95l3.6,1.8,.9,.45,.92,.41,1.85,.81,.93,.41c.31,.14,.62,.27,.94,.39l1.89,.73,.95,.36c.32,.12,.63,.24,.96,.34l1.95,.63,.97,.32,.99,.26,1.99,.53,2.03,.42c.17,.03,.34,.07,.51,.1l.52,.08,1.04,.15c.18,.03,.35,.06,.52,.08l.54,.05,.3,.02c-.79,3.37-1.76,6.84-2.91,9.57-5.37,10.07-265.34,327.72-306.3,377.52-1,1.22-2.21,2.18-3.59,2.85l-.44,.22c-1.3,.64-2.9,1.42-4.81,2.19-12,4.89-36.36,9.7-77.4-21.77l-.11-.08c-.14-.09-12.27-8.38-24.55-21.23-.77-.04-1.42-.09-1.92-.14,12.2,13.04,24.24,21.42,25.7,22.42,.05,.03,.1,.07,.14,.1,20.62,15.8,39.63,24.34,56.49,25.38,7.94,.49,15.26-.68,22.37-3.57,1.92-.78,3.51-1.56,4.67-2.12l.44-.21c1.55-.76,2.91-1.83,4.03-3.19,5.32-6.47,21.74-26.5,46.43-56.67,.35-.43,.79-.75,1.29-.95s1.04-.28,1.59-.22"/>
          <path class="cls-5" d="M637.42,582.01s136.96-169.34,139.78-173.3c2.83-3.96,5.27-23.94,5.27-23.94,0,0,21.5-28.56,25.77-34.86,4.27-6.3,10.1-11.92,7.64-21.69-2.45-9.78-15.68-20.43-15.68-20.43,0,0,9.87-12.78,11.48-15.72,1.61-2.93,2.16-6.31-3.49-14.18-4.97-6.91-12.48-12.1-14.24-13.26h0c.19,.43,.48,.83,.86,1.15,15.37,13.07,17.65,19.83,17.65,22.7,0,1.35-.52,1.94-.62,2.05-.07,.07-.13,.14-.19,.21l-11.93,14.46c-.56,.68-.82,1.55-.72,2.42,.1,.87,.54,1.67,1.24,2.21,9.3,7.22,14.45,14.46,15.32,21.53,.65,5.25-1.42,8.46-1.57,8.69l-31.16,42.6c-.31,.43-.52,.93-.59,1.46-.34,2.35-2.17,14.43-5.22,21.66v.03c-1.12,2.21-20.72,27.69-139.52,173.53-.84,1.03-.97,2.46-.32,3.62m-117.32,142.78c-.55-.06-1.09,.02-1.59,.22s-.94,.52-1.29,.95c-24.69,30.17-41.11,50.2-46.43,56.67-1.12,1.36-2.47,2.43-4.03,3.19l-.44,.21c-1.16,.57-2.75,1.34-4.67,2.12-7.11,2.89-14.42,4.06-22.37,3.57-16.86-1.03-35.86-9.57-56.49-25.38-.05-.04-.09-.07-.14-.1-1.46-1-13.51-9.38-25.7-22.42-.89-.09-1.36-.18-1.36-.18,8.82,10.26,36.77,36.85,64.32,44.8,24.36,7.03,39.4,1.95,46.43-.91,.92-.37,1.7-.71,2.35-.98,5.61-2.3,49.98-61.23,49.98-61.23M842.51,180.48s-.11,.16-.32,.45c.36,.28,.6,.52,.71,.62l.03,.03c.93,1.34,1.83,3.61-.6,7.84-2.11,3.66-14.81,22.3-21.98,32.74-.34,.5-.54,1.09-.57,1.69-.04,.87-.35,1.47-.48,1.69-.39,.65-3.61,5.44-25.02,35.89-.56,.8-.72,1.77-.49,2.66l24.73-35.81s22.52-34.23,24.75-39.52c2.23-5.29-.74-8.29-.74-8.29h0Z"/>
          <path class="cls-10" d="M841.44,181.98c-4.23,5.84-19.73,26.9-25.01,29.05-.53,.21-.95,.24-1.25,.04-1.45-.94-3.08-1.22-4.55-1.21,1.27,.66,2.61,1.5,4.02,2.52,3.3,2.19,5.37,4.26,6.63,6.13,5.33-7.78,17.81-26.05,19.92-29.73,2.01-3.49,1.47-5.25,.7-6.39-.11-.11-.26-.26-.46-.42h0Z"/>
          <path class="cls-10" d="M812.46,216.41c-3.81,5.73-15.49,22.92-27.23,36.47-3.35,3.87-6.51,6.11-9.37,7.28-6.33,2.58-11.26-.09-13.8-2.09-.31,.34-.62,.68-.92,1.01,2.45,2.48,5.55,5.18,9.36,7.89l.14,.11c.05,.04,5.34,4.45,11.23,8.16,.26,.16,.51,.32,.76,.47,12.69-18.01,34.21-48.62,35.54-50.83,1.13-1.87-.88-5.01-5.03-8.01l-.04,.04c-.22-.17-.44-.34-.65-.5h0Z"/>
          <path class="cls-10" d="M733.23,275.88c.83,.78,1.68,1.58,2.57,2.41,14.19,13.27,29.46,25.12,45.4,35.21,2.5,1.59,4.7,2.93,6.64,4.06l23.04-27.92,.05-.04c.25-.45,2.67-6.09-16.62-22.57-.65,.93-1.28,1.82-1.89,2.69,.82,1.04,1.95,2.52,3.04,4.07,2.56,3.66,4.86,7.4,2.52,9.47-.5,.44-1.06,.79-1.68,1.04-3.52,1.43-8.96-.28-16.87-5.26-2.81-1.77-5.46-3.66-7.51-5.21-.77,2.64-4.99,7.59-13.82,12.69-.21,.12-.42,.22-.64,.31-5.44,2.22-15.55-4.14-24.22-10.98h0Z"/>
          <path class="cls-10" d="M660.31,286.81c1.31,2.33,3.35,5.52,6.49,9.57,6.82,8.77,20.36,23.49,46.15,43.79l.02,.02c25.59,20.69,43.37,30.8,53.77,35.64,8.31,3.86,13.37,5.07,15.48,5.44l30.68-41.95c.12-.18,2.03-3.16,1.31-8.13-.67-4.63-3.84-11.84-14.89-20.41l-3.05,3.7c.89,.75,2.09,1.82,3.22,3.01,3.54,3.73,4.5,6.78,2.86,9.05-.35,.48-.77,.81-1.26,1.01-1.81,.74-4.59-.26-8.28-2.06-3.54-1.74-8.41-4.55-14.05-8.13-11.44-7.25-22.54-15.38-33.16-24.29-2.37,5.16-10.27,20.4-23.36,25.73-4.63,1.88-9.9,2.53-15.8,1.05-19.31-4.82-37.79-23.57-46.13-33.04h0Z"/>
          <path class="cls-10" d="M789.67,273.62c-1.19,1.69-2.23,3.16-3.05,4.34,4.2,2.13,6.38,2.38,7.44,2.24-.69-1.42-2.38-3.95-4.39-6.57h0Z"/>
          <path class="cls-10" d="M793.39,317.97l-1.54,1.87c2.88,1.57,4.88,2.49,6.16,2.96-.87-1.3-2.64-3.17-4.62-4.83h0Z"/>
          <path class="cls-10" d="M653.93,285.8c-.71,4.77,.11,13.94,8.23,30.33,13.83,27.92,51.98,47.57,43.76,63.53-8.22,15.97-215.17,261.78-261.93,317.27-19.77,23.46-38.66,35.6-53.89,41.8-14.82,6.03-26.17,6.44-31.47,6.17,12.27,12.85,24.41,21.14,24.55,21.23l.11,.08c41.04,31.47,65.4,26.66,77.4,21.77,1.91-.78,3.51-1.56,4.81-2.19l.44-.22c1.38-.67,2.58-1.63,3.59-2.85,40.95-49.8,300.92-367.45,306.3-377.52,1.15-2.73,2.12-6.2,2.91-9.57l-.3-.02-.54-.05c-.18-.02-.35-.05-.52-.08l-1.04-.15-.52-.08c-.17-.03-.34-.07-.51-.1l-2.03-.42-1.99-.53-.99-.26-.97-.32-1.95-.63c-.32-.1-.64-.22-.96-.34l-.95-.36-1.89-.73c-.32-.12-.63-.25-.94-.39l-.93-.41-1.85-.81-.92-.41-.9-.45-3.6-1.8c-1.18-.64-2.34-1.3-3.51-1.95l-1.75-.98-1.7-1.05-3.41-2.1c-1.12-.72-2.21-1.48-3.32-2.22-1.1-.75-2.22-1.47-3.3-2.25l-3.22-2.36-1.61-1.18c-.53-.39-1.08-.77-1.59-1.2l-6.24-4.94,6.56,4.48c.54,.38,1.11,.72,1.67,1.08l1.68,1.06,3.36,2.11c1.12,.69,2.28,1.33,3.42,1.99,1.15,.66,2.28,1.33,3.44,1.96l3.51,1.83,1.75,.91,1.79,.84c1.19,.55,2.38,1.12,3.57,1.66l3.63,1.5,.91,.37,.92,.33,1.84,.66,.92,.33c.3,.11,.61,.22,.92,.31l1.86,.56,.93,.28c.31,.1,.62,.19,.93,.26l1.88,.46,.94,.23,.95,.18,1.88,.36,1.88,.25c.16,.02,.31,.05,.47,.06l.47,.03,.93,.07c.15,.01,.31,.03,.46,.03h.46s.91,.03,.91,.03h.04c.45-2.27,.79-4.29,1.02-5.72-7.01-1.4-29.01-8.28-70.56-41.87-41.56-32.72-52.73-51.77-55.55-58.19-.2,.08-.42,.17-.65,.26h0Z"/>
          <path class="cls-9" d="M636.89,585.2h0c-1.02,1.25-2.05,2.51-3.08,3.78-39.24,48.15-79.99,98.01-110.9,135.79"/>
          <polygon class="cls-5" points="717.6 262.01 717.6 262.01 717.6 262.01 717.6 262.01"/>
          <path class="cls-5" d="M331.33,704.17s-.96-15.08,.79-22.06c1.75-6.98,11.64-18.3,11.64-18.3,0,0-1.64,1.59-5.64,3.71-2.27,2.92-4.04,5.21-5.26,6.78-1.19,1.53-2.07,3.36-2.78,5.75-2.16,7.28-2.49,14.9-1.02,22.77"/>
          <path class="cls-9" d="M329.07,702.83c-1.47-7.86-1.13-15.49,1.02-22.77,.71-2.39,1.59-4.22,2.78-5.75,1.22-1.58,2.99-3.86,5.26-6.78-1.48,.78-3.28,1.64-5.43,2.52"/>
          <line class="cls-2" x1="437.69" y1="543.2" x2="440.92" y2="539.08"/>
          <path class="cls-2" d="M340.91,725.54s-6.01-28.84,26.38-73.77c32.4-44.92,253.31-326.15,258.87-334.14,5.56-7.99,33.47,13.3,33.47,13.3,0,0-13.76-18.45-14.91-29.92-1.15-11.47,8.95-17.88,8.95-17.88l3.15-1.28s22.47-18.49,27.14-21.31c4.67-2.82,25.43,8.65,25.43,8.65,0,0-12.97-16.02-11.37-22.64,1.59-6.62,15.34-5.94,21.68-1.63,0,0-16.52-9.76-25.4-4.1-8.87,5.66-36.99,38.84-36.99,38.84l-23.45,13.83-301.62,384.48s-8.56,19.42,8.68,47.56Z"/>
          <path class="cls-2" d="M720.05,262.58s12.93-16.87,21.25-20.08c8.32-3.21,24.56,8.73,24.56,8.73l43.79-38.84-4.42-2.92-35.34,35.75s-9.74-7.59-19.04-11.51c-9.3-3.91-6.87-5.26-13.03,1.98-6.16,7.23-20.22,26.33-20.22,26.33l2.45,.56Z"/>
          <path class="cls-5" d="M640.04,581.36c137.82-169.18,139.45-173.06,140-174.35,3.17-7.53,5.04-19.66,5.44-22.46l31.16-42.59,.02-.03c.12-.17,2.98-4.31,2.16-10.98-.98-7.97-6.55-15.93-16.55-23.7l11.93-14.46c.51-.52,1.55-1.88,1.56-4.32,.02-6.1-6.31-14.57-18.79-25.18,10.51-14.94,24.01-34.21,25.14-36.08,.35-.59,.88-1.71,.95-3.22,2.92-4.24,19.53-28.45,22.12-32.96,2.52-4.39,2.65-8.23,.38-11.42l-.17-.21c-.3-.33-3.01-3.18-7.21-3.35-2.86-.11-5.6,1.04-8.15,3.43-2.67,2.5-13.4,13.99-20.71,21.85-7.14-7.18-31.47-26.21-83.12-18.15-35.94,5.61-55.34,24.61-65.28,39.56-11.78,17.7-17.18,40.09-14.85,61.5-4.09,1.87-8.75,4.25-12.16,6.69-1.15,.83-4.65,3.34-144.95,182.94-16.09,20.6-32.41,41.52-48.15,61.71m-110.61,171.93c.59,2.16,1.32,4.33,2.17,6.52,3.66,9.34,9.75,18.95,18.08,28.58,13.82,15.95,28.96,26.42,30.17,27.25,21.14,16.2,40.74,24.96,58.26,26.04,10.55,.65,18.48-1.65,23.79-3.81,1.99-.81,3.61-1.6,4.86-2.21l.44-.21c1.97-.96,3.69-2.32,5.11-4.05,5.72-6.95,22.98-28.01,46.44-56.67M728.19,196.02c28.13-4.39,46.54,.17,57.03,4.77,7.65,3.35,12.31,7.22,14.51,9.34-2.2,2.22-17.64,19.15-29.58,32.29-13.06-9.75-22.67-14-28.6-12.63-2.38,.55-3.47,1.86-3.87,2.48l-11.45,14.84c-9.79-8.03-18.79-11.69-26.78-10.88-3.29,.33-5.78,1.4-7.49,2.42h0s-.12,.07-.15,.09l-.08,.06h0c-1.6,1-2.44,1.91-2.51,1.98l-30.71,35.35c-.9-34.44,19.74-72.32,69.68-80.11Zm-287.42,339.58c-50.84,65.23-98.2,126.2-107.87,138.7-1.19,1.53-2.07,3.36-2.78,5.75-2.16,7.28-2.49,14.9-1.02,22.77m193.84,21.93c30.92-37.78,71.66-87.64,110.9-135.79,1.03-1.27,2.06-2.53,3.08-3.78m142.77-193.88h-.04s-.91-.02-.91-.02h-.46c-.15-.02-.31-.03-.46-.04l-.93-.07-.47-.04c-.16-.02-.31-.04-.47-.06l-1.88-.25-1.88-.36-.94-.18-.94-.23-1.88-.46c-.31-.07-.63-.16-.93-.26l-.93-.28-1.86-.56c-.31-.09-.62-.19-.93-.31l-.92-.33-1.84-.66-.92-.33-.91-.37-3.63-1.5c-1.19-.54-2.38-1.11-3.57-1.66l-1.79-.84-1.75-.91-3.5-1.83c-1.16-.63-2.29-1.31-3.44-1.96-1.14-.67-2.3-1.3-3.42-1.99l-3.36-2.11-1.68-1.06c-.56-.36-1.13-.7-1.67-1.08l-6.57-4.48,6.24,4.94c.51,.42,1.06,.8,1.59,1.2l1.61,1.18,3.21,2.36c1.08,.78,2.2,1.5,3.3,2.25,1.11,.74,2.2,1.5,3.32,2.22l3.41,2.1,1.71,1.05,1.75,.98c1.17,.65,2.33,1.31,3.51,1.95l3.6,1.8,.9,.45,.92,.41,1.85,.81,.93,.41c.31,.14,.62,.27,.94,.39l1.9,.72,.95,.36c.32,.12,.63,.24,.96,.34l1.94,.63,.97,.31,.99,.26,1.99,.53,2.04,.42c.17,.03,.34,.07,.51,.1l.52,.08,1.04,.16c.17,.02,.35,.05,.52,.07l.53,.05,.3,.03c-.79,3.37-1.76,6.84-2.9,9.57-5.38,10.07-265.34,327.72-306.3,377.52-1,1.22-2.21,2.18-3.59,2.85l-.44,.22c-9.47,4.62-34.63,16.91-82.21-19.58l-.11-.08c-.16-.11-15.7-10.72-29.4-26.57-12.43-14.37-25.87-36.14-19.33-58.22,.54-1.83,1.18-3.19,2.01-4.26,37.36-48.27,265.18-341.2,296.69-378.66,.05,.24,.11,.49,.17,.73,.26,1.07,.62,2.09,.99,3.09,.2,.49,.4,.99,.62,1.47,.23,.48,.43,.97,.68,1.43,1.89,3.76,4.34,7.1,6.98,10.21,2.64,3.11,5.54,5.95,8.55,8.64,3.01,2.69,6.15,5.21,9.36,7.62-2.97-2.7-5.85-5.5-8.57-8.43-2.71-2.93-5.29-5.98-7.55-9.22-2.26-3.23-4.27-6.63-5.66-10.2-.18-.44-.32-.9-.49-1.34-.15-.45-.28-.9-.42-1.35-.24-.91-.47-1.81-.59-2.71-.13-.9-.21-1.8-.19-2.66,0-.43,.04-.85,.09-1.25,.02-.09,.03-.18,.05-.27,5.28-3.59,13.55-7.1,17.41-8.65,2.82,6.41,13.99,25.47,55.55,58.19,41.54,33.59,63.54,40.47,70.56,41.87-.23,1.43-.57,3.45-1.02,5.72Zm34.56-60.14c.72,4.97-1.19,7.95-1.31,8.14l-30.68,41.94c-2.11-.37-7.17-1.57-15.48-5.43-10.41-4.84-28.18-14.94-53.77-35.64l-.02-.02c-25.79-20.3-39.33-35.02-46.15-43.79-5.29-6.8-7.46-11.18-8.27-13.13,0,0,.39-.45,.36-.65l30.81-35.46c.45,1.59,1.13,2.99,1.88,4.31,.96,1.67,2.06,3.21,3.23,4.66,.57,.74,1.19,1.43,1.78,2.14,.62,.68,1.23,1.37,1.87,2.04,2.54,2.66,5.22,5.14,7.96,7.53,2.76,2.38,5.59,4.65,8.45,6.88-2.61-2.51-5.19-5.06-7.66-7.7-2.46-2.64-4.84-5.36-7.02-8.19-.55-.71-1.07-1.43-1.59-2.15-.5-.74-1.02-1.45-1.48-2.2-.96-1.48-1.81-3.01-2.5-4.56-.35-.77-.63-1.56-.87-2.33-.2-.77-.39-1.54-.41-2.26-.04-.71,.04-1.37,.23-1.86,.1-.24,.22-.45,.35-.61,.06-.07,.11-.12,.17-.17l.03-.02h0s.08-.04,.08-.04h.01s0-.01,0-.01c1.26-.76,3.25-1.62,6-1.84,4.66-.37,12.4,1.11,23.2,9.99l-2.93,3.8c-.93-.7-2.24-1.63-3.65-2.47-4.42-2.62-7.6-2.88-9.45-.77-1.76,2,.3,4.66,1.52,6.25,1.31,1.7,3.34,3.98,6.04,6.8,4.27,4.46,10.24,10.27,17.75,17.29,14.4,13.46,29.9,25.48,46.07,35.73,5.65,3.58,10.51,6.39,14.05,8.13,3.68,1.81,6.47,2.8,8.28,2.07,.49-.2,.91-.53,1.26-1.01,1.64-2.27,.68-5.31-2.85-9.04-1.13-1.19-2.33-2.26-3.22-3.01l3.05-3.7c11.05,8.56,14.22,15.78,14.89,20.41Zm-101.53-76.18c1.42,.66,3.28,1.8,5.03,3.12l-1.07,1.39c-1.91-2.05-3.16-3.5-3.96-4.51Zm80.7,62.98c1.98,1.66,3.74,3.53,4.62,4.83-1.29-.48-3.28-1.4-6.16-2.96l1.55-1.87Zm17.53-28.36l-.05,.04-23.04,27.92c-1.93-1.14-4.14-2.48-6.64-4.06-15.93-10.1-31.21-21.94-45.4-35.21-7.25-6.78-12.36-11.78-15.97-15.47l21.49-27.87,.13-.17,.03-.06c.39-.34,5.33-3.93,25.55,11.09-.78,.86-1.54,1.69-2.27,2.5-1.23-.55-2.93-1.3-4.7-1.99-5.88-2.31-8.49-2.62-9.98-1.15-.56,.55-1.19,1.56-1.06,3.24,.36,4.55,7.06,13.87,18.77,22.22,.68,.56,5.78,4.75,11.62,8.43,7.9,4.98,13.35,6.69,16.87,5.25,.62-.25,1.18-.6,1.68-1.04,2.33-2.07,.03-5.81-2.52-9.47-1.09-1.55-2.22-3.03-3.04-4.07,.61-.87,1.24-1.77,1.9-2.69,19.29,16.48,16.88,22.12,16.62,22.57Zm-57.17-40.63c1.75,.42,4.79,1.56,7.8,2.88-1.38,1.52-2.57,2.83-3.5,3.85-2.43-2.92-3.82-5.31-4.31-6.73Zm35.92,24.63c2,2.62,3.69,5.15,4.39,6.57-1.07,.14-3.25-.1-7.44-2.24,.83-1.17,1.86-2.64,3.06-4.34Zm28.51-48.74c-1.33,2.2-22.85,32.82-35.54,50.83-.25-.15-.5-.31-.76-.47-5.89-3.71-11.18-8.11-11.23-8.15l-.14-.11c-3.81-2.71-6.91-5.41-9.36-7.89,14.68-16.18,39.99-44,41.85-45.8,1.56-1.5,5.25-.17,10.13,3.63l.03-.04c4.15,3,6.16,6.14,5.03,8.01Zm23.02-36.1c-2.11,3.68-14.59,21.95-19.92,29.73-1.26-1.88-3.33-3.95-6.63-6.14-2.24-1.63-4.3-2.79-6.16-3.49,6.39-6.9,21.5-23.17,24.61-26.08,4.49-4.2,7.97-1.27,8.81-.42,.76,1.13,1.3,2.9-.7,6.39Z"/>
          <path class="cls-2" d="M424.73,563.59l-61.38,78.89c-.05,.06-.1,.13-.14,.2l-28.07,43.35c-.2,.3-.33,.64-.4,.99l-1.75,9.15c-.06,.33-.07,.66,0,.99l.43,2.53c.4,2.35,3.37,3.14,4.89,1.3l6.95-8.41c.23-.28,.4-.59,.51-.93l4.37-13.81c.08-.24,.18-.47,.32-.68l26.76-41c.03-.05,.07-.1,.11-.15l51.84-69.03c.84-1.11,.72-2.67-.27-3.65h0c-1.19-1.18-3.13-1.05-4.16,.27Z"/>
          <polygon class="cls-5" points="333.81 707.19 334 703.09 332.15 692.03 327.4 701.88 332.95 710.27 333.81 707.19"/>
          <polygon class="cls-5" points="407.59 585.28 430 556.82 426.84 554.78 403.46 583.51 407.59 585.28"/>
          <polygon class="cls-5" points="429.29 557.92 445.63 536.76 440.19 534.11 426.05 555.76 429.29 557.92"/>
        </g>
        <path d="M718.13,393.07c4.33,7.81,1.92,17.57-1.43,25.26,.91-.26,1.6-.27,2.18-1.09,4.17-4.87,7.45-10.35,8.62-16.73,1.02-5.07,1.05-10.3-1.5-14.94-1.29-2.37-3.11-4.04-4.95-5.94-3.88-2.18-7.79-3.27-12.24-2.77-8.72,.92-16.16,5.57-21.89,12.03,5.77-2.23,12.74-4.44,18.97-3.59,4.97,1.31,9.68,2.97,12.24,7.77Z"/>
        <path d="M616.13,493.13c.46,2.28,2.2,4.48,4.62,4.81,3.97,.72,8.1-.87,11.61-2.62,7.05-3.71,13.41-9.03,19.25-14.42,13.65-13.08,26.07-28.54,34.18-45.69,1.38-4.06,3.05-8.55,2.86-12.9-.12-2.71-1.22-5.28-3.72-6.58-3.13-1.81-7.61-.3-10.69,1-8.11,3.54-15.34,9.79-21.76,15.78-5.2,5.59-10.83,10.52-15.29,16.78-7.99,9.82-15.51,20.76-19.76,32.75-1.12,3.41-2.12,7.5-1.31,11.08Zm46.33-45.92c2.65-3.3,6.04-6.95,10.12-8.39,1.7-.71,2.87,.31,4.44,.9,.63,3.39-1.24,6.58-3.09,9.26-2.63,3.27-5.83,6.81-9.83,8.36-1.63,.81-4.54-.12-4.54-2.24-.78-3.21,1.15-5.45,2.9-7.88Z"/>
        <path d="M567.58,465.95c7.23,0,12.88,4.1,18.51,8.07,.57-3.07-1.48-5.67-3.27-7.91-4.15-5.06-10.32-8.25-16.91-8.27-3.38,.12-7,1.08-9.33,3.68-2.61,2.91-3.29,6.76-2.2,10.47,1.86,6.23,7.28,10.37,13.18,12.54,4.03,1.54,7.97,1.88,12.19,1.07-5.82-2.78-11.82-5.03-15.85-10.35-1.51-1.76-1.99-4.18-1.72-6.44,.55-2.37,3.38-2.76,5.41-2.84Z"/>
        <path d="M549.12,502.54c-8.03-8.86-13.76-19.56-15.72-31.41-1.03-6.65-.84-13.32-.11-20,2.25,1.09,4.53,2.12,6.9,2.93,1.31-4.65-1.79-9.8-6.96-9.45-5.54,.29-7.87,4.59-9.43,9.32,.98-.95,1.93-2.17,3.14-2.84,1.2-.49,2.59-.6,3.87-.8-3.6,11.49-3.15,23.64,.05,35.14,3.39,11.78,10.23,22.16,19.11,30.55,10.83,9.65,23.99,15.95,38.02,19.39,13.07,2.76,26.95,2.92,39.98-.15,8.05-2.05,16.25-4.53,23.61-8.47,2.54-1.23,4.92-2.76,7.43-4.03-.7,2.75-1.83,5.18-1.71,8.08,5-2.02,8.76-6.46,8.58-12.07-.27-2.99-3.5-5.39-6.16-6.18-3.41-.77-6.23,.79-9.1,2.4,2.48,.83,4.95,1.6,7.34,2.64-2,2.12-4.7,2.65-7.39,3.93-14.33,6.11-29.84,7.83-45.28,6.69-8.31-.56-16.11-2.54-24.09-4.82-12.21-4.28-23.19-11.5-32.1-20.87Z"/>
        <path d="M602.92,376.03c-6.63,4.09-12.36,9.9-17.59,15.61-3.69,4.71-7.72,9.09-11.15,14-1.52,2.87-3.64,5.31-5.31,8.09-4.87,7.89-8.87,16.19-11.78,25-.92,3.7-1.89,8.2-.76,11.94,.65,2.21,2.28,3.95,4.67,4.18,3.96,.35,7.88-1.61,11.11-3.71,7.05-4.76,13.3-10.89,18.68-17.45,2.02-2.21,3.86-4.53,5.65-6.92,8.64-11.52,16.2-23.8,20.62-37.6,.93-3.97,2.06-9.03,.07-12.84-.97-2.21-3.64-2.64-5.67-3.42-.82,.1-1.65,.18-2.47,.26l.6,.25,.52,.21c-2.69-.4-4.94,1.13-7.17,2.39Zm1.67,19.96c2.42-1.14,3.91,.2,4.66,2.46-1.87,6.35-6.26,13.68-12.83,16-.79-.36-1.57-.72-2.35-1.08-.28-1.03-.56-2.05-.85-3.07,1.73-5.61,5.87-11.84,11.37-14.31Z"/>
        <path d="M615.62,343.21c1.01-.42,2.01-.85,3.01-1.29,4.94-2.24,10.79-3.85,16.24-3.22,4.07,.65,7.88,2.57,10.43,5.87,2.78,3.7,3.89,8.39,3.76,12.96,.03,5.21-1.53,9.65-2.51,14.73,1.62-2.76,3.76-5.03,4.94-8.06,1.97-4.75,4.25-9.21,4.34-14.4,.48-6.03-1.48-12.12-5.95-16.29-3.29-2.64-6.68-4.19-10.96-4.04-5.79,.06-11.11,2.26-15.79,5.56-3.05,2.12-5.51,4.79-7.96,7.54-.26,.76-.52,1.52-.77,2.28,.41-.55,.83-1.1,1.24-1.65Z"/>
        <g>
          <path class="cls-2" d="M597.54,820.37c3.69,1.56,6.91,3.49,10.71,4.66,5.96,1.86,12.28,2.83,18.47,3.58,6.55,.9,13.33,.21,19.78-1.07,7.41-1.6,13.5-6.14,17.83-12.27,4.86-7.72,7.62-16.38,7.08-25.58,2.55,2.59,5,4.98,8.41,6.43,6.53,2.92,15.34,1.59,19.81-4.3,4.4-5.86,6.42-13.68,6.57-20.92,.14-4.7-1.52-8.87-1.78-13.51-5.12-8.46-13.25-15.86-22.71-19.04-11.82-3.47-24.72,.87-32.79,9.98-2.58,2.74-4.26,5.83-6.53,8.82,4.15,2.87,7.94,6.22,11.22,10.05,2.25,2.65,3.99,5.6,6.14,8.35-4.24-2.5-8.85-4.11-13.19-6.4-5.59-2.93-11.37-5.49-17.35-7.52-7.27-2.83-15.42-3.83-23.16-4.4-11.77-.43-24.25-.21-35.72,2.69-3.9,.94-8.14,2.06-11.54,4.27-5.5,3.84-10.65,7.64-13.75,13.78-2.71,5.67-5.31,11.48-7.19,17.48-1.75,7.31-2.6,14.89-2.28,22.41,.05,2.79,1.36,4.93,2.73,7.27,.87-7.1,.35-15.37,4.01-21.75,1.7-2.94,4.71-3.74,7.68-4.84,.31-.64,.62-1.28,.95-1.91-1.33,7.74-1.11,15.84-.34,23.63,1.01,9.45,3.14,20,8.57,27.97,3.12,4.14,7.46,8.73,12.6,10.14l2.35-.44c-4.01-5.87-7.59-11.84-9.5-18.75-2.33-6.77-2.1-14.02-.03-20.82,1.26-4,4.17-7.59,8.14-9.12,3.56-.97,6.98-.14,10.36,1.04l-.03,.41c-.06,14.78,2.36,30.36,9.87,43.32,.62-3.26-.39-6.11-.57-9.34-.39-8.63,2.01-16.4,5.16-24.3Z"/>
          <path class="cls-8" d="M706.21,770.92c-.15,7.24-2.17,15.06-6.57,20.92-4.47,5.89-13.28,7.22-19.81,4.3-3.4-1.45-5.86-3.84-8.41-6.43,.54,9.2-2.22,17.86-7.08,25.58-4.33,6.13-10.42,10.67-17.83,12.27-6.45,1.28-13.24,1.97-19.78,1.07-6.19-.75-12.51-1.72-18.47-3.58-3.79-1.17-7.02-3.11-10.71-4.66-3.16,7.9-5.55,15.67-5.16,24.3,.18,3.24,1.19,6.08,.57,9.34,1.86,3.31,4.31,6.56,7.41,8.79,8.19,5.2,18.57,8.26,28.18,5.72,1.96-.58,4.09-1.39,5.53-2.88,5.21-5.71,7.65-12.22,10.76-19.15-1.58-1.25-2.89-2.61-4.98-2.88-5.28-.96-10.48,2.28-12.94,6.84-.95-3.95-3.17-7.68-6.8-9.67-3.9-1.72-8.11-2.34-12.34-1.85,2.31-1.54,4.26-3.14,7.02-3.82,6.51-1.64,12.44-.43,18.96,.08,6.09,.53,12.87,1.57,18.91,.53,12.84-2.43,24.26-11.96,27.94-24.67,0,5.15-.85,9.99-2.17,14.94,8.5-.18,16.8-3.61,22.76-9.71,5.29-5.22,8.81-12.29,10.55-19.45,3.13-13.37,.38-28.07-7.31-39.44,.26,4.65,1.92,8.81,1.78,13.51Z"/>
          <path class="cls-8" d="M542.32,803.39c-3.67,6.38-3.15,14.65-4.01,21.75,.96,1.04,2.25,3.3,3.89,2.68,1.22-.14,1.9-1.13,2.03-2.29,.39-9.16,2.11-18.54,5.77-26.98-2.97,1.11-5.98,1.9-7.68,4.84Z"/>
          <path class="cls-8" d="M572.74,809.24c-3.98,1.52-6.88,5.11-8.14,9.12-2.07,6.8-2.3,14.05,.03,20.82,1.91,6.92,5.49,12.88,9.5,18.75l-2.35,.44c3.52,1.19,6.25-.2,9.38-1.63-.77-11.64-2.29-22.57-1.29-34.3,.38-4.1,2.11-7.64,3.2-11.75l.03-.41c-3.38-1.18-6.8-2.01-10.36-1.04Z"/>
          <path d="M728.54,783.33c-.13-1.19-.26-2.38-.36-3.5-.08-1.11-.27-2.18-.45-3.22-.2-1.12-.53-3-.32-3.54l.22-.54c.64-1.94,1.81-3.6,3.16-5.52,.71-1,1.43-2.04,2.12-3.15,8.84-13.91,15.28-30.07,19.14-48.08,2.43-12.24,2.77-22.54,1.04-31.47-.63-4.11-2.97-6.69-4.84-8.77l-.51-.57c-16.1-18.2-38.41-33.1-66.29-44.29-8.87-3.59-17.93-6.84-26.95-9.64-11.49-3.87-23.25-6.73-35.11-8.55-5.27-2.6-11.8-3.97-18.8-3.6-8.67,.47-16.34,3.53-21.61,8.04-4.84,4.14-7.64,9.51-7.34,15.23,.59,10.88,12.25,19.27,26.89,20.01,5.54,1.66,12.22,3.61,17.57,6.07,18.89,8.72,38.83,12.55,54.19,20.17,8.69,4.59,15.46,8.92,21.19,13.56-1.61,8.41-5.04,17.28-10.19,26.39l-.13,.21c-.45-.06-.92-.13-1.4-.2-1.19-.18-2.42-.36-3.76-.47-15.07-.97-30.22,5.07-40.54,16.2-1.63,1.6-3,3.43-4.32,5.2-1.14,1.53-2.25,3-3.36,4.12-14.52-4.83-30.69-6.72-46.93-5.48-10.17,.49-19.65,2.64-28.19,6.38-5.28,2.34-9.85,5.49-14.26,8.54l-1.11,.77c-1.3,.94-2.78,2.15-3.93,4.01l-.16,.27c-1.33,2.5-2.65,5-3.89,7.53,0-.41-.01-.82-.03-1.24-1.4,2.94-2.75,5.9-4.02,8.91-1.84,4.7-3.42,9.51-4.54,14.42,.01,.61,0,1.22-.03,1.82,.14-.2,.29-.39,.43-.59-.05,.28-.1,.57-.15,.85-1.38,6.5-2.25,13.45-2.68,21.23v.26s.02,.64,.02,.64c.39,8.29,.76,16.13,5.26,24.21l.22,.35c2.8,4.17,6.27,7.65,10.05,10.06,2.16,1.44,4.36,1.96,6.29,2.27,2.44,6.57,6.63,14.58,13.6,20.24,5.43,4.37,12.78,5.92,21.26,4.48l.17-.03c.74-.15,1.47-.3,2.2-.44,3.1-.61,6.27-1.24,9.45-2.3,2.09,2.23,4.6,4.57,7.47,6.42,4.84,2.99,11.4,6.57,19.22,7.73l.95,.12c3.6,.46,7.42,.95,11.32,.9,4.35-.05,8.79-.78,13.14-2.95,6.61-3.06,10.63-8.77,14.18-13.8l.64-.9,.2-.31c2.17-3.61,4.29-7.75,6.43-12.62,.46-.18,.92-.35,1.39-.53,2.22-.84,4.51-1.71,6.91-3.28,3.14-2.08,5.85-4.59,8.44-7.1,11.78,.11,23.04-3.86,31.87-11.25,10.27-8.32,17.22-20.64,19.59-34.7,1.06-5.18,.51-10.16-.02-14.97Zm-16.8,13.51c-1.74,7.17-5.26,14.24-10.55,19.45-5.96,6.1-14.27,9.53-22.76,9.71,1.32-4.95,2.18-9.79,2.17-14.94-3.68,12.7-15.1,22.23-27.94,24.67-6.03,1.04-12.82,0-18.91-.53-6.52-.51-12.45-1.72-18.96-.08-2.76,.68-4.72,2.28-7.02,3.82,4.23-.49,8.45,.13,12.34,1.85,3.63,1.99,5.86,5.72,6.8,9.67,2.47-4.56,7.66-7.79,12.94-6.84,2.09,.28,3.4,1.63,4.98,2.88-3.12,6.93-5.55,13.43-10.76,19.15-1.45,1.49-3.58,2.29-5.53,2.88-9.6,2.54-19.98-.52-28.18-5.72-3.1-2.23-5.55-5.48-7.41-8.79-7.51-12.96-9.92-28.54-9.87-43.32-1.09,4.11-2.82,7.65-3.2,11.75-1,11.72,.53,22.66,1.29,34.3-3.13,1.43-5.86,2.82-9.38,1.63-5.13-1.41-9.48-6-12.6-10.14-5.44-7.97-7.56-18.52-8.57-27.97-.77-7.79-.99-15.89,.34-23.63-.33,.63-.64,1.27-.95,1.91-3.67,8.44-5.38,17.82-5.77,26.98-.13,1.16-.81,2.15-2.03,2.29-1.65,.62-2.93-1.64-3.89-2.68-1.37-2.33-2.68-4.48-2.73-7.27-.32-7.51,.53-15.1,2.28-22.41,1.88-6,4.48-11.81,7.19-17.48,3.1-6.14,8.25-9.94,13.75-13.78,3.4-2.21,7.64-3.32,11.54-4.27,11.47-2.9,23.95-3.12,35.72-2.69,7.74,.57,15.89,1.57,23.16,4.4,5.98,2.03,11.76,4.6,17.35,7.52,4.34,2.3,8.95,3.9,13.19,6.4-2.15-2.75-3.89-5.7-6.14-8.35-3.28-3.83-7.06-7.19-11.22-10.05,2.27-2.99,3.94-6.09,6.53-8.82,8.07-9.11,20.97-13.45,32.79-9.98,9.46,3.18,17.59,10.58,22.71,19.04,7.69,11.37,10.44,26.07,7.31,39.44Z"/>
        </g>
      </g>
    </g>
  </g>
</svg>